<?xml version="1.0" encoding="utf-8"?>
<!-- Generator: Adobe Illustrator 25.0.0, SVG Export Plug-In . SVG Version: 6.00 Build 0)  -->
<svg version="1.1" id="Layer_1" xmlns="http://www.w3.org/2000/svg" xmlns:xlink="http://www.w3.org/1999/xlink" x="0px" y="0px"
	 viewBox="0 0 288 288" style="enable-background:new 0 0 288 288;" xml:space="preserve">
<style type="text/css">
	.st0{opacity:0.5;fill:#030302;stroke:#875730;stroke-width:7;stroke-miterlimit:10;}
	.st1{fill:none;stroke:#875730;stroke-width:7;stroke-miterlimit:10;}
	.st2{fill:#FFFFFF;}
</style>
<g>
	<circle class="st0" cx="143.83" cy="144" r="126.66"/>
	<circle class="st1" cx="144" cy="144" r="126.66"/>
	<g>
		<path class="st2" d="M51.22,120.31v-1.18l0.35-0.04c0.32-0.04,0.39-0.15,0.46-0.42l2.16-6.37l-0.74-0.07V111h3.43l2.83,8.04
			l0.7,0.06v1.22h-3.6v-1.18l0.45-0.04c0.27-0.04,0.32-0.15,0.22-0.42l-0.31-0.88h-2.93l-0.43,1.26l0.71,0.04v1.22H51.22z
			 M54.53,116.46h2.37l-1.15-3.67h-0.06L54.53,116.46z"/>
		<path class="st2" d="M63.61,115.9v3.19l1.16,0.06v1.16H60.9v-1.11l0.45-0.04c0.29-0.04,0.34-0.14,0.34-0.46v-3.88
			c0-0.28-0.08-0.38-0.32-0.39l-0.48-0.04v-1.18h2.56v1.08h0.03c0.22-0.56,0.83-1.26,1.99-1.26c0.41,0,0.91,0.07,1.29,0.24v2.52
			l-1.58,0.11v-0.92c0-0.22-0.03-0.29-0.13-0.34c-0.08-0.03-0.2-0.04-0.35-0.04C64.02,114.6,63.61,115.16,63.61,115.9z"/>
		<path class="st2" d="M70.22,119.11l0.73,0.04v1.16h-3.46v-1.11l0.46-0.04c0.27-0.04,0.32-0.11,0.32-0.46v-3.87
			c0-0.29-0.07-0.39-0.34-0.41l-0.46-0.04v-1.18h2.75V119.11z M69.05,110.13c0.69,0,1.18,0.42,1.18,1.04c0,0.66-0.49,1.11-1.18,1.11
			c-0.71,0-1.16-0.45-1.16-1.06C67.88,110.61,68.33,110.13,69.05,110.13z"/>
		<path class="st2" d="M77.49,113.21v1.09l-3.59,4.73h1.81c0.28,0,0.39-0.07,0.39-0.39v-0.6l1.47,0.11v2.16h-5.84v-1.12l3.59-4.69
			h-1.64c-0.29,0-0.41,0.07-0.41,0.36v0.63l-1.47-0.11v-2.17H77.49z"/>
		<path class="st2" d="M81.7,113.03c1.06,0,3.19,0.31,3.19,3.56c0,2.73-1.4,3.92-3.42,3.92c-2,0-3.17-1.16-3.17-3.73
			C78.31,113.82,80.22,113.03,81.7,113.03z M82.85,116.8c0-1.51-0.29-2.31-1.25-2.31c-0.91,0-1.26,0.78-1.26,2.07
			c0,1.27,0.17,2.48,1.25,2.48C82.5,119.04,82.85,118.2,82.85,116.8z"/>
		<path class="st2" d="M90.59,115.85c0-0.78-0.17-1.25-0.95-1.25c-0.77,0-1.22,0.62-1.22,1.33v3.18l0.63,0.04v1.16h-3.36v-1.11
			l0.45-0.04c0.27-0.04,0.34-0.11,0.34-0.43v-3.89c0-0.29-0.07-0.39-0.34-0.41l-0.46-0.04v-1.18h2.59v0.95h0.03
			c0.38-0.66,1.05-1.13,2.1-1.13c1.39,0,2.16,0.71,2.16,2.38v3.7l0.67,0.04v1.16h-3.4v-1.11l0.42-0.04
			c0.27-0.04,0.35-0.11,0.35-0.46V115.85z"/>
		<path class="st2" d="M100.34,118.77c0,0.28,0.07,0.38,0.31,0.39l0.39,0.03v1.12h-2.27l-0.06-0.7l-0.06-0.01
			c-0.34,0.52-0.97,0.9-1.86,0.9c-2.07,0-2.8-1.51-2.8-3.42c0-2.47,1.23-4.05,3.77-4.05c0.49,0,1.51,0.1,2.58,0.5V118.77z
			 M98.41,114.61c-0.18-0.07-0.52-0.14-0.87-0.14c-1.22,0-1.57,1.18-1.57,2.51c0,1.08,0.25,2.09,1.26,2.09
			c0.77,0,1.18-0.52,1.18-1.08V114.61z"/>
		<path class="st2" d="M107.24,119.11l0.73,0.04v1.16h-3.46v-1.11l0.46-0.04c0.27-0.04,0.32-0.11,0.32-0.46v-3.87
			c0-0.29-0.07-0.39-0.34-0.41l-0.46-0.04v-1.18h2.75V119.11z M106.06,110.13c0.69,0,1.18,0.42,1.18,1.04
			c0,0.66-0.49,1.11-1.18,1.11c-0.71,0-1.16-0.45-1.16-1.06C104.9,110.61,105.35,110.13,106.06,110.13z"/>
		<path class="st2" d="M111.77,114.36c-0.56,0-0.98,0.24-0.98,0.73c0,0.63,0.6,0.74,1.34,0.97c1.02,0.31,2.13,0.63,2.13,2.09
			c0,1.51-1.15,2.37-2.96,2.37c-0.85,0-1.93-0.18-2.48-0.48v-1.86l1.4-0.11v0.63c0,0.21,0.04,0.29,0.21,0.35
			c0.18,0.07,0.48,0.13,0.76,0.13c0.66,0,1.09-0.21,1.09-0.81c0-0.6-0.55-0.74-1.33-0.92c-1.01-0.27-2.07-0.59-2.07-2.1
			c0-1.5,1.25-2.3,2.93-2.3c0.77,0,1.61,0.17,2.23,0.5v1.75l-1.39,0.11v-0.57c0-0.22-0.03-0.32-0.2-0.38
			C112.25,114.38,112,114.36,111.77,114.36z"/>
		<path class="st2" d="M117.72,113.37c1.01-0.18,1.39-0.92,1.68-1.77h1.08v1.61h1.74l-0.07,1.36h-1.67v3.35
			c0,0.83,0.29,1.05,0.85,1.05c0.38,0,0.71-0.11,0.94-0.24l0.32,1.33c-0.39,0.27-1.06,0.45-1.79,0.45c-2.19,0-2.3-1.32-2.3-2.51
			v-3.43h-0.95L117.72,113.37z"/>
		<path class="st2" d="M128.06,115.82c0-0.77-0.17-1.22-0.97-1.22c-0.73,0-1.21,0.57-1.21,1.34v3.17l0.64,0.04v1.16h-3.36v-1.11
			l0.42-0.04c0.27-0.04,0.35-0.11,0.35-0.46v-6.75c0-0.29-0.07-0.39-0.34-0.41l-0.46-0.04v-1.18h2.72v3.84
			c0.46-0.85,1.26-1.13,1.99-1.13c1.58,0,2.17,0.91,2.17,2.38v3.7l0.67,0.04v1.16h-3.4v-1.11l0.42-0.04
			c0.27-0.04,0.35-0.11,0.35-0.46V115.82z"/>
		<path class="st2" d="M137.4,115.08c0,2-1.75,2.52-3.95,2.45c0.07,0.81,0.5,1.48,1.58,1.48c0.78,0,1.37-0.29,1.76-0.56l0.56,1.33
			c-0.18,0.11-1.13,0.73-2.58,0.73c-2.4,0-3.31-1.54-3.31-3.56c0-2.14,1.25-3.92,3.54-3.92C136.47,113.03,137.4,113.68,137.4,115.08
			z M134.92,114.45c-0.92,0-1.44,0.84-1.48,1.79c1.4,0.06,2.26-0.18,2.26-1.06C135.69,114.66,135.36,114.45,134.92,114.45z"/>
		<path class="st2" d="M140.88,113.37c1.01-0.18,1.39-0.92,1.68-1.77h1.08v1.61h1.74l-0.07,1.36h-1.67v3.35
			c0,0.83,0.29,1.05,0.85,1.05c0.38,0,0.71-0.11,0.94-0.24l0.32,1.33c-0.39,0.27-1.06,0.45-1.79,0.45c-2.19,0-2.3-1.32-2.3-2.51
			v-3.43h-0.95L140.88,113.37z"/>
		<path class="st2" d="M149.5,113.03c1.06,0,3.19,0.31,3.19,3.56c0,2.73-1.4,3.92-3.42,3.92c-2,0-3.17-1.16-3.17-3.73
			C146.11,113.82,148.02,113.03,149.5,113.03z M150.65,116.8c0-1.51-0.29-2.31-1.25-2.31c-0.91,0-1.26,0.78-1.26,2.07
			c0,1.27,0.17,2.48,1.25,2.48C150.3,119.04,150.65,118.2,150.65,116.8z"/>
		<path class="st2" d="M154.22,114.82c0-0.27-0.11-0.39-0.34-0.41l-0.46-0.03v-1.18h2.59v0.87h0.03c0.43-0.77,1.22-1.05,2-1.05
			c1.64,0,2.52,1.26,2.52,3.52c0,2.45-1.02,3.96-3,3.96c-0.5,0-1.02-0.14-1.4-0.35v1.82l1.2,0.07v1.16h-3.92v-1.11l0.43-0.06
			c0.27-0.04,0.34-0.1,0.34-0.45V114.82z M156.18,118.72c0.28,0.21,0.69,0.34,1.04,0.34c1.05,0,1.37-0.99,1.37-2.27
			c0-1.15-0.21-2.27-1.23-2.27c-0.81,0-1.18,0.64-1.18,1.09V118.72z"/>
		<path class="st2" d="M164.8,114.82c0-0.27-0.11-0.39-0.34-0.41l-0.46-0.03v-1.18h2.59v0.87h0.03c0.43-0.77,1.22-1.05,2-1.05
			c1.64,0,2.52,1.26,2.52,3.52c0,2.45-1.02,3.96-3,3.96c-0.5,0-1.02-0.14-1.4-0.35v1.82l1.21,0.07v1.16h-3.92v-1.11l0.43-0.06
			c0.27-0.04,0.34-0.1,0.34-0.45V114.82z M166.77,118.72c0.28,0.21,0.69,0.34,1.04,0.34c1.05,0,1.37-0.99,1.37-2.27
			c0-1.15-0.21-2.27-1.23-2.27c-0.81,0-1.18,0.64-1.18,1.09V118.72z"/>
		<path class="st2" d="M174.65,115.9v3.19l1.16,0.06v1.16h-3.88v-1.11l0.45-0.04c0.29-0.04,0.34-0.14,0.34-0.46v-3.88
			c0-0.28-0.08-0.38-0.32-0.39l-0.48-0.04v-1.18h2.56v1.08h0.03c0.22-0.56,0.83-1.26,1.99-1.26c0.41,0,0.91,0.07,1.29,0.24v2.52
			l-1.58,0.11v-0.92c0-0.22-0.03-0.29-0.13-0.34c-0.08-0.03-0.2-0.04-0.35-0.04C175.05,114.6,174.65,115.16,174.65,115.9z"/>
		<path class="st2" d="M181.88,113.03c1.06,0,3.19,0.31,3.19,3.56c0,2.73-1.4,3.92-3.42,3.92c-2,0-3.17-1.16-3.17-3.73
			C178.49,113.82,180.4,113.03,181.88,113.03z M183.03,116.8c0-1.51-0.29-2.31-1.25-2.31c-0.91,0-1.26,0.78-1.26,2.07
			c0,1.27,0.17,2.48,1.25,2.48C182.68,119.04,183.03,118.2,183.03,116.8z"/>
		<path class="st2" d="M192.3,118.75c0,0.32,0.04,0.39,0.31,0.41l0.39,0.04v1.12h-2.27l-0.06-0.7l-0.06-0.01
			c-0.45,0.66-1.15,0.9-1.88,0.9c-2.13,0-2.77-1.64-2.77-3.47c0-2.25,1.15-3.99,3.29-3.99c0.38,0,0.74,0.06,1.11,0.17v-1.25
			c0-0.27-0.11-0.39-0.34-0.41l-0.46-0.04v-1.18h2.73V118.75z M190.37,117.92v-3.25c-0.22-0.11-0.53-0.2-0.91-0.2
			c-1.13,0-1.53,1.09-1.53,2.37c0,1.2,0.25,2.21,1.27,2.21C189.93,119.05,190.37,118.61,190.37,117.92z"/>
		<path class="st2" d="M200.49,118.7c0,0.32,0.04,0.41,0.31,0.45l0.38,0.04v1.12h-2.48v-0.9h-0.04c-0.41,0.71-1.13,1.09-2.07,1.09
			c-1.44,0-2.17-0.8-2.17-2.38v-3.29c0-0.32-0.1-0.39-0.34-0.41l-0.39-0.04v-1.18h2.69v4.5c0,0.83,0.15,1.25,0.92,1.25
			c0.73,0,1.25-0.57,1.25-1.37v-2.75c0-0.29-0.07-0.39-0.34-0.41l-0.34-0.03v-1.19h2.62V118.7z"/>
		<path class="st2" d="M204.02,116.74c0,1.34,0.48,2.2,1.6,2.2c0.52,0,1.06-0.2,1.61-0.6l0.71,1.29c-0.6,0.49-1.5,0.88-2.58,0.88
			c-2.09,0-3.33-1.23-3.33-3.68c0-2.8,1.74-3.8,3.47-3.8c0.84,0,1.64,0.18,2.24,0.53v2.1l-1.46,0.1v-0.76
			c0-0.22-0.01-0.34-0.22-0.39c-0.15-0.04-0.32-0.07-0.49-0.07C204.6,114.54,204.02,115.24,204.02,116.74z"/>
		<path class="st2" d="M214.48,115.08c0,2-1.75,2.52-3.95,2.45c0.07,0.81,0.5,1.48,1.58,1.48c0.79,0,1.37-0.29,1.77-0.56l0.56,1.33
			c-0.18,0.11-1.13,0.73-2.58,0.73c-2.4,0-3.31-1.54-3.31-3.56c0-2.14,1.25-3.92,3.54-3.92
			C213.55,113.03,214.48,113.68,214.48,115.08z M212,114.45c-0.92,0-1.44,0.84-1.49,1.79c1.4,0.06,2.25-0.18,2.25-1.06
			C212.77,114.66,212.45,114.45,212,114.45z"/>
		<path class="st2" d="M218,115.9v3.19l1.16,0.06v1.16h-3.88v-1.11l0.45-0.04c0.29-0.04,0.34-0.14,0.34-0.46v-3.88
			c0-0.28-0.08-0.38-0.32-0.39l-0.48-0.04v-1.18h2.56v1.08h0.03c0.22-0.56,0.83-1.26,1.99-1.26c0.41,0,0.91,0.07,1.29,0.24v2.52
			l-1.58,0.11v-0.92c0-0.22-0.03-0.29-0.13-0.34c-0.08-0.03-0.2-0.04-0.35-0.04C218.41,114.6,218,115.16,218,115.9z"/>
		<path class="st2" d="M228.07,113.03c1.06,0,3.19,0.31,3.19,3.56c0,2.73-1.4,3.92-3.42,3.92c-2,0-3.17-1.16-3.17-3.73
			C224.68,113.82,226.58,113.03,228.07,113.03z M229.22,116.8c0-1.51-0.29-2.31-1.25-2.31c-0.91,0-1.26,0.78-1.26,2.07
			c0,1.27,0.17,2.48,1.25,2.48C228.87,119.04,229.22,118.2,229.22,116.8z"/>
		<path class="st2" d="M232.01,113.21h0.94v-0.46c0-1.37,0.46-2.58,2.42-2.58c0.71,0,1.53,0.22,2.07,0.5l-0.46,1.26
			c-0.42-0.2-0.81-0.29-1.19-0.29c-0.6,0-0.9,0.31-0.9,1.05v0.52h1.88v1.33h-1.88v4.55l1.12,0.06v1.16h-3.84v-1.11l0.43-0.04
			c0.27-0.04,0.34-0.11,0.34-0.46v-4.16h-0.94V113.21z"/>
		<path class="st2" d="M62.41,133.54c0,1.34,0.48,2.2,1.6,2.2c0.52,0,1.06-0.2,1.61-0.6l0.71,1.29c-0.6,0.49-1.5,0.88-2.58,0.88
			c-2.09,0-3.33-1.23-3.33-3.68c0-2.8,1.74-3.8,3.47-3.8c0.84,0,1.64,0.18,2.24,0.53v2.1l-1.46,0.1v-0.76
			c0-0.22-0.01-0.34-0.22-0.39c-0.15-0.04-0.32-0.07-0.49-0.07C63,131.34,62.41,132.04,62.41,133.54z"/>
		<path class="st2" d="M70.34,129.83c1.06,0,3.19,0.31,3.19,3.56c0,2.73-1.4,3.92-3.42,3.92c-2,0-3.17-1.16-3.17-3.73
			C66.95,130.62,68.85,129.83,70.34,129.83z M71.48,133.6c0-1.51-0.29-2.31-1.25-2.31c-0.91,0-1.26,0.78-1.26,2.07
			c0,1.27,0.17,2.48,1.25,2.48C71.13,135.84,71.48,135,71.48,133.6z"/>
		<path class="st2" d="M75.05,131.62c0-0.27-0.11-0.39-0.34-0.41l-0.46-0.03v-1.18h2.59v0.87h0.03c0.43-0.77,1.22-1.05,2-1.05
			c1.64,0,2.52,1.26,2.52,3.52c0,2.45-1.02,3.96-3,3.96c-0.5,0-1.02-0.14-1.4-0.35v1.82l1.2,0.07v1.16h-3.92v-1.11l0.43-0.06
			c0.27-0.04,0.34-0.1,0.34-0.45V131.62z M77.01,135.52c0.28,0.21,0.69,0.34,1.04,0.34c1.05,0,1.37-0.99,1.37-2.27
			c0-1.15-0.21-2.27-1.23-2.27c-0.81,0-1.18,0.64-1.18,1.09V135.52z"/>
		<path class="st2" d="M82.91,131.62c0-0.27-0.11-0.39-0.34-0.41l-0.46-0.03v-1.18h2.59v0.87h0.03c0.43-0.77,1.22-1.05,2-1.05
			c1.64,0,2.52,1.26,2.52,3.52c0,2.45-1.02,3.96-3,3.96c-0.5,0-1.02-0.14-1.4-0.35v1.82l1.21,0.07v1.16h-3.92v-1.11l0.43-0.06
			c0.27-0.04,0.34-0.1,0.34-0.45V131.62z M84.87,135.52c0.28,0.21,0.69,0.34,1.04,0.34c1.05,0,1.37-0.99,1.37-2.27
			c0-1.15-0.21-2.27-1.23-2.27c-0.81,0-1.18,0.64-1.18,1.09V135.52z"/>
		<path class="st2" d="M96.06,131.88c0,2-1.75,2.52-3.95,2.45c0.07,0.81,0.5,1.48,1.58,1.48c0.78,0,1.37-0.29,1.76-0.56l0.56,1.33
			c-0.18,0.11-1.13,0.73-2.58,0.73c-2.4,0-3.31-1.54-3.31-3.56c0-2.14,1.25-3.92,3.54-3.92C95.13,129.83,96.06,130.48,96.06,131.88z
			 M93.58,131.25c-0.92,0-1.44,0.84-1.48,1.79c1.4,0.06,2.26-0.18,2.26-1.06C94.35,131.46,94.02,131.25,93.58,131.25z"/>
		<path class="st2" d="M99.58,132.7v3.19l1.16,0.06v1.16h-3.88v-1.11l0.45-0.04c0.29-0.04,0.34-0.14,0.34-0.46v-3.88
			c0-0.28-0.08-0.38-0.32-0.39l-0.48-0.04v-1.18h2.56v1.08h0.03c0.22-0.56,0.83-1.26,1.99-1.26c0.41,0,0.91,0.07,1.29,0.24v2.52
			l-1.58,0.11v-0.92c0-0.22-0.03-0.29-0.13-0.34c-0.08-0.03-0.2-0.04-0.35-0.04C99.99,131.4,99.58,131.96,99.58,132.7z"/>
		<path class="st2" d="M105,135.31c0.69,0,1.08,0.43,1.08,0.99c0,0.55-0.38,1.02-1.04,1.02c-0.71,0-1.08-0.46-1.08-1.02
			C103.96,135.78,104.38,135.31,105,135.31z M104.16,128.36c0-0.39,0.22-0.73,0.88-0.73c0.67,0,0.9,0.32,0.9,0.76v1.55l-0.31,4.62
			h-1.16l-0.31-4.62V128.36z"/>
		<path class="st2" d="M114.66,134.51c0-0.8-0.69-1.06-1.61-1.33c-1.26-0.34-2.65-0.9-2.65-2.72c0-1.79,1.33-2.83,3.35-2.83
			c1.01,0,2.02,0.2,2.7,0.53v2.23l-1.53,0.11v-0.81c0-0.22-0.03-0.34-0.24-0.41c-0.21-0.06-0.57-0.1-0.9-0.1
			c-0.67,0-1.3,0.25-1.3,1.04c0,0.81,0.67,1.02,1.68,1.36c1.27,0.41,2.62,0.87,2.62,2.73c0,1.91-1.3,2.98-3.56,2.98
			c-0.95,0-2.03-0.13-2.87-0.52v-2.33l1.55-0.11v0.88c0,0.22,0.01,0.34,0.22,0.39c0.21,0.07,0.62,0.13,0.99,0.13
			C113.95,135.74,114.66,135.46,114.66,134.51z"/>
		<path class="st2" d="M124.27,135.5c0,0.32,0.04,0.41,0.31,0.45l0.38,0.04v1.12h-2.48v-0.9h-0.04c-0.41,0.71-1.13,1.09-2.07,1.09
			c-1.44,0-2.17-0.8-2.17-2.38v-3.29c0-0.32-0.1-0.39-0.34-0.41l-0.39-0.04v-1.18h2.69v4.5c0,0.83,0.15,1.25,0.92,1.25
			c0.73,0,1.25-0.57,1.25-1.37v-2.75c0-0.29-0.07-0.39-0.34-0.41l-0.34-0.03v-1.19h2.62V135.5z"/>
		<path class="st2" d="M127.79,133.54c0,1.34,0.48,2.2,1.6,2.2c0.52,0,1.06-0.2,1.61-0.6l0.71,1.29c-0.6,0.49-1.5,0.88-2.58,0.88
			c-2.09,0-3.33-1.23-3.33-3.68c0-2.8,1.74-3.8,3.47-3.8c0.84,0,1.64,0.18,2.24,0.53v2.1l-1.46,0.1v-0.76
			c0-0.22-0.01-0.34-0.22-0.39c-0.15-0.04-0.32-0.07-0.49-0.07C128.38,131.34,127.79,132.04,127.79,133.54z"/>
		<path class="st2" d="M137.26,132.62c0-0.77-0.17-1.22-0.97-1.22c-0.73,0-1.2,0.57-1.2,1.34v3.17l0.64,0.04v1.16h-3.36v-1.11
			l0.42-0.04c0.27-0.04,0.35-0.11,0.35-0.46v-6.75c0-0.29-0.07-0.39-0.34-0.41l-0.46-0.04v-1.18h2.72v3.84
			c0.46-0.85,1.26-1.13,1.99-1.13c1.58,0,2.17,0.91,2.17,2.38v3.7l0.67,0.04v1.16h-3.4v-1.11l0.42-0.04
			c0.27-0.04,0.35-0.11,0.35-0.46V132.62z"/>
		<path class="st2" d="M144.09,131.64c0-0.29-0.07-0.39-0.34-0.41l-0.46-0.04v-1.18h2.56v0.97h0.03c0.35-0.66,0.99-1.15,2.06-1.15
			c0.71,0,1.47,0.27,1.88,1.18c0.41-0.74,1.11-1.18,2.07-1.18c1.36,0,2.1,0.78,2.1,2.41v3.67H154l0.67,0.04v1.16h-3.4v-1.11
			l0.42-0.04c0.27-0.04,0.35-0.11,0.35-0.45v-2.89c0-0.74-0.15-1.23-0.94-1.23c-0.66,0-1.09,0.56-1.09,1.27v3.24l0.67,0.04v1.16
			h-3.4v-1.11l0.42-0.04c0.27-0.04,0.35-0.11,0.35-0.45v-2.87c0-0.73-0.11-1.25-0.91-1.25c-0.67,0-1.12,0.59-1.12,1.32v3.19
			l0.64,0.06v1.15h-3.36v-1.11l0.45-0.06c0.27-0.04,0.34-0.1,0.34-0.43V131.64z"/>
		<path class="st2" d="M158.1,135.91l0.73,0.04v1.16h-3.46v-1.11l0.46-0.04c0.27-0.04,0.32-0.11,0.32-0.46v-3.87
			c0-0.29-0.07-0.39-0.34-0.41l-0.46-0.04v-1.18h2.75V135.91z M156.92,126.93c0.69,0,1.18,0.42,1.18,1.04
			c0,0.66-0.49,1.11-1.18,1.11c-0.71,0-1.16-0.45-1.16-1.06C155.76,127.41,156.21,126.93,156.92,126.93z"/>
		<path class="st2" d="M164.42,132.65c0-0.78-0.17-1.25-0.95-1.25c-0.77,0-1.22,0.62-1.22,1.33v3.18l0.63,0.04v1.16h-3.36v-1.11
			l0.45-0.04c0.27-0.04,0.34-0.11,0.34-0.43v-3.89c0-0.29-0.07-0.39-0.34-0.41l-0.46-0.04v-1.18h2.59v0.95h0.03
			c0.38-0.66,1.05-1.13,2.1-1.13c1.39,0,2.16,0.71,2.16,2.38v3.7l0.67,0.04v1.16h-3.4v-1.11l0.42-0.04
			c0.27-0.04,0.35-0.11,0.35-0.46V132.65z"/>
		<path class="st2" d="M173.75,131.88c0,2-1.75,2.52-3.95,2.45c0.07,0.81,0.5,1.48,1.58,1.48c0.79,0,1.37-0.29,1.77-0.56l0.56,1.33
			c-0.18,0.11-1.13,0.73-2.58,0.73c-2.4,0-3.31-1.54-3.31-3.56c0-2.14,1.25-3.92,3.54-3.92
			C172.83,129.83,173.75,130.48,173.75,131.88z M171.28,131.25c-0.92,0-1.44,0.84-1.49,1.79c1.4,0.06,2.25-0.18,2.25-1.06
			C172.05,131.46,171.72,131.25,171.28,131.25z"/>
		<path class="st2" d="M177.28,132.7v3.19l1.16,0.06v1.16h-3.88v-1.11l0.45-0.04c0.29-0.04,0.34-0.14,0.34-0.46v-3.88
			c0-0.28-0.08-0.38-0.32-0.39l-0.48-0.04v-1.18h2.56v1.08h0.03c0.22-0.56,0.83-1.26,1.99-1.26c0.41,0,0.91,0.07,1.29,0.24v2.52
			l-1.58,0.11v-0.92c0-0.22-0.03-0.29-0.13-0.34c-0.08-0.03-0.2-0.04-0.35-0.04C177.69,131.4,177.28,131.96,177.28,132.7z"/>
		<path class="st2" d="M187.45,135.57c0,0.28,0.07,0.38,0.31,0.39l0.39,0.03v1.12h-2.27l-0.06-0.7l-0.06-0.01
			c-0.34,0.52-0.97,0.9-1.86,0.9c-2.07,0-2.8-1.51-2.8-3.42c0-2.47,1.23-4.05,3.77-4.05c0.49,0,1.51,0.1,2.58,0.5V135.57z
			 M185.51,131.41c-0.18-0.07-0.52-0.14-0.87-0.14c-1.22,0-1.57,1.18-1.57,2.51c0,1.08,0.25,2.09,1.26,2.09
			c0.77,0,1.18-0.52,1.18-1.08V131.41z"/>
		<path class="st2" d="M191.56,135.91l0.73,0.04v1.16h-3.45v-1.11l0.45-0.06c0.27-0.04,0.32-0.1,0.32-0.45v-6.75
			c0-0.29-0.07-0.39-0.34-0.41l-0.46-0.04v-1.18h2.75V135.91z"/>
		<path class="st2" d="M196.05,131.16c-0.56,0-0.98,0.24-0.98,0.73c0,0.63,0.6,0.74,1.34,0.97c1.02,0.31,2.13,0.63,2.13,2.09
			c0,1.51-1.15,2.37-2.96,2.37c-0.85,0-1.93-0.18-2.48-0.48v-1.86l1.4-0.11v0.63c0,0.21,0.04,0.29,0.21,0.35
			c0.18,0.07,0.48,0.13,0.76,0.13c0.66,0,1.09-0.21,1.09-0.81c0-0.6-0.55-0.74-1.33-0.92c-1.01-0.27-2.07-0.59-2.07-2.1
			c0-1.5,1.25-2.3,2.93-2.3c0.77,0,1.61,0.17,2.23,0.5v1.75l-1.39,0.11v-0.57c0-0.22-0.03-0.32-0.2-0.38
			C196.53,131.18,196.28,131.16,196.05,131.16z"/>
		<path class="st2" d="M206.69,136.08c-0.34,0.49-0.97,0.81-1.75,0.81c-1.92,0-2.77-1.34-2.77-3.32c0-2.35,1.33-3.74,3.64-3.74
			c0.63,0,1.71,0.11,2.72,0.52v6.08c0,1.68-0.42,3.68-3.39,3.68c-0.85,0-1.99-0.15-2.58-0.49v-1.96l1.5-0.11v0.63
			c0,0.28,0.06,0.38,0.29,0.45c0.2,0.07,0.43,0.1,0.73,0.1c1.18,0,1.61-0.63,1.61-2.02V136.08z M206.6,131.41
			c-0.29-0.1-0.62-0.15-0.97-0.15c-1.01,0-1.48,0.88-1.48,2.23c0,1.02,0.17,1.99,1.27,1.99c0.74,0,1.18-0.48,1.18-1.19V131.41z"/>
		<path class="st2" d="M212.53,135.91l0.73,0.04v1.16h-3.46v-1.11l0.46-0.04c0.27-0.04,0.32-0.11,0.32-0.46v-3.87
			c0-0.29-0.07-0.39-0.34-0.41l-0.46-0.04v-1.18h2.75V135.91z M211.35,126.93c0.69,0,1.18,0.42,1.18,1.04
			c0,0.66-0.49,1.11-1.18,1.11c-0.71,0-1.16-0.45-1.16-1.06C210.19,127.41,210.64,126.93,211.35,126.93z"/>
		<path class="st2" d="M221.34,130.01v1.16L221,131.2c-0.24,0.04-0.34,0.08-0.45,0.41l-1.92,5.5h-2.23l-2.06-5.85l-0.66-0.08v-1.16
			h3.47v1.19l-0.42,0.04c-0.22,0.03-0.29,0.15-0.22,0.38l1.12,3.67h0.01l1.3-4.03l-0.6-0.04v-1.21H221.34z"/>
		<path class="st2" d="M227.57,131.88c0,2-1.75,2.52-3.95,2.45c0.07,0.81,0.5,1.48,1.58,1.48c0.79,0,1.37-0.29,1.77-0.56l0.56,1.33
			c-0.18,0.11-1.13,0.73-2.58,0.73c-2.4,0-3.31-1.54-3.31-3.56c0-2.14,1.25-3.92,3.54-3.92
			C226.64,129.83,227.57,130.48,227.57,131.88z M225.09,131.25c-0.92,0-1.44,0.84-1.49,1.79c1.4,0.06,2.25-0.18,2.25-1.06
			C225.86,131.46,225.54,131.25,225.09,131.25z"/>
		<path class="st2" d="M80.74,146.97c1.01-0.18,1.39-0.92,1.68-1.77h1.08v1.61h1.74l-0.07,1.36H83.5v3.35
			c0,0.83,0.29,1.05,0.85,1.05c0.38,0,0.71-0.11,0.94-0.24l0.32,1.33c-0.39,0.27-1.06,0.45-1.79,0.45c-2.19,0-2.3-1.32-2.3-2.51
			v-3.43h-0.95L80.74,146.97z"/>
		<path class="st2" d="M91.08,149.42c0-0.77-0.17-1.22-0.97-1.22c-0.73,0-1.21,0.57-1.21,1.34v3.17l0.64,0.04v1.16h-3.36v-1.11
			l0.42-0.04c0.27-0.04,0.35-0.11,0.35-0.46v-6.75c0-0.29-0.07-0.39-0.34-0.41l-0.46-0.04v-1.18h2.72v3.84
			c0.46-0.85,1.26-1.13,1.99-1.13c1.58,0,2.17,0.91,2.17,2.38v3.7l0.67,0.04v1.16h-3.4v-1.11l0.42-0.04
			c0.27-0.04,0.35-0.11,0.35-0.46V149.42z"/>
		<path class="st2" d="M100.42,148.68c0,2-1.75,2.52-3.95,2.45c0.07,0.81,0.5,1.48,1.58,1.48c0.78,0,1.37-0.29,1.76-0.56l0.56,1.33
			c-0.18,0.11-1.13,0.73-2.58,0.73c-2.4,0-3.31-1.54-3.31-3.56c0-2.14,1.25-3.92,3.54-3.92
			C99.49,146.63,100.42,147.28,100.42,148.68z M97.94,148.05c-0.92,0-1.44,0.84-1.48,1.79c1.4,0.06,2.26-0.18,2.26-1.06
			C98.71,148.26,98.38,148.05,97.94,148.05z"/>
		<path class="st2" d="M104.74,148.44c0-0.29-0.07-0.39-0.34-0.41l-0.46-0.04v-1.18h2.56v0.97h0.03c0.35-0.66,0.99-1.15,2.06-1.15
			c0.71,0,1.47,0.27,1.88,1.18c0.41-0.74,1.11-1.18,2.07-1.18c1.36,0,2.1,0.78,2.1,2.41v3.67h0.01l0.67,0.04v1.16h-3.4v-1.11
			l0.42-0.04c0.27-0.04,0.35-0.11,0.35-0.45v-2.89c0-0.74-0.15-1.23-0.94-1.23c-0.66,0-1.09,0.56-1.09,1.27v3.24l0.67,0.04v1.16
			h-3.4v-1.11l0.42-0.04c0.27-0.04,0.35-0.11,0.35-0.45v-2.87c0-0.73-0.11-1.25-0.91-1.25c-0.67,0-1.12,0.59-1.12,1.32v3.19
			l0.64,0.06v1.15h-3.36v-1.11l0.45-0.06c0.27-0.04,0.34-0.1,0.34-0.43V148.44z"/>
		<path class="st2" d="M119.48,146.63c1.06,0,3.19,0.31,3.19,3.56c0,2.73-1.4,3.92-3.42,3.92c-2,0-3.17-1.16-3.17-3.73
			C116.09,147.42,118,146.63,119.48,146.63z M120.63,150.4c0-1.51-0.29-2.31-1.25-2.31c-0.91,0-1.26,0.79-1.26,2.07
			c0,1.27,0.17,2.48,1.25,2.48C120.28,152.64,120.63,151.8,120.63,150.4z"/>
		<path class="st2" d="M130.23,152.3c0,0.32,0.04,0.41,0.31,0.45l0.38,0.04v1.12h-2.48v-0.9h-0.04c-0.41,0.71-1.13,1.09-2.07,1.09
			c-1.44,0-2.17-0.8-2.17-2.38v-3.29c0-0.32-0.1-0.39-0.34-0.41l-0.39-0.04v-1.18h2.69v4.5c0,0.83,0.15,1.25,0.92,1.25
			c0.73,0,1.25-0.57,1.25-1.37v-2.75c0-0.29-0.07-0.39-0.34-0.41l-0.34-0.03v-1.19h2.62V152.3z"/>
		<path class="st2" d="M136.58,149.45c0-0.79-0.17-1.25-0.95-1.25c-0.77,0-1.22,0.62-1.22,1.33v3.18l0.63,0.04v1.16h-3.36v-1.11
			l0.45-0.04c0.27-0.04,0.34-0.11,0.34-0.43v-3.89c0-0.29-0.07-0.39-0.34-0.41l-0.46-0.04v-1.18h2.59v0.95h0.03
			c0.38-0.66,1.05-1.13,2.1-1.13c1.39,0,2.16,0.71,2.16,2.38v3.7l0.67,0.04v1.16h-3.4v-1.11l0.42-0.04
			c0.27-0.04,0.35-0.11,0.35-0.46V149.45z"/>
		<path class="st2" d="M139.83,146.97c1.01-0.18,1.39-0.92,1.68-1.77h1.08v1.61h1.74l-0.07,1.36h-1.67v3.35
			c0,0.83,0.29,1.05,0.85,1.05c0.38,0,0.71-0.11,0.94-0.24l0.32,1.33c-0.39,0.27-1.06,0.45-1.79,0.45c-2.19,0-2.3-1.32-2.3-2.51
			v-3.43h-0.95L139.83,146.97z"/>
		<path class="st2" d="M151.47,152.37c0,0.28,0.07,0.38,0.31,0.39l0.39,0.03v1.12h-2.27l-0.06-0.7l-0.06-0.01
			c-0.34,0.52-0.97,0.9-1.86,0.9c-2.07,0-2.8-1.51-2.8-3.42c0-2.47,1.23-4.05,3.77-4.05c0.49,0,1.51,0.1,2.58,0.5V152.37z
			 M149.54,148.21c-0.18-0.07-0.52-0.14-0.87-0.14c-1.22,0-1.57,1.18-1.57,2.51c0,1.08,0.25,2.09,1.26,2.09
			c0.77,0,1.18-0.52,1.18-1.08V148.21z"/>
		<path class="st2" d="M155.64,152.71l0.73,0.04v1.16h-3.46v-1.11l0.46-0.04c0.27-0.04,0.32-0.11,0.32-0.46v-3.87
			c0-0.29-0.07-0.39-0.34-0.41l-0.46-0.04v-1.18h2.75V152.71z M154.47,143.73c0.69,0,1.18,0.42,1.18,1.04
			c0,0.66-0.49,1.11-1.18,1.11c-0.71,0-1.16-0.45-1.16-1.06C153.3,144.21,153.75,143.73,154.47,143.73z"/>
		<path class="st2" d="M161.96,149.45c0-0.79-0.17-1.25-0.95-1.25c-0.77,0-1.22,0.62-1.22,1.33v3.18l0.63,0.04v1.16h-3.36v-1.11
			l0.45-0.04c0.27-0.04,0.34-0.11,0.34-0.43v-3.89c0-0.29-0.07-0.39-0.34-0.41l-0.46-0.04v-1.18h2.59v0.95h0.03
			c0.38-0.66,1.05-1.13,2.1-1.13c1.39,0,2.16,0.71,2.16,2.38v3.7l0.67,0.04v1.16h-3.4v-1.11l0.42-0.04
			c0.27-0.04,0.35-0.11,0.35-0.46V149.45z"/>
		<path class="st2" d="M166.51,147.57l-1.08-0.35l0.49-1.55c0.1-0.32-0.01-0.42-0.36-0.42h-0.38l0.28-1.36
			c0.32-0.06,0.53-0.07,0.8-0.07c1.25,0,1.72,0.87,1.12,2L166.51,147.57z"/>
		<path class="st2" d="M170.73,147.96c-0.56,0-0.98,0.24-0.98,0.73c0,0.63,0.6,0.74,1.34,0.97c1.02,0.31,2.13,0.63,2.13,2.09
			c0,1.51-1.15,2.37-2.96,2.37c-0.85,0-1.93-0.18-2.48-0.48v-1.86l1.4-0.11v0.63c0,0.21,0.04,0.29,0.21,0.35
			c0.18,0.07,0.48,0.13,0.76,0.13c0.66,0,1.09-0.21,1.09-0.81s-0.55-0.74-1.33-0.92c-1.01-0.27-2.07-0.59-2.07-2.1
			c0-1.5,1.25-2.3,2.93-2.3c0.77,0,1.61,0.17,2.23,0.5v1.75l-1.39,0.11v-0.57c0-0.22-0.03-0.32-0.2-0.38
			C171.21,147.98,170.96,147.96,170.73,147.96z"/>
		<path class="st2" d="M176.68,146.97c1.01-0.18,1.39-0.92,1.68-1.77h1.08v1.61h1.74l-0.07,1.36h-1.67v3.35
			c0,0.83,0.29,1.05,0.85,1.05c0.38,0,0.71-0.11,0.94-0.24l0.32,1.33c-0.39,0.27-1.06,0.45-1.79,0.45c-2.19,0-2.3-1.32-2.3-2.51
			v-3.43h-0.95L176.68,146.97z"/>
		<path class="st2" d="M187.02,149.42c0-0.77-0.17-1.22-0.97-1.22c-0.73,0-1.21,0.57-1.21,1.34v3.17l0.64,0.04v1.16h-3.36v-1.11
			l0.42-0.04c0.27-0.04,0.35-0.11,0.35-0.46v-6.75c0-0.29-0.07-0.39-0.34-0.41l-0.46-0.04v-1.18h2.72v3.84
			c0.46-0.85,1.26-1.13,1.99-1.13c1.58,0,2.17,0.91,2.17,2.38v3.7l0.67,0.04v1.16h-3.4v-1.11l0.42-0.04
			c0.27-0.04,0.35-0.11,0.35-0.46V149.42z"/>
		<path class="st2" d="M196.35,148.68c0,2-1.75,2.52-3.95,2.45c0.07,0.81,0.5,1.48,1.58,1.48c0.79,0,1.37-0.29,1.77-0.56l0.56,1.33
			c-0.18,0.11-1.13,0.73-2.58,0.73c-2.4,0-3.31-1.54-3.31-3.56c0-2.14,1.25-3.92,3.54-3.92
			C195.43,146.63,196.35,147.28,196.35,148.68z M193.88,148.05c-0.92,0-1.44,0.84-1.49,1.79c1.4,0.06,2.25-0.18,2.25-1.06
			C194.65,148.26,194.32,148.05,193.88,148.05z"/>
		<path class="st2" d="M199.92,152.71l0.73,0.04v1.16h-3.46v-1.11l0.46-0.04c0.27-0.04,0.32-0.11,0.32-0.46v-3.87
			c0-0.29-0.07-0.39-0.34-0.41l-0.46-0.04v-1.18h2.75V152.71z M198.75,143.73c0.69,0,1.18,0.42,1.18,1.04
			c0,0.66-0.49,1.11-1.18,1.11c-0.71,0-1.16-0.45-1.16-1.06C197.58,144.21,198.03,143.73,198.75,143.73z"/>
		<path class="st2" d="M204.05,149.5v3.19l1.16,0.06v1.16h-3.88v-1.11l0.45-0.04c0.29-0.04,0.34-0.14,0.34-0.46v-3.88
			c0-0.28-0.08-0.38-0.32-0.39l-0.48-0.04v-1.18h2.56v1.08h0.03c0.22-0.56,0.83-1.26,1.99-1.26c0.41,0,0.91,0.07,1.29,0.24v2.52
			l-1.58,0.11v-0.92c0-0.22-0.03-0.29-0.13-0.34c-0.08-0.03-0.2-0.04-0.35-0.04C204.46,148.2,204.05,148.76,204.05,149.5z"/>
		<path class="st2" d="M59.9,164.76c-0.56,0-0.98,0.24-0.98,0.73c0,0.63,0.6,0.74,1.34,0.97c1.02,0.31,2.13,0.63,2.13,2.09
			c0,1.51-1.15,2.37-2.96,2.37c-0.85,0-1.93-0.18-2.48-0.48v-1.86l1.4-0.11v0.63c0,0.21,0.04,0.29,0.21,0.35
			c0.18,0.07,0.48,0.13,0.76,0.13c0.66,0,1.09-0.21,1.09-0.81s-0.55-0.74-1.33-0.92c-1.01-0.27-2.07-0.59-2.07-2.1
			c0-1.5,1.25-2.3,2.93-2.3c0.77,0,1.61,0.17,2.23,0.5v1.75l-1.39,0.11v-0.57c0-0.22-0.03-0.32-0.2-0.38
			C60.38,164.78,60.13,164.76,59.9,164.76z"/>
		<path class="st2" d="M65.94,169.51l0.73,0.04v1.16h-3.46v-1.11l0.46-0.04c0.27-0.04,0.32-0.11,0.32-0.46v-3.87
			c0-0.29-0.07-0.39-0.34-0.41l-0.46-0.04v-1.18h2.75V169.51z M64.76,160.53c0.69,0,1.18,0.42,1.18,1.04c0,0.66-0.49,1.11-1.18,1.11
			c-0.71,0-1.16-0.45-1.16-1.06C63.6,161.01,64.05,160.53,64.76,160.53z"/>
		<path class="st2" d="M71.99,169.68c-0.34,0.49-0.97,0.81-1.75,0.81c-1.92,0-2.77-1.34-2.77-3.32c0-2.35,1.33-3.74,3.64-3.74
			c0.63,0,1.71,0.11,2.72,0.52v6.08c0,1.68-0.42,3.68-3.39,3.68c-0.85,0-1.99-0.15-2.58-0.49v-1.96l1.5-0.11v0.63
			c0,0.28,0.06,0.38,0.29,0.45c0.2,0.07,0.43,0.1,0.73,0.1c1.18,0,1.61-0.63,1.61-2.02V169.68z M71.89,165.01
			c-0.29-0.1-0.62-0.15-0.97-0.15c-1.01,0-1.48,0.88-1.48,2.23c0,1.02,0.17,1.99,1.27,1.99c0.74,0,1.18-0.48,1.18-1.19V165.01z"/>
		<path class="st2" d="M79.97,166.25c0-0.79-0.17-1.25-0.95-1.25c-0.77,0-1.22,0.62-1.22,1.33v3.18l0.63,0.04v1.16h-3.36v-1.11
			l0.45-0.04c0.27-0.04,0.34-0.11,0.34-0.43v-3.89c0-0.29-0.07-0.39-0.34-0.41l-0.46-0.04v-1.18h2.59v0.95h0.03
			c0.38-0.66,1.05-1.13,2.1-1.13c1.39,0,2.16,0.71,2.16,2.38v3.7l0.67,0.04v1.16h-3.4v-1.11l0.42-0.04
			c0.27-0.04,0.35-0.11,0.35-0.46V166.25z"/>
		<path class="st2" d="M89.71,169.17c0,0.28,0.07,0.38,0.31,0.39l0.39,0.03v1.12h-2.27l-0.06-0.7L88.03,170
			c-0.34,0.52-0.97,0.9-1.86,0.9c-2.07,0-2.8-1.51-2.8-3.42c0-2.47,1.23-4.05,3.77-4.05c0.49,0,1.51,0.1,2.58,0.5V169.17z
			 M87.78,165.01c-0.18-0.07-0.52-0.14-0.87-0.14c-1.22,0-1.57,1.18-1.57,2.51c0,1.08,0.25,2.09,1.26,2.09
			c0.77,0,1.18-0.52,1.18-1.08V165.01z"/>
		<path class="st2" d="M91.07,163.77c1.01-0.18,1.39-0.92,1.68-1.77h1.08v1.61h1.74l-0.07,1.36h-1.67v3.35
			c0,0.83,0.29,1.05,0.85,1.05c0.38,0,0.71-0.11,0.94-0.24l0.32,1.33c-0.39,0.27-1.06,0.45-1.79,0.45c-2.19,0-2.3-1.32-2.3-2.51
			v-3.43H90.9L91.07,163.77z"/>
		<path class="st2" d="M103.04,169.1c0,0.32,0.04,0.41,0.31,0.45l0.38,0.04v1.12h-2.48v-0.9h-0.04c-0.41,0.71-1.13,1.09-2.07,1.09
			c-1.44,0-2.17-0.8-2.17-2.38v-3.29c0-0.32-0.1-0.39-0.34-0.41l-0.39-0.04v-1.18h2.69v4.5c0,0.83,0.15,1.25,0.92,1.25
			c0.73,0,1.25-0.57,1.25-1.37v-2.75c0-0.29-0.07-0.39-0.34-0.41l-0.34-0.03v-1.19h2.62V169.1z"/>
		<path class="st2" d="M107.2,166.3v3.19l1.16,0.06v1.16h-3.88v-1.11l0.45-0.04c0.29-0.04,0.34-0.14,0.34-0.46v-3.88
			c0-0.28-0.08-0.38-0.32-0.39l-0.48-0.04v-1.18h2.56v1.08h0.03c0.22-0.56,0.83-1.26,1.99-1.26c0.41,0,0.91,0.07,1.29,0.24v2.52
			l-1.58,0.11v-0.92c0-0.22-0.03-0.29-0.13-0.34c-0.08-0.03-0.2-0.04-0.35-0.04C107.6,165,107.2,165.56,107.2,166.3z"/>
		<path class="st2" d="M116.97,165.48c0,2-1.75,2.52-3.95,2.45c0.07,0.81,0.5,1.48,1.58,1.48c0.78,0,1.37-0.29,1.76-0.56l0.56,1.33
			c-0.18,0.11-1.13,0.73-2.58,0.73c-2.4,0-3.31-1.54-3.31-3.56c0-2.14,1.25-3.92,3.54-3.92
			C116.04,163.43,116.97,164.08,116.97,165.48z M114.49,164.85c-0.92,0-1.44,0.84-1.48,1.79c1.4,0.06,2.26-0.18,2.26-1.06
			C115.26,165.06,114.94,164.85,114.49,164.85z"/>
		<path class="st2" d="M123.23,166.3v3.19l1.16,0.06v1.16h-3.88v-1.11l0.45-0.04c0.29-0.04,0.34-0.14,0.34-0.46v-3.88
			c0-0.28-0.08-0.38-0.32-0.39l-0.48-0.04v-1.18h2.56v1.08h0.03c0.22-0.56,0.83-1.26,1.99-1.26c0.41,0,0.91,0.07,1.29,0.24v2.52
			l-1.58,0.11v-0.92c0-0.22-0.03-0.29-0.13-0.34c-0.08-0.03-0.2-0.04-0.35-0.04C123.63,165,123.23,165.56,123.23,166.3z"/>
		<path class="st2" d="M133,165.48c0,2-1.75,2.52-3.95,2.45c0.07,0.81,0.5,1.48,1.58,1.48c0.78,0,1.37-0.29,1.76-0.56l0.56,1.33
			c-0.18,0.11-1.13,0.73-2.58,0.73c-2.4,0-3.31-1.54-3.31-3.56c0-2.14,1.25-3.92,3.54-3.92C132.07,163.43,133,164.08,133,165.48z
			 M130.52,164.85c-0.92,0-1.44,0.84-1.48,1.79c1.4,0.06,2.26-0.18,2.26-1.06C131.29,165.06,130.97,164.85,130.52,164.85z"/>
		<path class="st2" d="M140.24,169.15c0,0.32,0.04,0.39,0.31,0.41l0.39,0.04v1.12h-2.27l-0.06-0.7l-0.06-0.01
			c-0.45,0.66-1.15,0.9-1.88,0.9c-2.13,0-2.77-1.64-2.77-3.47c0-2.25,1.15-3.99,3.29-3.99c0.38,0,0.74,0.06,1.11,0.17v-1.25
			c0-0.27-0.11-0.39-0.34-0.41l-0.46-0.04v-1.18h2.73V169.15z M138.3,168.32v-3.25c-0.22-0.11-0.53-0.2-0.91-0.2
			c-1.13,0-1.53,1.09-1.53,2.37c0,1.21,0.25,2.21,1.27,2.21C137.87,169.45,138.3,169.01,138.3,168.32z"/>
		<path class="st2" d="M146.48,167.14c0,1.34,0.48,2.2,1.6,2.2c0.52,0,1.06-0.2,1.61-0.6l0.71,1.29c-0.6,0.49-1.5,0.88-2.58,0.88
			c-2.09,0-3.33-1.23-3.33-3.68c0-2.8,1.74-3.8,3.47-3.8c0.84,0,1.64,0.18,2.24,0.53v2.1l-1.46,0.1v-0.76
			c0-0.22-0.01-0.34-0.22-0.39c-0.15-0.04-0.32-0.07-0.49-0.07C147.07,164.94,146.48,165.64,146.48,167.14z"/>
		<path class="st2" d="M154.4,163.43c1.07,0,3.19,0.31,3.19,3.56c0,2.73-1.4,3.92-3.42,3.92c-2,0-3.17-1.16-3.17-3.73
			C151.01,164.22,152.92,163.43,154.4,163.43z M155.55,167.2c0-1.51-0.29-2.31-1.25-2.31c-0.91,0-1.26,0.79-1.26,2.07
			c0,1.27,0.17,2.48,1.25,2.48C155.2,169.44,155.55,168.6,155.55,167.2z"/>
		<path class="st2" d="M161.1,169.51l0.73,0.04v1.16h-3.45v-1.11l0.45-0.06c0.27-0.04,0.32-0.1,0.32-0.45v-6.75
			c0-0.29-0.07-0.39-0.34-0.41l-0.46-0.04v-1.18h2.75V169.51z"/>
		<path class="st2" d="M165.96,163.43c1.06,0,3.19,0.31,3.19,3.56c0,2.73-1.4,3.92-3.42,3.92c-2,0-3.17-1.16-3.17-3.73
			C162.57,164.22,164.47,163.43,165.96,163.43z M167.1,167.2c0-1.51-0.29-2.31-1.25-2.31c-0.91,0-1.26,0.79-1.26,2.07
			c0,1.27,0.17,2.48,1.25,2.48C166.75,169.44,167.1,168.6,167.1,167.2z"/>
		<path class="st2" d="M172.66,166.3v3.19l1.16,0.06v1.16h-3.88v-1.11l0.45-0.04c0.29-0.04,0.34-0.14,0.34-0.46v-3.88
			c0-0.28-0.08-0.38-0.32-0.39l-0.48-0.04v-1.18h2.56v1.08h0.03c0.22-0.56,0.83-1.26,1.99-1.26c0.41,0,0.91,0.07,1.29,0.24v2.52
			l-1.58,0.11v-0.92c0-0.22-0.03-0.29-0.13-0.34c-0.08-0.03-0.2-0.04-0.35-0.04C173.07,165,172.66,165.56,172.66,166.3z"/>
		<path class="st2" d="M182.43,165.48c0,2-1.75,2.52-3.95,2.45c0.07,0.81,0.5,1.48,1.58,1.48c0.79,0,1.37-0.29,1.77-0.56l0.56,1.33
			c-0.18,0.11-1.13,0.73-2.58,0.73c-2.4,0-3.31-1.54-3.31-3.56c0-2.14,1.25-3.92,3.54-3.92
			C181.51,163.43,182.43,164.08,182.43,165.48z M179.96,164.85c-0.92,0-1.44,0.84-1.49,1.79c1.4,0.06,2.25-0.18,2.25-1.06
			C180.72,165.06,180.4,164.85,179.96,164.85z"/>
		<path class="st2" d="M189.67,169.15c0,0.32,0.04,0.39,0.31,0.41l0.39,0.04v1.12h-2.27l-0.06-0.7l-0.06-0.01
			c-0.45,0.66-1.15,0.9-1.88,0.9c-2.13,0-2.77-1.64-2.77-3.47c0-2.25,1.15-3.99,3.29-3.99c0.38,0,0.74,0.06,1.11,0.17v-1.25
			c0-0.27-0.11-0.39-0.34-0.41l-0.46-0.04v-1.18h2.73V169.15z M187.74,168.32v-3.25c-0.22-0.11-0.53-0.2-0.91-0.2
			c-1.13,0-1.53,1.09-1.53,2.37c0,1.21,0.25,2.21,1.27,2.21C187.3,169.45,187.74,169.01,187.74,168.32z"/>
		<path class="st2" d="M196.54,166.3v3.19l1.16,0.06v1.16h-3.88v-1.11l0.45-0.04c0.29-0.04,0.34-0.14,0.34-0.46v-3.88
			c0-0.28-0.08-0.38-0.32-0.39l-0.48-0.04v-1.18h2.56v1.08h0.03c0.22-0.56,0.83-1.26,1.99-1.26c0.41,0,0.91,0.07,1.29,0.24v2.52
			l-1.58,0.11v-0.92c0-0.22-0.03-0.29-0.13-0.34c-0.08-0.03-0.2-0.04-0.35-0.04C196.95,165,196.54,165.56,196.54,166.3z"/>
		<path class="st2" d="M203.78,163.43c1.06,0,3.19,0.31,3.19,3.56c0,2.73-1.4,3.92-3.42,3.92c-2,0-3.17-1.16-3.17-3.73
			C200.39,164.22,202.3,163.43,203.78,163.43z M204.93,167.2c0-1.51-0.29-2.31-1.25-2.31c-0.91,0-1.26,0.79-1.26,2.07
			c0,1.27,0.17,2.48,1.25,2.48C204.58,169.44,204.93,168.6,204.93,167.2z"/>
		<path class="st2" d="M209.86,167.14c0,1.34,0.48,2.2,1.6,2.2c0.52,0,1.06-0.2,1.61-0.6l0.71,1.29c-0.6,0.49-1.5,0.88-2.58,0.88
			c-2.09,0-3.33-1.23-3.33-3.68c0-2.8,1.74-3.8,3.47-3.8c0.84,0,1.64,0.18,2.24,0.53v2.1l-1.46,0.1v-0.76
			c0-0.22-0.01-0.34-0.22-0.39c-0.15-0.04-0.32-0.07-0.49-0.07C210.44,164.94,209.86,165.64,209.86,167.14z"/>
		<path class="st2" d="M217.15,169.51l0.63,0.04v1.16h-3.35v-1.11l0.45-0.04c0.24-0.04,0.32-0.11,0.32-0.43v-6.78
			c0-0.29-0.06-0.39-0.32-0.41l-0.48-0.04v-1.18h2.75v5.69c0.85-0.11,1.85-0.71,1.85-1.36c0-0.18-0.11-0.22-0.29-0.27l-0.36-0.04
			v-1.13h3.1v1.15l-0.63,0.08c-0.1,0.67-0.48,1.37-1.15,1.92l1.27,2.75l0.76,0.04v1.16h-2.35l-1.34-3.15
			c-0.28,0.11-0.55,0.15-0.84,0.2V169.51z"/>
		<path class="st2" d="M225.31,164.76c-0.56,0-0.98,0.24-0.98,0.73c0,0.63,0.6,0.74,1.34,0.97c1.02,0.31,2.13,0.63,2.13,2.09
			c0,1.51-1.15,2.37-2.96,2.37c-0.85,0-1.93-0.18-2.48-0.48v-1.86l1.4-0.11v0.63c0,0.21,0.04,0.29,0.21,0.35
			c0.18,0.07,0.48,0.13,0.76,0.13c0.66,0,1.09-0.21,1.09-0.81s-0.55-0.74-1.33-0.92c-1.01-0.27-2.07-0.59-2.07-2.1
			c0-1.5,1.25-2.3,2.93-2.3c0.77,0,1.61,0.17,2.23,0.5v1.75l-1.39,0.11v-0.57c0-0.22-0.03-0.32-0.2-0.38
			C225.79,164.78,225.54,164.76,225.31,164.76z"/>
		<path class="st2" d="M229.89,168.8c0.73,0,1.12,0.42,1.12,1.04c0,0.6-0.36,1.06-1.08,1.06c-0.77,0-1.13-0.43-1.13-1.05
			C228.8,169.24,229.2,168.8,229.89,168.8z"/>
	</g>
</g>
</svg>
