<?xml version="1.0" encoding="utf-8"?>
<!-- Generator: Adobe Illustrator 25.0.0, SVG Export Plug-In . SVG Version: 6.00 Build 0)  -->
<svg version="1.1" id="Layer_1" xmlns="http://www.w3.org/2000/svg" xmlns:xlink="http://www.w3.org/1999/xlink" x="0px" y="0px"
	 viewBox="0 0 288 288" style="enable-background:new 0 0 288 288;" xml:space="preserve">
<style type="text/css">
	.st0{opacity:0.5;fill:#030302;stroke:#875730;stroke-width:7;stroke-miterlimit:10;}
	.st1{fill:none;stroke:#875730;stroke-width:7;stroke-miterlimit:10;}
	.st2{fill:#FFFFFF;}
</style>
<circle class="st0" cx="143.75" cy="144" r="126.66"/>
<circle class="st1" cx="143.92" cy="144" r="126.66"/>
<g>
	<path class="st2" d="M69.19,105.86h-1.08c-0.28,0-0.35,0.13-0.35,0.36v0.87l-1.53-0.11v-2.52h7.89v2.52l-1.53,0.11v-0.85
		c0-0.27-0.07-0.38-0.36-0.38H71.2v6.64l1.01,0.06v1.22h-4.03v-1.15l0.64-0.07c0.29-0.04,0.38-0.11,0.38-0.45V105.86z"/>
	<path class="st2" d="M79.6,109.28c0-0.77-0.17-1.22-0.97-1.22c-0.73,0-1.21,0.57-1.21,1.34v3.17l0.64,0.04v1.16h-3.36v-1.11
		l0.42-0.04c0.27-0.04,0.35-0.11,0.35-0.46v-6.75c0-0.29-0.07-0.39-0.34-0.41l-0.46-0.04v-1.18h2.72v3.84
		c0.46-0.85,1.26-1.13,1.99-1.13c1.58,0,2.17,0.91,2.17,2.38v3.7l0.67,0.04v1.16h-3.4v-1.11l0.42-0.04
		c0.27-0.04,0.35-0.11,0.35-0.46V109.28z"/>
	<path class="st2" d="M88.94,108.54c0,2-1.75,2.52-3.95,2.45c0.07,0.81,0.5,1.48,1.58,1.48c0.78,0,1.37-0.29,1.76-0.56l0.56,1.33
		c-0.18,0.11-1.13,0.73-2.58,0.73c-2.4,0-3.31-1.54-3.31-3.56c0-2.14,1.25-3.92,3.54-3.92C88.01,106.49,88.94,107.14,88.94,108.54z
		 M86.46,107.91c-0.92,0-1.44,0.84-1.48,1.79c1.4,0.06,2.26-0.18,2.26-1.06C87.23,108.12,86.9,107.91,86.46,107.91z"/>
	<path class="st2" d="M92.46,109.37v3.19l1.16,0.06v1.16h-3.88v-1.11l0.45-0.04c0.29-0.04,0.34-0.14,0.34-0.46v-3.88
		c0-0.28-0.08-0.38-0.32-0.39l-0.48-0.04v-1.18h2.56v1.08h0.03c0.22-0.56,0.83-1.26,1.99-1.26c0.41,0,0.91,0.07,1.29,0.24v2.52
		l-1.58,0.11v-0.92c0-0.22-0.03-0.29-0.13-0.34c-0.08-0.03-0.2-0.04-0.35-0.04C92.87,108.06,92.46,108.62,92.46,109.37z"/>
	<path class="st2" d="M102.24,108.54c0,2-1.75,2.52-3.95,2.45c0.07,0.81,0.5,1.48,1.58,1.48c0.78,0,1.37-0.29,1.76-0.56l0.56,1.33
		c-0.18,0.11-1.13,0.73-2.58,0.73c-2.4,0-3.31-1.54-3.31-3.56c0-2.14,1.25-3.92,3.54-3.92
		C101.31,106.49,102.24,107.14,102.24,108.54z M99.76,107.91c-0.92,0-1.44,0.84-1.48,1.79c1.4,0.06,2.26-0.18,2.26-1.06
		C100.53,108.12,100.2,107.91,99.76,107.91z"/>
	<path class="st2" d="M108.53,112.57l0.73,0.04v1.16h-3.46v-1.11l0.46-0.04c0.27-0.04,0.32-0.11,0.32-0.46v-3.87
		c0-0.29-0.07-0.39-0.34-0.41l-0.46-0.04v-1.18h2.75V112.57z M107.36,103.6c0.69,0,1.18,0.42,1.18,1.04c0,0.66-0.49,1.11-1.18,1.11
		c-0.71,0-1.16-0.45-1.16-1.06C106.19,104.07,106.64,103.6,107.36,103.6z"/>
	<path class="st2" d="M113.07,107.83c-0.56,0-0.98,0.24-0.98,0.73c0,0.63,0.6,0.74,1.34,0.97c1.02,0.31,2.13,0.63,2.13,2.09
		c0,1.51-1.15,2.37-2.96,2.37c-0.85,0-1.93-0.18-2.48-0.48v-1.86l1.4-0.11v0.63c0,0.21,0.04,0.29,0.21,0.35
		c0.18,0.07,0.48,0.13,0.76,0.13c0.66,0,1.09-0.21,1.09-0.81c0-0.6-0.55-0.74-1.33-0.92c-1.01-0.27-2.07-0.59-2.07-2.1
		c0-1.5,1.25-2.3,2.93-2.3c0.77,0,1.61,0.17,2.23,0.5v1.75l-1.39,0.11v-0.57c0-0.22-0.03-0.32-0.2-0.38
		C113.55,107.84,113.29,107.83,113.07,107.83z"/>
	<path class="st2" d="M125.5,112.24c0,0.28,0.07,0.38,0.31,0.39l0.39,0.03v1.12h-2.27l-0.06-0.7l-0.06-0.01
		c-0.34,0.52-0.97,0.9-1.86,0.9c-2.07,0-2.8-1.51-2.8-3.42c0-2.47,1.23-4.05,3.77-4.05c0.49,0,1.51,0.1,2.58,0.5V112.24z
		 M123.57,108.08c-0.18-0.07-0.52-0.14-0.87-0.14c-1.22,0-1.57,1.18-1.57,2.51c0,1.08,0.25,2.09,1.26,2.09
		c0.77,0,1.18-0.52,1.18-1.08V108.08z"/>
	<path class="st2" d="M129.63,109.37v3.19l1.16,0.06v1.16h-3.88v-1.11l0.45-0.04c0.29-0.04,0.34-0.14,0.34-0.46v-3.88
		c0-0.28-0.08-0.38-0.32-0.39l-0.48-0.04v-1.18h2.56v1.08h0.03c0.22-0.56,0.83-1.26,1.99-1.26c0.41,0,0.91,0.07,1.29,0.24v2.52
		l-1.58,0.11v-0.92c0-0.22-0.03-0.29-0.13-0.34c-0.08-0.03-0.2-0.04-0.35-0.04C130.04,108.06,129.63,108.62,129.63,109.37z"/>
	<path class="st2" d="M136.87,106.49c1.06,0,3.19,0.31,3.19,3.56c0,2.73-1.4,3.92-3.42,3.92c-2,0-3.17-1.16-3.17-3.73
		C133.48,107.28,135.39,106.49,136.87,106.49z M138.02,110.26c0-1.51-0.29-2.31-1.25-2.31c-0.91,0-1.26,0.78-1.26,2.07
		c0,1.27,0.17,2.48,1.25,2.48C137.67,112.5,138.02,111.66,138.02,110.26z"/>
	<path class="st2" d="M147.62,112.17c0,0.32,0.04,0.41,0.31,0.45l0.38,0.04v1.12h-2.48v-0.9h-0.04c-0.41,0.71-1.14,1.09-2.07,1.09
		c-1.44,0-2.17-0.8-2.17-2.38v-3.29c0-0.32-0.1-0.39-0.34-0.41l-0.39-0.04v-1.18h2.69v4.5c0,0.83,0.15,1.25,0.92,1.25
		c0.73,0,1.25-0.57,1.25-1.37v-2.75c0-0.29-0.07-0.39-0.34-0.41l-0.34-0.03v-1.19h2.62V112.17z"/>
	<path class="st2" d="M153.96,109.31c0-0.78-0.17-1.25-0.95-1.25c-0.77,0-1.22,0.62-1.22,1.33v3.18l0.63,0.04v1.16h-3.36v-1.11
		l0.45-0.04c0.27-0.04,0.34-0.11,0.34-0.43v-3.89c0-0.29-0.07-0.39-0.34-0.41l-0.46-0.04v-1.18h2.59v0.95h0.03
		c0.38-0.66,1.05-1.13,2.1-1.13c1.39,0,2.16,0.71,2.16,2.38v3.7l0.67,0.04v1.16h-3.4v-1.11l0.42-0.04c0.27-0.04,0.35-0.11,0.35-0.46
		V109.31z"/>
	<path class="st2" d="M163.71,112.21c0,0.32,0.04,0.39,0.31,0.41l0.39,0.04v1.12h-2.27l-0.06-0.7l-0.06-0.01
		c-0.45,0.66-1.15,0.9-1.88,0.9c-2.13,0-2.77-1.64-2.77-3.47c0-2.25,1.15-3.99,3.29-3.99c0.38,0,0.74,0.06,1.11,0.17v-1.25
		c0-0.27-0.11-0.39-0.34-0.41l-0.46-0.04v-1.18h2.73V112.21z M161.78,111.38v-3.25c-0.22-0.11-0.53-0.2-0.91-0.2
		c-1.13,0-1.53,1.09-1.53,2.37c0,1.2,0.25,2.21,1.27,2.21C161.34,112.52,161.78,112.07,161.78,111.38z"/>
	<path class="st2" d="M173.51,107.7v2.33h1.21v1.4h-1.22v1.08l0.91,0.07v1.2h-3.78v-1.18l0.62-0.06c0.27-0.04,0.36-0.1,0.36-0.43
		v-0.7h-3.68v-1.18l2.75-5.71l1.5,0.74l-2.27,4.76h1.72l0.76-2.33H173.51z"/>
	<path class="st2" d="M181.78,104.46l2.06,5.93h0.04l2.14-5.93h3.1v1.18l-0.42,0.04c-0.27,0.04-0.41,0.17-0.36,0.46l0.43,6.37
		l0.71,0.04v1.22h-3.35v-1.18l0.43-0.04c0.27-0.04,0.32-0.13,0.31-0.48l-0.24-4.68h-0.04l-2.03,5.38h-1.47l-1.98-5.31h-0.03
		l-0.28,5.04l0.7,0.04v1.22h-3.33v-1.18l0.43-0.04c0.27-0.04,0.34-0.14,0.38-0.49l0.45-6.35l-0.74-0.04v-1.22H181.78z"/>
	<path class="st2" d="M192.97,112.57l0.73,0.04v1.16h-3.46v-1.11l0.46-0.04c0.27-0.04,0.32-0.11,0.32-0.46v-3.87
		c0-0.29-0.07-0.39-0.34-0.41l-0.46-0.04v-1.18h2.75V112.57z M191.79,103.6c0.69,0,1.18,0.42,1.18,1.04c0,0.66-0.49,1.11-1.18,1.11
		c-0.71,0-1.16-0.45-1.16-1.06C190.63,104.07,191.08,103.6,191.79,103.6z"/>
	<path class="st2" d="M197.08,112.57l0.73,0.04v1.16h-3.45v-1.11l0.45-0.06c0.27-0.04,0.32-0.1,0.32-0.45v-6.75
		c0-0.29-0.07-0.39-0.34-0.41l-0.46-0.04v-1.18h2.75V112.57z"/>
	<path class="st2" d="M201.16,112.57l0.73,0.04v1.16h-3.45v-1.11l0.45-0.06c0.27-0.04,0.32-0.1,0.32-0.45v-6.75
		c0-0.29-0.07-0.39-0.34-0.41l-0.46-0.04v-1.18h2.75V112.57z"/>
	<path class="st2" d="M205.29,112.57l0.73,0.04v1.16h-3.46v-1.11l0.46-0.04c0.27-0.04,0.32-0.11,0.32-0.46v-3.87
		c0-0.29-0.07-0.39-0.34-0.41l-0.46-0.04v-1.18h2.75V112.57z M204.11,103.6c0.69,0,1.18,0.42,1.18,1.04c0,0.66-0.49,1.11-1.18,1.11
		c-0.71,0-1.16-0.45-1.16-1.06C202.95,104.07,203.4,103.6,204.11,103.6z"/>
	<path class="st2" d="M210.19,106.49c1.06,0,3.19,0.31,3.19,3.56c0,2.73-1.4,3.92-3.42,3.92c-2,0-3.17-1.16-3.17-3.73
		C206.8,107.28,208.7,106.49,210.19,106.49z M211.33,110.26c0-1.51-0.29-2.31-1.25-2.31c-0.91,0-1.26,0.78-1.26,2.07
		c0,1.27,0.17,2.48,1.25,2.48C210.99,112.5,211.33,111.66,211.33,110.26z"/>
	<path class="st2" d="M219.08,109.31c0-0.78-0.17-1.25-0.95-1.25c-0.77,0-1.22,0.62-1.22,1.33v3.18l0.63,0.04v1.16h-3.36v-1.11
		l0.45-0.04c0.27-0.04,0.34-0.11,0.34-0.43v-3.89c0-0.29-0.07-0.39-0.34-0.41l-0.46-0.04v-1.18h2.59v0.95h0.03
		c0.38-0.66,1.05-1.13,2.1-1.13c1.39,0,2.16,0.71,2.16,2.38v3.7l0.67,0.04v1.16h-3.4v-1.11l0.42-0.04c0.27-0.04,0.35-0.11,0.35-0.46
		V109.31z"/>
	<path class="st2" d="M50.66,123.48h0.94v-0.46c0-1.37,0.46-2.58,2.42-2.58c0.71,0,1.53,0.22,2.07,0.5l-0.46,1.26
		c-0.42-0.2-0.81-0.29-1.19-0.29c-0.6,0-0.9,0.31-0.9,1.05v0.52h1.88v1.33h-1.88v4.55l1.12,0.06v1.16h-3.84v-1.11l0.43-0.04
		c0.27-0.04,0.34-0.11,0.34-0.46v-4.16h-0.94V123.48z"/>
	<path class="st2" d="M59.22,123.29c1.06,0,3.19,0.31,3.19,3.56c0,2.73-1.4,3.92-3.42,3.92c-2,0-3.17-1.16-3.17-3.73
		C55.83,124.08,57.73,123.29,59.22,123.29z M60.37,127.06c0-1.51-0.29-2.31-1.25-2.31c-0.91,0-1.26,0.78-1.26,2.07
		c0,1.27,0.17,2.48,1.25,2.48C60.02,129.3,60.37,128.46,60.37,127.06z"/>
	<path class="st2" d="M65.93,126.17v3.19l1.16,0.06v1.16h-3.88v-1.11l0.45-0.04c0.29-0.04,0.34-0.14,0.34-0.46v-3.88
		c0-0.28-0.08-0.38-0.32-0.39l-0.48-0.04v-1.18h2.56v1.08h0.03c0.22-0.56,0.83-1.26,1.99-1.26c0.41,0,0.91,0.07,1.29,0.24v2.52
		l-1.58,0.11v-0.92c0-0.22-0.03-0.29-0.13-0.34c-0.08-0.03-0.2-0.04-0.35-0.04C66.33,124.86,65.93,125.42,65.93,126.17z"/>
	<path class="st2" d="M75.7,125.34c0,2-1.75,2.52-3.95,2.45c0.07,0.81,0.5,1.48,1.58,1.48c0.78,0,1.37-0.29,1.76-0.56l0.56,1.33
		c-0.18,0.11-1.13,0.73-2.58,0.73c-2.4,0-3.31-1.54-3.31-3.56c0-2.14,1.25-3.92,3.54-3.92C74.77,123.29,75.7,123.94,75.7,125.34z
		 M73.22,124.71c-0.92,0-1.44,0.84-1.48,1.79c1.4,0.06,2.26-0.18,2.26-1.06C73.99,124.92,73.67,124.71,73.22,124.71z"/>
	<path class="st2" d="M79.63,124.63c-0.56,0-0.98,0.24-0.98,0.73c0,0.63,0.6,0.74,1.34,0.97c1.02,0.31,2.13,0.63,2.13,2.09
		c0,1.51-1.15,2.37-2.96,2.37c-0.85,0-1.93-0.18-2.48-0.48v-1.86l1.4-0.11v0.63c0,0.21,0.04,0.29,0.21,0.35
		c0.18,0.07,0.48,0.13,0.76,0.13c0.66,0,1.09-0.21,1.09-0.81c0-0.6-0.55-0.74-1.33-0.92c-1.01-0.27-2.07-0.59-2.07-2.1
		c0-1.5,1.25-2.3,2.93-2.3c0.77,0,1.61,0.17,2.23,0.5v1.75l-1.39,0.11v-0.57c0-0.22-0.03-0.32-0.2-0.38
		C80.11,124.64,79.85,124.63,79.63,124.63z"/>
	<path class="st2" d="M82.85,123.63c1.01-0.18,1.39-0.92,1.68-1.77h1.08v1.61h1.74l-0.07,1.36h-1.67v3.35
		c0,0.83,0.29,1.05,0.85,1.05c0.38,0,0.71-0.11,0.94-0.24l0.32,1.33c-0.39,0.27-1.06,0.45-1.79,0.45c-2.19,0-2.3-1.32-2.3-2.51
		v-3.43h-0.95L82.85,123.63z"/>
	<path class="st2" d="M94.01,125.34c0,2-1.75,2.52-3.95,2.45c0.07,0.81,0.5,1.48,1.58,1.48c0.78,0,1.37-0.29,1.76-0.56l0.56,1.33
		c-0.18,0.11-1.13,0.73-2.58,0.73c-2.4,0-3.31-1.54-3.31-3.56c0-2.14,1.25-3.92,3.54-3.92C93.09,123.29,94.01,123.94,94.01,125.34z
		 M91.53,124.71c-0.92,0-1.44,0.84-1.48,1.79c1.4,0.06,2.26-0.18,2.26-1.06C92.3,124.92,91.98,124.71,91.53,124.71z"/>
	<path class="st2" d="M101.25,129.01c0,0.32,0.04,0.39,0.31,0.41l0.39,0.04v1.12h-2.27l-0.06-0.7l-0.06-0.01
		c-0.45,0.66-1.15,0.9-1.88,0.9c-2.13,0-2.77-1.64-2.77-3.47c0-2.25,1.15-3.99,3.29-3.99c0.38,0,0.74,0.06,1.11,0.17v-1.25
		c0-0.27-0.11-0.39-0.34-0.41l-0.46-0.04v-1.18h2.73V129.01z M99.32,128.18v-3.25c-0.22-0.11-0.53-0.2-0.91-0.2
		c-1.13,0-1.53,1.09-1.53,2.37c0,1.2,0.25,2.21,1.27,2.21C98.88,129.32,99.32,128.87,99.32,128.18z"/>
	<path class="st2" d="M111.83,129.04c0,0.28,0.07,0.38,0.31,0.39l0.39,0.03v1.12h-2.27l-0.06-0.7l-0.06-0.01
		c-0.34,0.52-0.97,0.9-1.86,0.9c-2.07,0-2.8-1.51-2.8-3.42c0-2.47,1.23-4.05,3.77-4.05c0.49,0,1.51,0.1,2.58,0.5V129.04z
		 M109.9,124.88c-0.18-0.07-0.52-0.14-0.87-0.14c-1.22,0-1.57,1.18-1.57,2.51c0,1.08,0.25,2.09,1.26,2.09
		c0.77,0,1.18-0.52,1.18-1.08V124.88z"/>
	<path class="st2" d="M115.33,127.01c0,1.34,0.48,2.2,1.6,2.2c0.52,0,1.06-0.2,1.61-0.6l0.71,1.29c-0.6,0.49-1.5,0.88-2.58,0.88
		c-2.09,0-3.33-1.23-3.33-3.68c0-2.8,1.74-3.8,3.47-3.8c0.84,0,1.64,0.18,2.24,0.53v2.1l-1.46,0.1v-0.76c0-0.22-0.01-0.34-0.22-0.39
		c-0.15-0.04-0.32-0.07-0.49-0.07C115.92,124.81,115.33,125.51,115.33,127.01z"/>
	<path class="st2" d="M122.67,126.17v3.19l1.16,0.06v1.16h-3.88v-1.11l0.45-0.04c0.29-0.04,0.34-0.14,0.34-0.46v-3.88
		c0-0.28-0.08-0.38-0.32-0.39l-0.48-0.04v-1.18h2.56v1.08h0.03c0.22-0.56,0.83-1.26,1.99-1.26c0.41,0,0.91,0.07,1.29,0.24v2.52
		l-1.58,0.11v-0.92c0-0.22-0.03-0.29-0.13-0.34c-0.08-0.03-0.2-0.04-0.35-0.04C123.07,124.86,122.67,125.42,122.67,126.17z"/>
	<path class="st2" d="M132.44,125.34c0,2-1.75,2.52-3.95,2.45c0.07,0.81,0.5,1.48,1.58,1.48c0.78,0,1.37-0.29,1.76-0.56l0.56,1.33
		c-0.18,0.11-1.13,0.73-2.58,0.73c-2.4,0-3.31-1.54-3.31-3.56c0-2.14,1.25-3.92,3.54-3.92
		C131.52,123.29,132.44,123.94,132.44,125.34z M129.96,124.71c-0.92,0-1.44,0.84-1.48,1.79c1.4,0.06,2.26-0.18,2.26-1.06
		C130.73,124.92,130.41,124.71,129.96,124.71z"/>
	<path class="st2" d="M136.37,124.63c-0.56,0-0.98,0.24-0.98,0.73c0,0.63,0.6,0.74,1.34,0.97c1.02,0.31,2.13,0.63,2.13,2.09
		c0,1.51-1.15,2.37-2.96,2.37c-0.85,0-1.93-0.18-2.48-0.48v-1.86l1.4-0.11v0.63c0,0.21,0.04,0.29,0.21,0.35
		c0.18,0.07,0.48,0.13,0.76,0.13c0.66,0,1.09-0.21,1.09-0.81c0-0.6-0.55-0.74-1.33-0.92c-1.01-0.27-2.07-0.59-2.07-2.1
		c0-1.5,1.25-2.3,2.93-2.3c0.77,0,1.61,0.17,2.23,0.5v1.75l-1.39,0.11v-0.57c0-0.22-0.03-0.32-0.2-0.38
		C136.85,124.64,136.6,124.63,136.37,124.63z"/>
	<path class="st2" d="M145.14,129.37l0.73,0.04v1.16h-3.46v-1.11l0.46-0.04c0.27-0.04,0.32-0.11,0.32-0.46v-3.87
		c0-0.29-0.07-0.39-0.34-0.41l-0.46-0.04v-1.18h2.75V129.37z M143.96,120.4c0.69,0,1.18,0.42,1.18,1.04c0,0.66-0.49,1.11-1.18,1.11
		c-0.71,0-1.16-0.45-1.16-1.06C142.8,120.87,143.25,120.4,143.96,120.4z"/>
	<path class="st2" d="M151.45,126.11c0-0.78-0.17-1.25-0.95-1.25c-0.77,0-1.22,0.62-1.22,1.33v3.18l0.63,0.04v1.16h-3.36v-1.11
		l0.45-0.04c0.27-0.04,0.34-0.11,0.34-0.43v-3.89c0-0.29-0.07-0.39-0.34-0.41l-0.46-0.04v-1.18h2.59v0.95h0.03
		c0.38-0.66,1.05-1.13,2.1-1.13c1.39,0,2.16,0.71,2.16,2.38v3.7l0.67,0.04v1.16h-3.4v-1.11l0.42-0.04c0.27-0.04,0.35-0.11,0.35-0.46
		V126.11z"/>
	<path class="st2" d="M157.29,130.58v-1.18l0.35-0.04c0.32-0.04,0.39-0.15,0.46-0.42l2.16-6.37l-0.74-0.07v-1.23h3.43l2.83,8.04
		l0.7,0.06v1.22h-3.6v-1.18l0.45-0.04c0.27-0.04,0.32-0.15,0.22-0.42l-0.31-0.88h-2.93l-0.43,1.26l0.71,0.04v1.22H157.29z
		 M160.59,126.73h2.37l-1.15-3.67h-0.06L160.59,126.73z"/>
	<path class="st2" d="M169.68,126.17v3.19l1.16,0.06v1.16h-3.88v-1.11l0.45-0.04c0.29-0.04,0.34-0.14,0.34-0.46v-3.88
		c0-0.28-0.08-0.38-0.32-0.39l-0.48-0.04v-1.18h2.56v1.08h0.03c0.22-0.56,0.83-1.26,1.99-1.26c0.41,0,0.91,0.07,1.29,0.24v2.52
		l-1.58,0.11v-0.92c0-0.22-0.03-0.29-0.13-0.34c-0.08-0.03-0.2-0.04-0.35-0.04C170.08,124.86,169.68,125.42,169.68,126.17z"/>
	<path class="st2" d="M176.29,129.37l0.73,0.04v1.16h-3.46v-1.11l0.46-0.04c0.27-0.04,0.32-0.11,0.32-0.46v-3.87
		c0-0.29-0.07-0.39-0.34-0.41l-0.46-0.04v-1.18h2.75V129.37z M175.11,120.4c0.69,0,1.18,0.42,1.18,1.04c0,0.66-0.49,1.11-1.18,1.11
		c-0.71,0-1.16-0.45-1.16-1.06C173.95,120.87,174.39,120.4,175.11,120.4z"/>
	<path class="st2" d="M183.55,123.48v1.09l-3.59,4.73h1.81c0.28,0,0.39-0.07,0.39-0.39v-0.6l1.47,0.11v2.16h-5.84v-1.12l3.59-4.69
		h-1.64c-0.29,0-0.41,0.07-0.41,0.36v0.63l-1.47-0.11v-2.17H183.55z"/>
	<path class="st2" d="M187.77,123.29c1.06,0,3.19,0.31,3.19,3.56c0,2.73-1.4,3.92-3.42,3.92c-2,0-3.17-1.16-3.17-3.73
		C184.38,124.08,186.28,123.29,187.77,123.29z M188.91,127.06c0-1.51-0.29-2.31-1.25-2.31c-0.91,0-1.26,0.78-1.26,2.07
		c0,1.27,0.17,2.48,1.25,2.48C188.56,129.3,188.91,128.46,188.91,127.06z"/>
	<path class="st2" d="M196.66,126.11c0-0.78-0.17-1.25-0.95-1.25c-0.77,0-1.22,0.62-1.22,1.33v3.18l0.63,0.04v1.16h-3.36v-1.11
		l0.45-0.04c0.27-0.04,0.34-0.11,0.34-0.43v-3.89c0-0.29-0.07-0.39-0.34-0.41l-0.46-0.04v-1.18h2.59v0.95h0.03
		c0.38-0.66,1.05-1.13,2.1-1.13c1.39,0,2.16,0.71,2.16,2.38v3.7l0.67,0.04v1.16h-3.4v-1.11l0.42-0.04c0.27-0.04,0.35-0.11,0.35-0.46
		V126.11z"/>
	<path class="st2" d="M206.4,129.04c0,0.28,0.07,0.38,0.31,0.39l0.39,0.03v1.12h-2.27l-0.06-0.7l-0.06-0.01
		c-0.34,0.52-0.97,0.9-1.86,0.9c-2.07,0-2.8-1.51-2.8-3.42c0-2.47,1.23-4.05,3.77-4.05c0.49,0,1.51,0.1,2.58,0.5V129.04z
		 M204.47,124.88c-0.18-0.07-0.52-0.14-0.87-0.14c-1.22,0-1.57,1.18-1.57,2.51c0,1.08,0.25,2.09,1.26,2.09
		c0.77,0,1.18-0.52,1.18-1.08V124.88z"/>
	<path class="st2" d="M209.11,128.66c0.73,0,1.12,0.42,1.12,1.04c0,0.6-0.36,1.06-1.08,1.06c-0.77,0-1.13-0.43-1.13-1.05
		C208.02,129.11,208.43,128.66,209.11,128.66z"/>
	<path class="st2" d="M218.16,130.76c-2.58,0-4.09-1.62-4.09-4.82c0-3.59,2.23-4.85,4.26-4.85c2.14,0,4.01,1.3,4.01,4.85
		C222.33,129.14,220.69,130.76,218.16,130.76z M218.26,129.07c1.6,0,2-1.51,2-3.08c0-1.3-0.32-3.18-2.04-3.18
		c-1.57,0-2.07,1.51-2.07,3.05C216.14,127.33,216.45,129.07,218.26,129.07z"/>
	<path class="st2" d="M229.99,128.97c0,0.32,0.04,0.41,0.31,0.45l0.38,0.04v1.12h-2.48v-0.9h-0.04c-0.41,0.71-1.13,1.09-2.07,1.09
		c-1.44,0-2.17-0.8-2.17-2.38v-3.29c0-0.32-0.1-0.39-0.34-0.41l-0.39-0.04v-1.18h2.69v4.5c0,0.83,0.15,1.25,0.92,1.25
		c0.73,0,1.25-0.57,1.25-1.37v-2.75c0-0.29-0.07-0.39-0.34-0.41l-0.34-0.03v-1.19h2.62V128.97z"/>
	<path class="st2" d="M234.15,126.17v3.19l1.16,0.06v1.16h-3.88v-1.11l0.45-0.04c0.29-0.04,0.34-0.14,0.34-0.46v-3.88
		c0-0.28-0.08-0.38-0.32-0.39l-0.48-0.04v-1.18h2.56v1.08h0.03c0.22-0.56,0.83-1.26,1.99-1.26c0.41,0,0.91,0.07,1.29,0.24v2.52
		l-1.58,0.11v-0.92c0-0.22-0.03-0.29-0.13-0.34c-0.08-0.03-0.2-0.04-0.35-0.04C234.55,124.86,234.15,125.42,234.15,126.17z"/>
	<path class="st2" d="M58.93,146.34c-0.34,0.49-0.97,0.81-1.75,0.81c-1.92,0-2.77-1.34-2.77-3.32c0-2.35,1.33-3.74,3.64-3.74
		c0.63,0,1.71,0.11,2.72,0.52v6.08c0,1.68-0.42,3.68-3.39,3.68c-0.85,0-1.99-0.15-2.58-0.49v-1.96l1.5-0.11v0.63
		c0,0.28,0.06,0.38,0.29,0.45c0.2,0.07,0.43,0.1,0.73,0.1c1.18,0,1.61-0.63,1.61-2.02V146.34z M58.83,141.68
		c-0.29-0.1-0.62-0.15-0.97-0.15c-1.01,0-1.48,0.88-1.48,2.23c0,1.02,0.17,1.99,1.27,1.99c0.74,0,1.18-0.48,1.18-1.19V141.68z"/>
	<path class="st2" d="M65.49,140.1c1.06,0,3.19,0.31,3.19,3.56c0,2.73-1.4,3.92-3.42,3.92c-2,0-3.17-1.16-3.17-3.73
		C62.1,140.88,64.01,140.1,65.49,140.1z M66.64,143.86c0-1.51-0.29-2.31-1.25-2.31c-0.91,0-1.26,0.78-1.26,2.07
		c0,1.27,0.17,2.48,1.25,2.48C66.29,146.1,66.64,145.26,66.64,143.86z"/>
	<path class="st2" d="M75.91,145.84c0,0.28,0.07,0.38,0.31,0.39l0.39,0.03v1.12h-2.27l-0.06-0.7l-0.06-0.01
		c-0.34,0.52-0.97,0.9-1.86,0.9c-2.07,0-2.8-1.51-2.8-3.42c0-2.47,1.23-4.05,3.77-4.05c0.49,0,1.51,0.1,2.58,0.5V145.84z
		 M73.98,141.68c-0.18-0.07-0.52-0.14-0.87-0.14c-1.22,0-1.57,1.18-1.57,2.51c0,1.08,0.25,2.09,1.26,2.09
		c0.77,0,1.18-0.52,1.18-1.08V141.68z"/>
	<path class="st2" d="M80.02,146.17l0.73,0.04v1.16h-3.45v-1.11l0.45-0.06c0.27-0.04,0.32-0.1,0.32-0.45v-6.75
		c0-0.29-0.07-0.39-0.34-0.41l-0.46-0.04v-1.18h2.75V146.17z"/>
	<path class="st2" d="M86.88,146.17l0.73,0.04v1.16h-3.46v-1.11l0.46-0.04c0.27-0.04,0.32-0.11,0.32-0.46v-3.87
		c0-0.29-0.07-0.39-0.34-0.41l-0.46-0.04v-1.18h2.75V146.17z M85.71,137.2c0.69,0,1.18,0.42,1.18,1.04c0,0.66-0.49,1.11-1.18,1.11
		c-0.71,0-1.16-0.45-1.16-1.06C84.54,137.67,84.99,137.2,85.71,137.2z"/>
	<path class="st2" d="M91.42,141.43c-0.56,0-0.98,0.24-0.98,0.73c0,0.63,0.6,0.74,1.34,0.97c1.02,0.31,2.13,0.63,2.13,2.09
		c0,1.51-1.15,2.37-2.96,2.37c-0.85,0-1.93-0.18-2.48-0.48v-1.86l1.4-0.11v0.63c0,0.21,0.04,0.29,0.21,0.35
		c0.18,0.07,0.48,0.13,0.76,0.13c0.66,0,1.09-0.21,1.09-0.81s-0.55-0.74-1.33-0.92c-1.01-0.27-2.07-0.59-2.07-2.1
		c0-1.5,1.25-2.3,2.93-2.3c0.77,0,1.61,0.17,2.23,0.5v1.75l-1.39,0.11v-0.57c0-0.22-0.03-0.32-0.2-0.38
		C91.9,141.44,91.64,141.43,91.42,141.43z"/>
	<path class="st2" d="M97.37,140.43c1.01-0.18,1.39-0.92,1.68-1.77h1.08v1.61h1.74l-0.07,1.36h-1.67v3.35
		c0,0.83,0.29,1.05,0.85,1.05c0.38,0,0.71-0.11,0.94-0.24l0.32,1.33c-0.39,0.27-1.06,0.45-1.79,0.45c-2.19,0-2.3-1.32-2.3-2.51
		v-3.43H97.2L97.37,140.43z"/>
	<path class="st2" d="M105.99,140.1c1.06,0,3.19,0.31,3.19,3.56c0,2.73-1.4,3.92-3.42,3.92c-2,0-3.17-1.16-3.17-3.73
		C102.6,140.88,104.51,140.1,105.99,140.1z M107.14,143.86c0-1.51-0.29-2.31-1.25-2.31c-0.91,0-1.26,0.78-1.26,2.07
		c0,1.27,0.17,2.48,1.25,2.48C106.79,146.1,107.14,145.26,107.14,143.86z"/>
	<path class="st2" d="M115.39,146.17l0.63,0.04v1.16h-3.35v-1.11l0.45-0.04c0.24-0.04,0.32-0.11,0.32-0.43v-6.78
		c0-0.29-0.06-0.39-0.32-0.41l-0.48-0.04v-1.18h2.75v5.69c0.85-0.11,1.85-0.71,1.85-1.36c0-0.18-0.11-0.22-0.29-0.27l-0.36-0.04
		v-1.13h3.1v1.15l-0.63,0.08c-0.1,0.67-0.48,1.37-1.15,1.92l1.27,2.75l0.76,0.04v1.16h-2.35l-1.34-3.15
		c-0.28,0.11-0.55,0.15-0.84,0.2V146.17z"/>
	<path class="st2" d="M126.31,142.14c0,2-1.75,2.52-3.95,2.45c0.07,0.81,0.5,1.48,1.58,1.48c0.78,0,1.37-0.29,1.76-0.56l0.56,1.33
		c-0.18,0.11-1.13,0.73-2.58,0.73c-2.4,0-3.31-1.54-3.31-3.56c0-2.14,1.25-3.92,3.54-3.92C125.38,140.1,126.31,140.74,126.31,142.14
		z M123.83,141.51c-0.92,0-1.44,0.84-1.48,1.79c1.4,0.06,2.26-0.18,2.26-1.06C124.6,141.72,124.28,141.51,123.83,141.51z"/>
	<path class="st2" d="M133,142.14c0,2-1.75,2.52-3.95,2.45c0.07,0.81,0.5,1.48,1.58,1.48c0.78,0,1.37-0.29,1.76-0.56l0.56,1.33
		c-0.18,0.11-1.13,0.73-2.58,0.73c-2.4,0-3.31-1.54-3.31-3.56c0-2.14,1.25-3.92,3.54-3.92C132.08,140.1,133,140.74,133,142.14z
		 M130.52,141.51c-0.92,0-1.44,0.84-1.48,1.79c1.4,0.06,2.26-0.18,2.26-1.06C131.29,141.72,130.97,141.51,130.52,141.51z"/>
	<path class="st2" d="M134.54,141.89c0-0.27-0.11-0.39-0.34-0.41l-0.46-0.03v-1.18h2.59v0.87h0.03c0.43-0.77,1.22-1.05,2-1.05
		c1.64,0,2.52,1.26,2.52,3.52c0,2.45-1.02,3.96-3,3.96c-0.5,0-1.02-0.14-1.4-0.35v1.82l1.21,0.07v1.16h-3.92v-1.11l0.43-0.06
		c0.27-0.04,0.34-0.1,0.34-0.45V141.89z M136.5,145.78c0.28,0.21,0.69,0.34,1.04,0.34c1.05,0,1.37-0.99,1.37-2.27
		c0-1.15-0.21-2.27-1.23-2.27c-0.81,0-1.18,0.64-1.18,1.09V145.78z"/>
	<path class="st2" d="M144.18,147.38v-1.18l0.35-0.04c0.32-0.04,0.39-0.15,0.46-0.42l2.16-6.37l-0.74-0.07v-1.23h3.43l2.83,8.04
		l0.7,0.06v1.22h-3.6v-1.18l0.45-0.04c0.27-0.04,0.32-0.15,0.22-0.42l-0.31-0.88h-2.93l-0.43,1.26l0.71,0.04v1.22H144.18z
		 M147.49,143.53h2.37l-1.15-3.67h-0.06L147.49,143.53z"/>
	<path class="st2" d="M156.57,142.97v3.19l1.16,0.06v1.16h-3.88v-1.11l0.45-0.04c0.29-0.04,0.34-0.14,0.34-0.46v-3.88
		c0-0.28-0.08-0.38-0.32-0.39l-0.48-0.04v-1.18h2.56v1.08h0.03c0.22-0.56,0.83-1.26,1.99-1.26c0.41,0,0.91,0.07,1.29,0.24v2.52
		l-1.58,0.11v-0.92c0-0.22-0.03-0.29-0.13-0.34c-0.08-0.03-0.2-0.04-0.35-0.04C156.98,141.66,156.57,142.22,156.57,142.97z"/>
	<path class="st2" d="M163.18,146.17l0.73,0.04v1.16h-3.46v-1.11l0.46-0.04c0.27-0.04,0.32-0.11,0.32-0.46v-3.87
		c0-0.29-0.07-0.39-0.34-0.41l-0.46-0.04v-1.18h2.75V146.17z M162,137.2c0.69,0,1.18,0.42,1.18,1.04c0,0.66-0.49,1.11-1.18,1.11
		c-0.71,0-1.16-0.45-1.16-1.06C160.84,137.67,161.29,137.2,162,137.2z"/>
	<path class="st2" d="M170.45,140.28v1.09l-3.59,4.73h1.81c0.28,0,0.39-0.07,0.39-0.39v-0.6l1.47,0.11v2.16h-5.84v-1.12l3.59-4.69
		h-1.64c-0.29,0-0.41,0.07-0.41,0.36v0.63l-1.47-0.11v-2.17H170.45z"/>
	<path class="st2" d="M174.66,140.1c1.06,0,3.19,0.31,3.19,3.56c0,2.73-1.4,3.92-3.42,3.92c-2,0-3.17-1.16-3.17-3.73
		C171.27,140.88,173.18,140.1,174.66,140.1z M175.81,143.86c0-1.51-0.29-2.31-1.25-2.31c-0.91,0-1.26,0.78-1.26,2.07
		c0,1.27,0.17,2.48,1.25,2.48C175.46,146.1,175.81,145.26,175.81,143.86z"/>
	<path class="st2" d="M183.55,142.91c0-0.78-0.17-1.25-0.95-1.25c-0.77,0-1.22,0.62-1.22,1.33v3.18l0.63,0.04v1.16h-3.36v-1.11
		l0.45-0.04c0.27-0.04,0.34-0.11,0.34-0.43v-3.89c0-0.29-0.07-0.39-0.34-0.41l-0.46-0.04v-1.18h2.59v0.95h0.03
		c0.38-0.66,1.05-1.13,2.1-1.13c1.39,0,2.16,0.71,2.16,2.38v3.7l0.67,0.04v1.16h-3.4v-1.11l0.42-0.04c0.27-0.04,0.35-0.11,0.35-0.46
		V142.91z"/>
	<path class="st2" d="M193.3,145.84c0,0.28,0.07,0.38,0.31,0.39l0.39,0.03v1.12h-2.27l-0.06-0.7l-0.06-0.01
		c-0.34,0.52-0.97,0.9-1.86,0.9c-2.07,0-2.8-1.51-2.8-3.42c0-2.47,1.23-4.05,3.77-4.05c0.49,0,1.51,0.1,2.58,0.5V145.84z
		 M191.36,141.68c-0.18-0.07-0.52-0.14-0.87-0.14c-1.22,0-1.57,1.18-1.57,2.51c0,1.08,0.25,2.09,1.26,2.09
		c0.77,0,1.18-0.52,1.18-1.08V141.68z"/>
	<path class="st2" d="M197.4,140.28h0.94v-0.46c0-1.37,0.46-2.58,2.42-2.58c0.71,0,1.53,0.22,2.07,0.5l-0.46,1.26
		c-0.42-0.2-0.81-0.29-1.19-0.29c-0.6,0-0.9,0.31-0.9,1.05v0.52h1.88v1.33h-1.88v4.55l1.12,0.06v1.16h-3.84v-1.11l0.43-0.04
		c0.27-0.04,0.34-0.11,0.34-0.46v-4.16h-0.94V140.28z"/>
	<path class="st2" d="M209.41,145.77c0,0.32,0.04,0.41,0.31,0.45l0.38,0.04v1.12h-2.48v-0.9h-0.04c-0.41,0.71-1.13,1.09-2.07,1.09
		c-1.44,0-2.17-0.8-2.17-2.38v-3.29c0-0.32-0.1-0.39-0.34-0.41l-0.39-0.04v-1.18h2.69v4.5c0,0.83,0.15,1.25,0.92,1.25
		c0.73,0,1.25-0.57,1.25-1.37v-2.75c0-0.29-0.07-0.39-0.34-0.41l-0.34-0.03v-1.19h2.62V145.77z"/>
	<path class="st2" d="M213.55,146.17l0.73,0.04v1.16h-3.45v-1.11l0.45-0.06c0.27-0.04,0.32-0.1,0.32-0.45v-6.75
		c0-0.29-0.07-0.39-0.34-0.41l-0.46-0.04v-1.18h2.75V146.17z"/>
	<path class="st2" d="M217.63,146.17l0.73,0.04v1.16h-3.45v-1.11l0.45-0.06c0.27-0.04,0.32-0.1,0.32-0.45v-6.75
		c0-0.29-0.07-0.39-0.34-0.41l-0.46-0.04v-1.18h2.75V146.17z"/>
	<path class="st2" d="M225.21,140.1c1.06,0,3.19,0.31,3.19,3.56c0,2.73-1.4,3.92-3.42,3.92c-2,0-3.17-1.16-3.17-3.73
		C221.83,140.88,223.73,140.1,225.21,140.1z M226.36,143.86c0-1.51-0.29-2.31-1.25-2.31c-0.91,0-1.26,0.78-1.26,2.07
		c0,1.27,0.17,2.48,1.25,2.48C226.01,146.1,226.36,145.26,226.36,143.86z"/>
	<path class="st2" d="M229.16,140.28h0.94v-0.46c0-1.37,0.46-2.58,2.42-2.58c0.71,0,1.53,0.22,2.07,0.5l-0.46,1.26
		c-0.42-0.2-0.81-0.29-1.19-0.29c-0.6,0-0.9,0.31-0.9,1.05v0.52h1.88v1.33h-1.88v4.55l1.12,0.06v1.16h-3.84v-1.11l0.43-0.04
		c0.27-0.04,0.34-0.11,0.34-0.46v-4.16h-0.94V140.28z"/>
	<path class="st2" d="M58.24,159.71c0-0.79-0.17-1.25-0.95-1.25c-0.77,0-1.22,0.62-1.22,1.33v3.18l0.63,0.04v1.16h-3.36v-1.11
		l0.45-0.04c0.27-0.04,0.34-0.11,0.34-0.43v-3.89c0-0.29-0.07-0.39-0.34-0.41l-0.46-0.04v-1.18h2.59v0.95h0.03
		c0.38-0.66,1.05-1.13,2.1-1.13c1.39,0,2.16,0.71,2.16,2.38v3.7l0.67,0.04v1.16h-3.4v-1.11l0.42-0.04c0.27-0.04,0.35-0.11,0.35-0.46
		V159.71z"/>
	<path class="st2" d="M67.98,162.64c0,0.28,0.07,0.38,0.31,0.39l0.39,0.03v1.12h-2.27l-0.06-0.7l-0.06-0.01
		c-0.34,0.52-0.97,0.9-1.86,0.9c-2.07,0-2.8-1.51-2.8-3.42c0-2.47,1.23-4.05,3.77-4.05c0.49,0,1.51,0.1,2.58,0.5V162.64z
		 M66.05,158.48c-0.18-0.07-0.52-0.14-0.87-0.14c-1.22,0-1.57,1.18-1.57,2.51c0,1.08,0.25,2.09,1.26,2.09
		c0.77,0,1.18-0.52,1.18-1.08V158.48z"/>
	<path class="st2" d="M69.34,157.23c1.01-0.18,1.39-0.92,1.68-1.77h1.08v1.61h1.74l-0.07,1.36H72.1v3.35c0,0.83,0.29,1.05,0.85,1.05
		c0.38,0,0.71-0.11,0.94-0.24l0.32,1.33c-0.39,0.27-1.06,0.45-1.79,0.45c-2.19,0-2.3-1.32-2.3-2.51v-3.43h-0.95L69.34,157.23z"/>
	<path class="st2" d="M81.31,162.57c0,0.32,0.04,0.41,0.31,0.45l0.38,0.04v1.12h-2.48v-0.9h-0.04c-0.41,0.71-1.13,1.09-2.07,1.09
		c-1.44,0-2.17-0.8-2.17-2.38v-3.29c0-0.32-0.1-0.39-0.34-0.41l-0.39-0.04v-1.18h2.69v4.5c0,0.83,0.15,1.25,0.92,1.25
		c0.73,0,1.25-0.57,1.25-1.37v-2.75c0-0.29-0.07-0.39-0.34-0.41l-0.34-0.03v-1.19h2.62V162.57z"/>
	<path class="st2" d="M85.47,159.77v3.19l1.16,0.06v1.16h-3.88v-1.11l0.45-0.04c0.29-0.04,0.34-0.14,0.34-0.46v-3.88
		c0-0.28-0.08-0.38-0.32-0.39l-0.48-0.04v-1.18h2.56v1.08h0.03c0.22-0.56,0.83-1.26,1.99-1.26c0.41,0,0.91,0.07,1.29,0.24v2.52
		l-1.58,0.11v-0.92c0-0.22-0.03-0.29-0.13-0.34c-0.08-0.03-0.2-0.04-0.35-0.04C85.87,158.46,85.47,159.02,85.47,159.77z"/>
	<path class="st2" d="M95.24,158.94c0,2-1.75,2.52-3.95,2.45c0.07,0.81,0.5,1.48,1.58,1.48c0.78,0,1.37-0.29,1.76-0.56l0.56,1.33
		c-0.18,0.11-1.13,0.73-2.58,0.73c-2.4,0-3.31-1.54-3.31-3.56c0-2.14,1.25-3.92,3.54-3.92C94.32,156.9,95.24,157.54,95.24,158.94z
		 M92.76,158.31c-0.92,0-1.44,0.84-1.48,1.79c1.4,0.06,2.26-0.18,2.26-1.06C93.53,158.52,93.21,158.31,92.76,158.31z"/>
	<path class="st2" d="M101.9,158.23c-0.56,0-0.98,0.24-0.98,0.73c0,0.63,0.6,0.74,1.34,0.97c1.02,0.31,2.13,0.63,2.13,2.09
		c0,1.51-1.15,2.37-2.96,2.37c-0.85,0-1.93-0.18-2.48-0.48v-1.86l1.4-0.11v0.63c0,0.21,0.04,0.29,0.21,0.35
		c0.18,0.07,0.48,0.13,0.76,0.13c0.66,0,1.09-0.21,1.09-0.81s-0.55-0.74-1.33-0.92c-1.01-0.27-2.07-0.59-2.07-2.1
		c0-1.5,1.25-2.3,2.93-2.3c0.77,0,1.61,0.17,2.23,0.5v1.75l-1.39,0.11v-0.57c0-0.22-0.03-0.32-0.2-0.38
		C102.38,158.24,102.13,158.23,101.9,158.23z"/>
	<path class="st2" d="M108.62,156.9c1.06,0,3.19,0.31,3.19,3.56c0,2.73-1.4,3.92-3.42,3.92c-2,0-3.17-1.16-3.17-3.73
		C105.23,157.68,107.14,156.9,108.62,156.9z M109.77,160.66c0-1.51-0.29-2.31-1.25-2.31c-0.91,0-1.26,0.79-1.26,2.07
		c0,1.27,0.17,2.48,1.25,2.48C109.42,162.9,109.77,162.06,109.77,160.66z"/>
	<path class="st2" d="M121.37,158.94c0,2-1.75,2.52-3.95,2.45c0.07,0.81,0.5,1.48,1.58,1.48c0.78,0,1.37-0.29,1.76-0.56l0.56,1.33
		c-0.18,0.11-1.13,0.73-2.58,0.73c-2.4,0-3.31-1.54-3.31-3.56c0-2.14,1.25-3.92,3.54-3.92C120.44,156.9,121.37,157.54,121.37,158.94
		z M118.89,158.31c-0.92,0-1.44,0.84-1.48,1.79c1.4,0.06,2.26-0.18,2.26-1.06C119.66,158.52,119.33,158.31,118.89,158.31z"/>
	<path class="st2" d="M129.57,157.08v1.16l-0.34,0.03c-0.24,0.04-0.34,0.08-0.45,0.41l-1.92,5.5h-2.23l-2.06-5.85l-0.66-0.08v-1.16
		h3.47v1.19l-0.42,0.04c-0.22,0.03-0.29,0.15-0.22,0.38l1.12,3.67h0.01l1.3-4.03l-0.6-0.04v-1.21H129.57z"/>
	<path class="st2" d="M135.8,158.94c0,2-1.75,2.52-3.95,2.45c0.07,0.81,0.5,1.48,1.58,1.48c0.78,0,1.37-0.29,1.76-0.56l0.56,1.33
		c-0.18,0.11-1.13,0.73-2.58,0.73c-2.4,0-3.31-1.54-3.31-3.56c0-2.14,1.25-3.92,3.54-3.92C134.88,156.9,135.8,157.54,135.8,158.94z
		 M133.32,158.31c-0.92,0-1.44,0.84-1.48,1.79c1.4,0.06,2.26-0.18,2.26-1.06C134.09,158.52,133.77,158.31,133.32,158.31z"/>
	<path class="st2" d="M139.33,159.77v3.19l1.16,0.06v1.16h-3.88v-1.11l0.45-0.04c0.29-0.04,0.34-0.14,0.34-0.46v-3.88
		c0-0.28-0.08-0.38-0.32-0.39l-0.48-0.04v-1.18h2.56v1.08h0.03c0.22-0.56,0.83-1.26,1.99-1.26c0.41,0,0.91,0.07,1.29,0.24v2.52
		l-1.58,0.11v-0.92c0-0.22-0.03-0.29-0.13-0.34c-0.08-0.03-0.2-0.04-0.35-0.04C139.73,158.46,139.33,159.02,139.33,159.77z"/>
	<path class="st2" d="M147.6,164.22c-0.71,1.91-1.37,3.03-3.07,3.03c-0.69,0-1.4-0.22-1.83-0.49l0.46-1.4
		c0.34,0.15,0.71,0.29,1.23,0.29c0.5,0,0.83-0.31,1.09-0.99l0.2-0.5l-2.14-5.83l-0.64-0.08v-1.16h3.31v1.18l-0.34,0.04
		c-0.21,0.03-0.29,0.15-0.22,0.39l1.06,3.35h0.04l1.23-3.71l-0.63-0.04v-1.21h3.05v1.16l-0.31,0.03c-0.28,0.04-0.36,0.13-0.46,0.42
		L147.6,164.22z"/>
	<path class="st2" d="M154.1,156.9c1.07,0,3.19,0.31,3.19,3.56c0,2.73-1.4,3.92-3.42,3.92c-2,0-3.17-1.16-3.17-3.73
		C150.71,157.68,152.61,156.9,154.1,156.9z M155.25,160.66c0-1.51-0.29-2.31-1.25-2.31c-0.91,0-1.26,0.79-1.26,2.07
		c0,1.27,0.17,2.48,1.25,2.48C154.9,162.9,155.25,162.06,155.25,160.66z"/>
	<path class="st2" d="M162.99,159.71c0-0.79-0.17-1.25-0.95-1.25c-0.77,0-1.22,0.62-1.22,1.33v3.18l0.63,0.04v1.16h-3.36v-1.11
		l0.45-0.04c0.27-0.04,0.34-0.11,0.34-0.43v-3.89c0-0.29-0.07-0.39-0.34-0.41l-0.46-0.04v-1.18h2.59v0.95h0.03
		c0.38-0.66,1.05-1.13,2.1-1.13c1.39,0,2.16,0.71,2.16,2.38v3.7l0.67,0.04v1.16h-3.4v-1.11l0.42-0.04c0.27-0.04,0.35-0.11,0.35-0.46
		V159.71z"/>
	<path class="st2" d="M172.33,158.94c0,2-1.75,2.52-3.95,2.45c0.07,0.81,0.5,1.48,1.58,1.48c0.79,0,1.37-0.29,1.77-0.56l0.56,1.33
		c-0.18,0.11-1.13,0.73-2.58,0.73c-2.4,0-3.31-1.54-3.31-3.56c0-2.14,1.25-3.92,3.54-3.92C171.4,156.9,172.33,157.54,172.33,158.94z
		 M169.85,158.31c-0.92,0-1.44,0.84-1.49,1.79c1.4,0.06,2.25-0.18,2.25-1.06C170.62,158.52,170.3,158.31,169.85,158.31z"/>
	<path class="st2" d="M177.95,160.61c0,1.34,0.48,2.2,1.6,2.2c0.52,0,1.06-0.2,1.61-0.6l0.71,1.29c-0.6,0.49-1.5,0.88-2.58,0.88
		c-2.09,0-3.33-1.23-3.33-3.68c0-2.8,1.74-3.8,3.47-3.8c0.84,0,1.64,0.18,2.24,0.53v2.1l-1.46,0.1v-0.76c0-0.22-0.01-0.34-0.22-0.39
		c-0.15-0.04-0.32-0.07-0.49-0.07C178.54,158.41,177.95,159.11,177.95,160.61z"/>
	<path class="st2" d="M188.86,162.64c0,0.28,0.07,0.38,0.31,0.39l0.39,0.03v1.12h-2.27l-0.06-0.7l-0.06-0.01
		c-0.34,0.52-0.97,0.9-1.86,0.9c-2.07,0-2.8-1.51-2.8-3.42c0-2.47,1.23-4.05,3.77-4.05c0.49,0,1.51,0.1,2.58,0.5V162.64z
		 M186.93,158.48c-0.18-0.07-0.52-0.14-0.87-0.14c-1.22,0-1.57,1.18-1.57,2.51c0,1.08,0.25,2.09,1.26,2.09
		c0.77,0,1.18-0.52,1.18-1.08V158.48z"/>
	<path class="st2" d="M195.17,159.71c0-0.79-0.17-1.25-0.95-1.25c-0.77,0-1.22,0.62-1.22,1.33v3.18l0.63,0.04v1.16h-3.36v-1.11
		l0.45-0.04c0.27-0.04,0.34-0.11,0.34-0.43v-3.89c0-0.29-0.07-0.39-0.34-0.41l-0.46-0.04v-1.18h2.59v0.95h0.03
		c0.38-0.66,1.05-1.13,2.1-1.13c1.39,0,2.16,0.71,2.16,2.38v3.7l0.67,0.04v1.16h-3.4v-1.11l0.42-0.04c0.27-0.04,0.35-0.11,0.35-0.46
		V159.71z"/>
	<path class="st2" d="M207.24,158.94c0,2-1.75,2.52-3.95,2.45c0.07,0.81,0.5,1.48,1.58,1.48c0.79,0,1.37-0.29,1.77-0.56l0.56,1.33
		c-0.18,0.11-1.13,0.73-2.58,0.73c-2.4,0-3.31-1.54-3.31-3.56c0-2.14,1.25-3.92,3.54-3.92C206.32,156.9,207.24,157.54,207.24,158.94
		z M204.76,158.31c-0.92,0-1.44,0.84-1.49,1.79c1.4,0.06,2.25-0.18,2.25-1.06C205.53,158.52,205.21,158.31,204.76,158.31z"/>
	<path class="st2" d="M212.95,159.71c0-0.79-0.17-1.25-0.95-1.25c-0.77,0-1.22,0.62-1.22,1.33v3.18l0.63,0.04v1.16h-3.36v-1.11
		l0.45-0.04c0.27-0.04,0.34-0.11,0.34-0.43v-3.89c0-0.29-0.07-0.39-0.34-0.41l-0.46-0.04v-1.18h2.59v0.95h0.03
		c0.38-0.66,1.05-1.13,2.1-1.13c1.39,0,2.16,0.71,2.16,2.38v3.7l0.67,0.04v1.16h-3.4v-1.11l0.42-0.04c0.27-0.04,0.35-0.11,0.35-0.46
		V159.71z"/>
	<path class="st2" d="M218.97,164.63c0,1.22-0.15,2.58-2.24,2.58c-0.63,0-1.43-0.18-1.98-0.5l0.52-1.39
		c0.34,0.18,0.66,0.27,0.98,0.27c0.49,0,0.76-0.28,0.76-1.06v-5.8c0-0.29-0.07-0.41-0.34-0.42l-0.46-0.04v-1.18h2.76V164.63z
		 M217.82,154c0.71,0,1.18,0.42,1.18,1.04c0,0.66-0.49,1.11-1.18,1.11c-0.71,0-1.16-0.45-1.16-1.06
		C216.66,154.47,217.11,154,217.82,154z"/>
	<path class="st2" d="M223.8,156.9c1.06,0,3.19,0.31,3.19,3.56c0,2.73-1.4,3.92-3.42,3.92c-2,0-3.17-1.16-3.17-3.73
		C220.41,157.68,222.32,156.9,223.8,156.9z M224.95,160.66c0-1.51-0.29-2.31-1.25-2.31c-0.91,0-1.26,0.79-1.26,2.07
		c0,1.27,0.17,2.48,1.25,2.48C224.6,162.9,224.95,162.06,224.95,160.66z"/>
	<path class="st2" d="M232.1,164.22c-0.71,1.91-1.37,3.03-3.07,3.03c-0.69,0-1.4-0.22-1.83-0.49l0.46-1.4
		c0.34,0.15,0.71,0.29,1.23,0.29c0.5,0,0.83-0.31,1.09-0.99l0.2-0.5l-2.14-5.83l-0.64-0.08v-1.16h3.31v1.18l-0.34,0.04
		c-0.21,0.03-0.29,0.15-0.22,0.39l1.06,3.35h0.04l1.23-3.71l-0.63-0.04v-1.21h3.05v1.16l-0.31,0.03c-0.28,0.04-0.36,0.13-0.46,0.42
		L232.1,164.22z"/>
	<path class="st2" d="M61.55,174.03c1.01-0.18,1.39-0.92,1.68-1.76h1.08v1.61h1.74l-0.07,1.36h-1.67v3.35
		c0,0.83,0.29,1.05,0.85,1.05c0.38,0,0.71-0.11,0.94-0.24l0.32,1.33c-0.39,0.27-1.06,0.45-1.79,0.45c-2.19,0-2.3-1.32-2.3-2.51
		v-3.43h-0.95L61.55,174.03z"/>
	<path class="st2" d="M71.88,176.48c0-0.77-0.17-1.22-0.97-1.22c-0.73,0-1.2,0.57-1.2,1.34v3.17l0.64,0.04v1.16h-3.36v-1.11
		l0.42-0.04c0.27-0.04,0.35-0.11,0.35-0.46v-6.75c0-0.29-0.07-0.39-0.34-0.41l-0.46-0.04v-1.18h2.72v3.84
		c0.46-0.85,1.26-1.13,1.99-1.13c1.58,0,2.17,0.91,2.17,2.38v3.7l0.67,0.04v1.16h-3.4v-1.11l0.42-0.04
		c0.27-0.04,0.35-0.11,0.35-0.46V176.48z"/>
	<path class="st2" d="M81.22,175.74c0,2-1.75,2.52-3.95,2.45c0.07,0.81,0.5,1.48,1.58,1.48c0.78,0,1.37-0.29,1.76-0.56l0.56,1.33
		c-0.18,0.11-1.13,0.73-2.58,0.73c-2.4,0-3.31-1.54-3.31-3.56c0-2.14,1.25-3.92,3.54-3.92C80.3,173.7,81.22,174.34,81.22,175.74z
		 M78.74,175.11c-0.92,0-1.44,0.84-1.48,1.79c1.4,0.06,2.26-0.18,2.26-1.06C79.51,175.32,79.19,175.11,78.74,175.11z"/>
	<path class="st2" d="M85.49,175.49c0-0.27-0.11-0.39-0.34-0.41l-0.46-0.03v-1.18h2.59v0.87h0.03c0.43-0.77,1.22-1.05,2-1.05
		c1.64,0,2.52,1.26,2.52,3.52c0,2.45-1.02,3.96-3,3.96c-0.5,0-1.02-0.14-1.4-0.35v1.82l1.21,0.07v1.16h-3.92v-1.11l0.43-0.06
		c0.27-0.04,0.34-0.1,0.34-0.45V175.49z M87.45,179.38c0.28,0.21,0.69,0.34,1.04,0.34c1.05,0,1.37-0.99,1.37-2.27
		c0-1.15-0.21-2.27-1.23-2.27c-0.81,0-1.18,0.64-1.18,1.09V179.38z"/>
	<path class="st2" d="M98.64,175.74c0,2-1.75,2.52-3.95,2.45c0.07,0.81,0.5,1.48,1.58,1.48c0.78,0,1.37-0.29,1.76-0.56l0.56,1.33
		c-0.18,0.11-1.13,0.73-2.58,0.73c-2.4,0-3.31-1.54-3.31-3.56c0-2.14,1.25-3.92,3.54-3.92C97.71,173.7,98.64,174.34,98.64,175.74z
		 M96.16,175.11c-0.92,0-1.44,0.84-1.48,1.79c1.4,0.06,2.26-0.18,2.26-1.06C96.93,175.32,96.61,175.11,96.16,175.11z"/>
	<path class="st2" d="M105.88,179.44c0,0.28,0.07,0.38,0.31,0.39l0.39,0.03v1.12h-2.27l-0.06-0.7l-0.06-0.01
		c-0.34,0.52-0.97,0.9-1.86,0.9c-2.07,0-2.8-1.51-2.8-3.42c0-2.47,1.23-4.05,3.77-4.05c0.49,0,1.51,0.1,2.58,0.5V179.44z
		 M103.94,175.28c-0.18-0.07-0.52-0.14-0.87-0.14c-1.22,0-1.57,1.18-1.57,2.51c0,1.08,0.25,2.09,1.26,2.09
		c0.77,0,1.18-0.52,1.18-1.08V175.28z"/>
	<path class="st2" d="M109.37,177.41c0,1.34,0.48,2.2,1.6,2.2c0.52,0,1.06-0.2,1.61-0.6l0.71,1.29c-0.6,0.49-1.5,0.88-2.58,0.88
		c-2.09,0-3.33-1.23-3.33-3.68c0-2.8,1.74-3.8,3.47-3.8c0.84,0,1.64,0.18,2.24,0.53v2.1l-1.46,0.1v-0.76c0-0.22-0.01-0.34-0.22-0.39
		c-0.15-0.04-0.32-0.07-0.49-0.07C109.96,175.21,109.37,175.91,109.37,177.41z"/>
	<path class="st2" d="M119.83,175.74c0,2-1.75,2.52-3.95,2.45c0.07,0.81,0.5,1.48,1.58,1.48c0.78,0,1.37-0.29,1.76-0.56l0.56,1.33
		c-0.18,0.11-1.13,0.73-2.58,0.73c-2.4,0-3.31-1.54-3.31-3.56c0-2.14,1.25-3.92,3.54-3.92C118.91,173.7,119.83,174.34,119.83,175.74
		z M117.35,175.11c-0.92,0-1.44,0.84-1.48,1.79c1.4,0.06,2.26-0.18,2.26-1.06C118.12,175.32,117.8,175.11,117.35,175.11z"/>
	<path class="st2" d="M128.27,176.51c0-0.78-0.17-1.25-0.95-1.25c-0.77,0-1.22,0.62-1.22,1.33v3.18l0.63,0.04v1.16h-3.36v-1.11
		l0.45-0.04c0.27-0.04,0.34-0.11,0.34-0.43v-3.89c0-0.29-0.07-0.39-0.34-0.41l-0.46-0.04v-1.18h2.59v0.95h0.03
		c0.38-0.66,1.05-1.13,2.1-1.13c1.39,0,2.16,0.71,2.16,2.38v3.7l0.67,0.04v1.16h-3.4v-1.11l0.42-0.04c0.27-0.04,0.35-0.11,0.35-0.46
		V176.51z"/>
	<path class="st2" d="M138.02,179.44c0,0.28,0.07,0.38,0.31,0.39l0.39,0.03v1.12h-2.27l-0.06-0.7l-0.06-0.01
		c-0.34,0.52-0.97,0.9-1.86,0.9c-2.07,0-2.8-1.51-2.8-3.42c0-2.47,1.23-4.05,3.77-4.05c0.49,0,1.51,0.1,2.58,0.5V179.44z
		 M136.09,175.28c-0.18-0.07-0.52-0.14-0.87-0.14c-1.22,0-1.57,1.18-1.57,2.51c0,1.08,0.25,2.09,1.26,2.09
		c0.77,0,1.18-0.52,1.18-1.08V175.28z"/>
	<path class="st2" d="M139.37,174.03c1.01-0.18,1.39-0.92,1.68-1.76h1.08v1.61h1.74l-0.07,1.36h-1.67v3.35
		c0,0.83,0.29,1.05,0.85,1.05c0.38,0,0.71-0.11,0.94-0.24l0.32,1.33c-0.39,0.27-1.06,0.45-1.79,0.45c-2.19,0-2.3-1.32-2.3-2.51
		v-3.43h-0.95L139.37,174.03z"/>
	<path class="st2" d="M151.35,179.37c0,0.32,0.04,0.41,0.31,0.45l0.38,0.04v1.12h-2.48v-0.9h-0.04c-0.41,0.71-1.13,1.09-2.07,1.09
		c-1.44,0-2.17-0.8-2.17-2.38v-3.29c0-0.32-0.1-0.39-0.34-0.41l-0.39-0.04v-1.18h2.69v4.5c0,0.83,0.15,1.25,0.92,1.25
		c0.73,0,1.25-0.57,1.25-1.37v-2.75c0-0.29-0.07-0.39-0.34-0.41l-0.34-0.03v-1.19h2.62V179.37z"/>
	<path class="st2" d="M155.5,176.57v3.19l1.16,0.06v1.16h-3.88v-1.11l0.45-0.04c0.29-0.04,0.34-0.14,0.34-0.46v-3.88
		c0-0.28-0.08-0.38-0.32-0.39l-0.48-0.04v-1.18h2.56v1.08h0.03c0.22-0.56,0.83-1.26,1.99-1.26c0.41,0,0.91,0.07,1.29,0.24v2.52
		l-1.58,0.11v-0.92c0-0.22-0.03-0.29-0.13-0.34c-0.08-0.03-0.2-0.04-0.35-0.04C155.91,175.26,155.5,175.82,155.5,176.57z"/>
	<path class="st2" d="M165.28,175.74c0,2-1.75,2.52-3.95,2.45c0.07,0.81,0.5,1.48,1.58,1.48c0.79,0,1.37-0.29,1.77-0.56l0.56,1.33
		c-0.18,0.11-1.13,0.73-2.58,0.73c-2.4,0-3.31-1.54-3.31-3.56c0-2.14,1.25-3.92,3.54-3.92C164.35,173.7,165.28,174.34,165.28,175.74
		z M162.8,175.11c-0.92,0-1.44,0.84-1.49,1.79c1.4,0.06,2.25-0.18,2.25-1.06C163.57,175.32,163.25,175.11,162.8,175.11z"/>
	<path class="st2" d="M170.9,177.41c0,1.34,0.48,2.2,1.6,2.2c0.52,0,1.06-0.2,1.61-0.6l0.71,1.29c-0.6,0.49-1.5,0.88-2.58,0.88
		c-2.09,0-3.33-1.23-3.33-3.68c0-2.8,1.74-3.8,3.47-3.8c0.84,0,1.64,0.18,2.24,0.53v2.1l-1.46,0.1v-0.76c0-0.22-0.01-0.34-0.22-0.39
		c-0.15-0.04-0.32-0.07-0.49-0.07C171.49,175.21,170.9,175.91,170.9,177.41z"/>
	<path class="st2" d="M181.81,179.44c0,0.28,0.07,0.38,0.31,0.39l0.39,0.03v1.12h-2.27l-0.06-0.7l-0.06-0.01
		c-0.34,0.52-0.97,0.9-1.86,0.9c-2.07,0-2.8-1.51-2.8-3.42c0-2.47,1.23-4.05,3.77-4.05c0.49,0,1.51,0.1,2.58,0.5V179.44z
		 M179.88,175.28c-0.18-0.07-0.52-0.14-0.87-0.14c-1.22,0-1.57,1.18-1.57,2.51c0,1.08,0.25,2.09,1.26,2.09
		c0.77,0,1.18-0.52,1.18-1.08V175.28z"/>
	<path class="st2" d="M188.12,176.51c0-0.78-0.17-1.25-0.95-1.25c-0.77,0-1.22,0.62-1.22,1.33v3.18l0.63,0.04v1.16h-3.36v-1.11
		l0.45-0.04c0.27-0.04,0.34-0.11,0.34-0.43v-3.89c0-0.29-0.07-0.39-0.34-0.41l-0.46-0.04v-1.18h2.59v0.95h0.03
		c0.38-0.66,1.05-1.13,2.1-1.13c1.39,0,2.16,0.71,2.16,2.38v3.7l0.67,0.04v1.16h-3.4v-1.11l0.42-0.04c0.27-0.04,0.35-0.11,0.35-0.46
		V176.51z"/>
	<path class="st2" d="M197.66,173.7c1.06,0,3.19,0.31,3.19,3.56c0,2.73-1.4,3.92-3.42,3.92c-2,0-3.17-1.16-3.17-3.73
		C194.27,174.48,196.17,173.7,197.66,173.7z M198.81,177.46c0-1.51-0.29-2.31-1.25-2.31c-0.91,0-1.26,0.78-1.26,2.07
		c0,1.27,0.17,2.48,1.25,2.48C198.46,179.71,198.81,178.86,198.81,177.46z"/>
	<path class="st2" d="M204.49,179.79l0.84,0.06v1.13h-3.56v-1.11l0.43-0.04c0.27-0.04,0.34-0.11,0.34-0.46v-4.16h-0.94v-1.33h0.94
		v-0.39c0-1.36,0.53-2.49,2.38-2.49c0.57,0,1.3,0.18,1.68,0.39l-0.35,1.29c-0.29-0.15-0.6-0.22-0.91-0.22
		c-0.62,0-0.85,0.32-0.85,1.04v0.39h2.31v-0.46c0-1.37,0.46-2.58,2.42-2.58c0.71,0,1.53,0.22,2.07,0.5l-0.46,1.26
		c-0.42-0.2-0.81-0.29-1.19-0.29c-0.6,0-0.9,0.31-0.9,1.05v0.52h1.88v1.33h-1.88v4.55l1.12,0.06v1.16h-3.77v-1.11l0.36-0.04
		c0.27-0.04,0.34-0.11,0.34-0.46v-4.16h-2.31V179.79z"/>
	<path class="st2" d="M216.95,175.74c0,2-1.75,2.52-3.95,2.45c0.07,0.81,0.5,1.48,1.58,1.48c0.79,0,1.37-0.29,1.77-0.56l0.56,1.33
		c-0.18,0.11-1.13,0.73-2.58,0.73c-2.4,0-3.31-1.54-3.31-3.56c0-2.14,1.25-3.92,3.54-3.92C216.03,173.7,216.95,174.34,216.95,175.74
		z M214.47,175.11c-0.92,0-1.44,0.84-1.49,1.79c1.4,0.06,2.25-0.18,2.25-1.06C215.24,175.32,214.92,175.11,214.47,175.11z"/>
	<path class="st2" d="M220.48,176.57v3.19l1.16,0.06v1.16h-3.88v-1.11l0.45-0.04c0.29-0.04,0.34-0.14,0.34-0.46v-3.88
		c0-0.28-0.08-0.38-0.32-0.39l-0.48-0.04v-1.18h2.56v1.08h0.03c0.22-0.56,0.83-1.26,1.99-1.26c0.41,0,0.91,0.07,1.29,0.24v2.52
		l-1.58,0.11v-0.92c0-0.22-0.03-0.29-0.13-0.34c-0.08-0.03-0.2-0.04-0.35-0.04C220.88,175.26,220.48,175.82,220.48,176.57z"/>
	<path class="st2" d="M225.07,179.06c0.73,0,1.12,0.42,1.12,1.04c0,0.6-0.36,1.06-1.08,1.06c-0.77,0-1.13-0.43-1.13-1.05
		C223.98,179.51,224.38,179.06,225.07,179.06z"/>
</g>
</svg>
