<?xml version="1.0" encoding="utf-8"?>
<!-- Generator: Adobe Illustrator 25.0.0, SVG Export Plug-In . SVG Version: 6.00 Build 0)  -->
<svg version="1.1" id="Layer_1" xmlns="http://www.w3.org/2000/svg" xmlns:xlink="http://www.w3.org/1999/xlink" x="0px" y="0px"
	 viewBox="0 0 288 288" style="enable-background:new 0 0 288 288;" xml:space="preserve">
<style type="text/css">
	.st0{opacity:0.5;fill:#030302;stroke:#875730;stroke-width:7;stroke-miterlimit:10;}
	.st1{fill:none;stroke:#875730;stroke-width:7;stroke-miterlimit:10;}
	.st2{fill:#FFFFFF;}
</style>
<circle class="st0" cx="143.75" cy="144" r="126.66"/>
<circle class="st1" cx="143.92" cy="144" r="126.66"/>
<g>
	<path class="st2" d="M55.27,115.09c-2.58,0-4.09-1.62-4.09-4.82c0-3.59,2.23-4.85,4.26-4.85c2.14,0,4.01,1.3,4.01,4.85
		C59.45,113.47,57.81,115.09,55.27,115.09z M55.37,113.4c1.6,0,2-1.51,2-3.08c0-1.3-0.32-3.18-2.05-3.18
		c-1.57,0-2.07,1.51-2.07,3.05C53.26,111.66,53.56,113.4,55.37,113.4z"/>
	<path class="st2" d="M65.24,110.44c0-0.78-0.17-1.25-0.95-1.25c-0.77,0-1.22,0.62-1.22,1.33v3.18l0.63,0.04v1.16h-3.36v-1.11
		l0.45-0.04c0.27-0.04,0.34-0.11,0.34-0.43v-3.89c0-0.29-0.07-0.39-0.34-0.41l-0.46-0.04v-1.18h2.59v0.95h0.03
		c0.38-0.66,1.05-1.13,2.1-1.13c1.39,0,2.16,0.71,2.16,2.38v3.7l0.67,0.04v1.16h-3.4v-1.11l0.42-0.04c0.27-0.04,0.35-0.11,0.35-0.46
		V110.44z"/>
	<path class="st2" d="M77.72,113.37c0,0.28,0.07,0.38,0.31,0.39l0.39,0.03v1.12h-2.27l-0.06-0.7l-0.06-0.01
		c-0.34,0.52-0.97,0.9-1.86,0.9c-2.07,0-2.8-1.51-2.8-3.42c0-2.47,1.23-4.05,3.77-4.05c0.49,0,1.51,0.1,2.58,0.5V113.37z
		 M75.78,109.21c-0.18-0.07-0.52-0.14-0.87-0.14c-1.22,0-1.57,1.18-1.57,2.51c0,1.08,0.25,2.09,1.26,2.09
		c0.77,0,1.18-0.52,1.18-1.08V109.21z"/>
	<path class="st2" d="M86.34,107.81v1.16L86,109c-0.24,0.04-0.34,0.08-0.45,0.41l-1.92,5.5h-2.23l-2.06-5.85l-0.66-0.08v-1.16h3.47
		V109l-0.42,0.04c-0.22,0.03-0.29,0.15-0.22,0.38l1.12,3.67h0.01l1.3-4.03l-0.6-0.04v-1.21H86.34z"/>
	<path class="st2" d="M92.57,109.67c0,2-1.75,2.52-3.95,2.45c0.07,0.81,0.5,1.48,1.58,1.48c0.78,0,1.37-0.29,1.76-0.56l0.56,1.33
		c-0.18,0.11-1.13,0.73-2.58,0.73c-2.4,0-3.31-1.54-3.31-3.56c0-2.14,1.25-3.92,3.54-3.92C91.65,107.63,92.57,108.27,92.57,109.67z
		 M90.09,109.04c-0.92,0-1.44,0.84-1.48,1.79c1.4,0.06,2.26-0.18,2.26-1.06C90.86,109.25,90.54,109.04,90.09,109.04z"/>
	<path class="st2" d="M96.1,110.5v3.19l1.16,0.06v1.16h-3.88v-1.11l0.45-0.04c0.29-0.04,0.34-0.14,0.34-0.46v-3.88
		c0-0.28-0.08-0.38-0.32-0.39l-0.48-0.04v-1.18h2.56v1.08h0.03c0.22-0.56,0.83-1.26,1.99-1.26c0.41,0,0.91,0.07,1.29,0.24v2.52
		l-1.58,0.11v-0.92c0-0.22-0.03-0.29-0.13-0.34c-0.08-0.03-0.2-0.04-0.35-0.04C96.5,109.19,96.1,109.75,96.1,110.5z"/>
	<path class="st2" d="M106.26,113.37c0,0.28,0.07,0.38,0.31,0.39l0.39,0.03v1.12h-2.27l-0.06-0.7l-0.06-0.01
		c-0.34,0.52-0.97,0.9-1.86,0.9c-2.07,0-2.8-1.51-2.8-3.42c0-2.47,1.23-4.05,3.77-4.05c0.49,0,1.51,0.1,2.58,0.5V113.37z
		 M104.33,109.21c-0.18-0.07-0.52-0.14-0.87-0.14c-1.22,0-1.57,1.18-1.57,2.51c0,1.08,0.25,2.09,1.26,2.09
		c0.77,0,1.18-0.52,1.18-1.08V109.21z"/>
	<path class="st2" d="M112.31,113.87c-0.34,0.49-0.97,0.81-1.75,0.81c-1.92,0-2.77-1.34-2.77-3.32c0-2.35,1.33-3.74,3.64-3.74
		c0.63,0,1.71,0.11,2.72,0.52v6.08c0,1.68-0.42,3.68-3.39,3.68c-0.85,0-1.99-0.15-2.58-0.49v-1.96l1.5-0.11v0.63
		c0,0.28,0.06,0.38,0.29,0.45c0.2,0.07,0.43,0.1,0.73,0.1c1.18,0,1.61-0.63,1.61-2.02V113.87z M112.21,109.21
		c-0.29-0.1-0.62-0.15-0.97-0.15c-1.01,0-1.48,0.88-1.48,2.23c0,1.02,0.17,1.99,1.27,1.99c0.74,0,1.18-0.48,1.18-1.19V109.21z"/>
	<path class="st2" d="M121.41,109.67c0,2-1.75,2.52-3.95,2.45c0.07,0.81,0.5,1.48,1.58,1.48c0.78,0,1.37-0.29,1.76-0.56l0.56,1.33
		c-0.18,0.11-1.13,0.73-2.58,0.73c-2.4,0-3.31-1.54-3.31-3.56c0-2.14,1.25-3.92,3.54-3.92
		C120.49,107.63,121.41,108.27,121.41,109.67z M118.93,109.04c-0.92,0-1.44,0.84-1.48,1.79c1.4,0.06,2.26-0.18,2.26-1.06
		C119.7,109.25,119.38,109.04,118.93,109.04z"/>
	<path class="st2" d="M123.65,117.25l-1.02-0.35l0.57-1.79c0.1-0.32,0-0.42-0.28-0.42h-0.46l0.31-1.43c0.29-0.07,0.56-0.1,0.83-0.1
		c0.94-0.01,1.39,0.43,1.4,1.06c0.01,0.28-0.06,0.59-0.24,0.92L123.65,117.25z"/>
	<path class="st2" d="M128.36,114.91v-1.18l0.35-0.04c0.32-0.04,0.39-0.15,0.46-0.42l2.16-6.37l-0.74-0.07v-1.23h3.43l2.83,8.04
		l0.7,0.06v1.22h-3.6v-1.18l0.45-0.04c0.27-0.04,0.32-0.15,0.22-0.42l-0.31-0.88h-2.93l-0.43,1.26l0.71,0.04v1.22H128.36z
		 M131.67,111.06h2.37l-1.15-3.67h-0.06L131.67,111.06z"/>
	<path class="st2" d="M140.76,110.5v3.19l1.16,0.06v1.16h-3.88v-1.11l0.45-0.04c0.29-0.04,0.34-0.14,0.34-0.46v-3.88
		c0-0.28-0.08-0.38-0.32-0.39l-0.48-0.04v-1.18h2.56v1.08h0.03c0.22-0.56,0.83-1.26,1.99-1.26c0.41,0,0.91,0.07,1.29,0.24v2.52
		l-1.58,0.11v-0.92c0-0.22-0.03-0.29-0.13-0.34c-0.08-0.03-0.2-0.04-0.35-0.04C141.16,109.19,140.76,109.75,140.76,110.5z"/>
	<path class="st2" d="M147.36,113.71l0.73,0.04v1.16h-3.46v-1.11l0.46-0.04c0.27-0.04,0.32-0.11,0.32-0.46v-3.87
		c0-0.29-0.07-0.39-0.34-0.41l-0.46-0.04v-1.18h2.75V113.71z M146.19,104.73c0.69,0,1.18,0.42,1.18,1.04c0,0.66-0.49,1.11-1.18,1.11
		c-0.71,0-1.16-0.45-1.16-1.06C145.02,105.2,145.47,104.73,146.19,104.73z"/>
	<path class="st2" d="M154.63,107.81v1.09l-3.58,4.73h1.81c0.28,0,0.39-0.07,0.39-0.39v-0.6l1.47,0.11v2.16h-5.84v-1.12l3.59-4.69
		h-1.64c-0.29,0-0.41,0.07-0.41,0.36v0.63l-1.47-0.11v-2.17H154.63z"/>
	<path class="st2" d="M158.84,107.63c1.06,0,3.19,0.31,3.19,3.56c0,2.73-1.4,3.92-3.42,3.92c-2,0-3.17-1.16-3.17-3.73
		C155.45,108.41,157.36,107.63,158.84,107.63z M159.99,111.39c0-1.51-0.29-2.31-1.25-2.31c-0.91,0-1.26,0.78-1.26,2.07
		c0,1.27,0.17,2.48,1.25,2.48C159.64,113.63,159.99,112.79,159.99,111.39z"/>
	<path class="st2" d="M167.73,110.44c0-0.78-0.17-1.25-0.95-1.25c-0.77,0-1.22,0.62-1.22,1.33v3.18l0.63,0.04v1.16h-3.36v-1.11
		l0.45-0.04c0.27-0.04,0.34-0.11,0.34-0.43v-3.89c0-0.29-0.07-0.39-0.34-0.41l-0.46-0.04v-1.18h2.59v0.95h0.03
		c0.38-0.66,1.05-1.13,2.1-1.13c1.39,0,2.16,0.71,2.16,2.38v3.7l0.67,0.04v1.16h-3.4v-1.11l0.42-0.04c0.27-0.04,0.35-0.11,0.35-0.46
		V110.44z"/>
	<path class="st2" d="M177.48,113.37c0,0.28,0.07,0.38,0.31,0.39l0.39,0.03v1.12h-2.27l-0.06-0.7l-0.06-0.01
		c-0.34,0.52-0.97,0.9-1.86,0.9c-2.07,0-2.8-1.51-2.8-3.42c0-2.47,1.23-4.05,3.77-4.05c0.49,0,1.51,0.1,2.58,0.5V113.37z
		 M175.54,109.21c-0.18-0.07-0.52-0.14-0.87-0.14c-1.22,0-1.57,1.18-1.57,2.51c0,1.08,0.25,2.09,1.26,2.09
		c0.77,0,1.18-0.52,1.18-1.08V109.21z"/>
	<path class="st2" d="M184.33,110.5v3.19l1.16,0.06v1.16h-3.88v-1.11l0.45-0.04c0.29-0.04,0.34-0.14,0.34-0.46v-3.88
		c0-0.28-0.08-0.38-0.32-0.39l-0.48-0.04v-1.18h2.56v1.08h0.03c0.22-0.56,0.83-1.26,1.99-1.26c0.41,0,0.91,0.07,1.29,0.24v2.52
		l-1.58,0.11v-0.92c0-0.22-0.03-0.29-0.13-0.34c-0.08-0.03-0.2-0.04-0.35-0.04C184.74,109.19,184.33,109.75,184.33,110.5z"/>
	<path class="st2" d="M194.11,109.67c0,2-1.75,2.52-3.95,2.45c0.07,0.81,0.5,1.48,1.58,1.48c0.79,0,1.37-0.29,1.77-0.56l0.56,1.33
		c-0.18,0.11-1.13,0.73-2.58,0.73c-2.4,0-3.31-1.54-3.31-3.56c0-2.14,1.25-3.92,3.54-3.92
		C193.18,107.63,194.11,108.27,194.11,109.67z M191.63,109.04c-0.92,0-1.44,0.84-1.49,1.79c1.4,0.06,2.25-0.18,2.25-1.06
		C192.4,109.25,192.08,109.04,191.63,109.04z"/>
	<path class="st2" d="M196.87,111.34c0,1.34,0.48,2.2,1.6,2.2c0.52,0,1.06-0.2,1.61-0.6l0.71,1.29c-0.6,0.49-1.5,0.88-2.58,0.88
		c-2.09,0-3.33-1.23-3.33-3.68c0-2.8,1.74-3.8,3.47-3.8c0.84,0,1.64,0.18,2.24,0.53v2.1l-1.46,0.1v-0.76c0-0.22-0.01-0.34-0.22-0.39
		c-0.15-0.04-0.32-0.07-0.49-0.07C197.45,109.14,196.87,109.84,196.87,111.34z"/>
	<path class="st2" d="M204.24,113.71l0.73,0.04v1.16h-3.46v-1.11l0.46-0.04c0.27-0.04,0.32-0.11,0.32-0.46v-3.87
		c0-0.29-0.07-0.39-0.34-0.41l-0.46-0.04v-1.18h2.75V113.71z M203.07,104.73c0.69,0,1.18,0.42,1.18,1.04c0,0.66-0.49,1.11-1.18,1.11
		c-0.71,0-1.16-0.45-1.16-1.06C201.9,105.2,202.35,104.73,203.07,104.73z"/>
	<path class="st2" d="M211.68,109.67c0,2-1.75,2.52-3.95,2.45c0.07,0.81,0.5,1.48,1.58,1.48c0.79,0,1.37-0.29,1.77-0.56l0.56,1.33
		c-0.18,0.11-1.13,0.73-2.58,0.73c-2.4,0-3.31-1.54-3.31-3.56c0-2.14,1.25-3.92,3.54-3.92
		C210.75,107.63,211.68,108.27,211.68,109.67z M209.2,109.04c-0.92,0-1.44,0.84-1.49,1.79c1.4,0.06,2.25-0.18,2.25-1.06
		C209.97,109.25,209.65,109.04,209.2,109.04z"/>
	<path class="st2" d="M219.88,107.81v1.16l-0.34,0.03c-0.24,0.04-0.34,0.08-0.45,0.41l-1.92,5.5h-2.23l-2.06-5.85l-0.66-0.08v-1.16
		h3.47V109l-0.42,0.04c-0.22,0.03-0.29,0.15-0.22,0.38l1.12,3.67h0.01l1.3-4.03l-0.6-0.04v-1.21H219.88z"/>
	<path class="st2" d="M226.11,109.67c0,2-1.75,2.52-3.95,2.45c0.07,0.81,0.5,1.48,1.58,1.48c0.79,0,1.37-0.29,1.77-0.56l0.56,1.33
		c-0.18,0.11-1.13,0.73-2.58,0.73c-2.4,0-3.31-1.54-3.31-3.56c0-2.14,1.25-3.92,3.54-3.92
		C225.19,107.63,226.11,108.27,226.11,109.67z M223.63,109.04c-0.92,0-1.44,0.84-1.49,1.79c1.4,0.06,2.25-0.18,2.25-1.06
		C224.4,109.25,224.08,109.04,223.63,109.04z"/>
	<path class="st2" d="M230.04,108.96c-0.56,0-0.98,0.24-0.98,0.73c0,0.63,0.6,0.74,1.34,0.97c1.02,0.31,2.13,0.63,2.13,2.09
		c0,1.51-1.15,2.37-2.96,2.37c-0.85,0-1.93-0.18-2.48-0.48v-1.86l1.4-0.11v0.63c0,0.21,0.04,0.29,0.21,0.35
		c0.18,0.07,0.48,0.13,0.76,0.13c0.66,0,1.09-0.21,1.09-0.81c0-0.6-0.55-0.74-1.33-0.92c-1.01-0.27-2.07-0.59-2.07-2.1
		c0-1.5,1.25-2.3,2.93-2.3c0.77,0,1.61,0.17,2.23,0.5v1.75l-1.39,0.11v-0.57c0-0.22-0.03-0.32-0.2-0.38
		C230.52,108.97,230.27,108.96,230.04,108.96z"/>
	<path class="st2" d="M58.58,124.43c1.06,0,3.19,0.31,3.19,3.56c0,2.73-1.4,3.92-3.42,3.92c-2,0-3.17-1.16-3.17-3.73
		C55.19,125.21,57.09,124.43,58.58,124.43z M59.73,128.19c0-1.51-0.29-2.31-1.25-2.31c-0.91,0-1.26,0.78-1.26,2.07
		c0,1.27,0.17,2.48,1.25,2.48C59.38,130.43,59.73,129.59,59.73,128.19z"/>
	<path class="st2" d="M69.85,124.61v1.16l-0.34,0.03c-0.24,0.04-0.34,0.08-0.45,0.41l-1.92,5.5h-2.23l-2.06-5.85l-0.66-0.08v-1.16
		h3.47v1.19l-0.42,0.04c-0.22,0.03-0.29,0.15-0.22,0.38l1.12,3.67h0.01l1.3-4.03l-0.6-0.04v-1.21H69.85z"/>
	<path class="st2" d="M76.08,126.47c0,2-1.75,2.52-3.95,2.45c0.07,0.81,0.5,1.48,1.58,1.48c0.78,0,1.37-0.29,1.76-0.56l0.56,1.33
		c-0.18,0.11-1.13,0.73-2.58,0.73c-2.4,0-3.31-1.54-3.31-3.56c0-2.14,1.25-3.92,3.54-3.92C75.15,124.43,76.08,125.07,76.08,126.47z
		 M73.6,125.84c-0.92,0-1.44,0.84-1.48,1.79c1.4,0.06,2.26-0.18,2.26-1.06C74.37,126.05,74.05,125.84,73.6,125.84z"/>
	<path class="st2" d="M79.6,127.3v3.19l1.16,0.06v1.16h-3.88v-1.11l0.45-0.04c0.29-0.04,0.34-0.14,0.34-0.46v-3.88
		c0-0.28-0.08-0.38-0.32-0.39l-0.48-0.04v-1.18h2.56v1.08h0.03c0.22-0.56,0.83-1.26,1.99-1.26c0.41,0,0.91,0.07,1.29,0.24v2.52
		l-1.58,0.11v-0.92c0-0.22-0.03-0.29-0.13-0.34c-0.08-0.03-0.2-0.04-0.35-0.04C80.01,125.99,79.6,126.55,79.6,127.3z"/>
	<path class="st2" d="M86.45,123.14c0.84-0.41,1.85-0.63,2.91-0.63c1.95,0,2.82,1.01,2.82,2.24c0,1.06-0.59,1.79-1.33,2.26
		c1.06,0.34,1.46,1.11,1.46,2.12c0,1.39-0.95,2.76-3.19,2.76c-1.27,0-2.37-0.36-2.93-0.74l0.57-1.47c0.63,0.35,1.39,0.64,2.17,0.64
		c0.85,0,1.4-0.45,1.4-1.29c0-0.95-0.67-1.18-1.81-1.18h-0.66l0.14-1.3h1.34c0.41-0.24,0.83-0.74,0.83-1.46s-0.45-1.02-1.13-1.02
		c-0.35,0-0.62,0.04-0.81,0.11c-0.21,0.07-0.24,0.17-0.24,0.39v0.8l-1.54-0.11V123.14z"/>
	<path class="st2" d="M94.19,122.69h2.84c0.29,0,0.36-0.1,0.36-0.38v-0.56l1.53,0.11v2.23h-3.18l-0.28,2.14
		c1.82,0.11,3.52,0.87,3.52,2.8c0,1.33-0.83,2.84-3.35,2.84c-1.04,0-2.31-0.41-2.83-0.78l0.59-1.44c0.55,0.29,1.34,0.66,2.19,0.66
		c0.99,0,1.39-0.56,1.39-1.25c0-1.4-2.07-1.55-3.36-1.55L94.19,122.69z"/>
	<path class="st2" d="M106.74,127.11c0,3.36-1.22,4.73-3.38,4.73c-2.2,0-3.32-1.43-3.32-4.68c0-3.24,1.39-4.66,3.42-4.66
		C105.48,122.51,106.74,123.84,106.74,127.11z M104.79,127.14c0-2.37-0.53-3.04-1.37-3.04c-0.9,0-1.4,0.74-1.4,3.21
		c0,2.26,0.49,2.97,1.37,2.97C104.23,130.28,104.79,129.64,104.79,127.14z"/>
	<path class="st2" d="M114.34,127.11c0,3.36-1.22,4.73-3.38,4.73c-2.2,0-3.32-1.43-3.32-4.68c0-3.24,1.39-4.66,3.42-4.66
		C113.08,122.51,114.34,123.84,114.34,127.11z M112.39,127.14c0-2.37-0.53-3.04-1.37-3.04c-0.9,0-1.4,0.74-1.4,3.21
		c0,2.26,0.49,2.97,1.37,2.97C111.83,130.28,112.39,129.64,112.39,127.14z"/>
	<path class="st2" d="M122.73,127.21c0-0.77-0.17-1.22-0.97-1.22c-0.73,0-1.21,0.57-1.21,1.34v3.17l0.64,0.04v1.16h-3.36v-1.11
		l0.42-0.04c0.27-0.04,0.35-0.11,0.35-0.46v-6.75c0-0.29-0.07-0.39-0.34-0.41l-0.46-0.04v-1.18h2.72v3.84
		c0.46-0.85,1.26-1.13,1.99-1.13c1.58,0,2.17,0.91,2.17,2.38v3.7l0.67,0.04v1.16h-3.4v-1.11l0.42-0.04
		c0.27-0.04,0.35-0.11,0.35-0.46V127.21z"/>
	<path class="st2" d="M129.53,124.43c1.06,0,3.19,0.31,3.19,3.56c0,2.73-1.4,3.92-3.42,3.92c-2,0-3.17-1.16-3.17-3.73
		C126.14,125.21,128.04,124.43,129.53,124.43z M130.68,128.19c0-1.51-0.29-2.31-1.25-2.31c-0.91,0-1.26,0.78-1.26,2.07
		c0,1.27,0.17,2.48,1.25,2.48C130.33,130.43,130.68,129.59,130.68,128.19z"/>
	<path class="st2" d="M140.28,130.1c0,0.32,0.04,0.41,0.31,0.45l0.38,0.04v1.12h-2.48v-0.9h-0.04c-0.41,0.71-1.13,1.09-2.07,1.09
		c-1.44,0-2.17-0.8-2.17-2.38v-3.29c0-0.32-0.1-0.39-0.34-0.41l-0.39-0.04v-1.18h2.69v4.5c0,0.83,0.15,1.25,0.92,1.25
		c0.73,0,1.25-0.57,1.25-1.37v-2.75c0-0.29-0.07-0.39-0.34-0.41l-0.34-0.03v-1.19h2.62V130.1z"/>
	<path class="st2" d="M144.44,127.3v3.19l1.16,0.06v1.16h-3.88v-1.11l0.45-0.04c0.29-0.04,0.34-0.14,0.34-0.46v-3.88
		c0-0.28-0.08-0.38-0.32-0.39l-0.48-0.04v-1.18h2.56v1.08h0.03c0.22-0.56,0.83-1.26,1.99-1.26c0.41,0,0.91,0.07,1.29,0.24v2.52
		l-1.58,0.11v-0.92c0-0.22-0.03-0.29-0.13-0.34c-0.08-0.03-0.2-0.04-0.35-0.04C144.85,125.99,144.44,126.55,144.44,127.3z"/>
	<path class="st2" d="M151.34,125.76c-0.56,0-0.98,0.24-0.98,0.73c0,0.63,0.6,0.74,1.34,0.97c1.02,0.31,2.13,0.63,2.13,2.09
		c0,1.51-1.15,2.37-2.96,2.37c-0.85,0-1.93-0.18-2.48-0.48v-1.86l1.4-0.11v0.63c0,0.21,0.04,0.29,0.21,0.35
		c0.18,0.07,0.48,0.13,0.76,0.13c0.66,0,1.09-0.21,1.09-0.81c0-0.6-0.55-0.74-1.33-0.92c-1.01-0.27-2.07-0.59-2.07-2.1
		c0-1.5,1.25-2.3,2.93-2.3c0.77,0,1.61,0.17,2.23,0.5v1.75l-1.39,0.11v-0.57c0-0.22-0.03-0.32-0.2-0.38
		C151.82,125.77,151.56,125.76,151.34,125.76z"/>
	<path class="st2" d="M160.83,124.43c1.06,0,3.19,0.31,3.19,3.56c0,2.73-1.4,3.92-3.42,3.92c-2,0-3.17-1.16-3.17-3.73
		C157.44,125.21,159.35,124.43,160.83,124.43z M161.98,128.19c0-1.51-0.29-2.31-1.25-2.31c-0.91,0-1.26,0.78-1.26,2.07
		c0,1.27,0.17,2.48,1.25,2.48C161.63,130.43,161.98,129.59,161.98,128.19z"/>
	<path class="st2" d="M164.78,124.61h0.94v-0.46c0-1.37,0.46-2.58,2.42-2.58c0.71,0,1.53,0.22,2.07,0.5l-0.46,1.26
		c-0.42-0.2-0.81-0.29-1.19-0.29c-0.6,0-0.9,0.31-0.9,1.05v0.52h1.88v1.33h-1.88v4.55l1.12,0.06v1.16h-3.84v-1.11l0.43-0.04
		c0.27-0.04,0.34-0.11,0.34-0.46v-4.16h-0.94V124.61z"/>
	<path class="st2" d="M175.88,125.76c-0.56,0-0.98,0.24-0.98,0.73c0,0.63,0.6,0.74,1.34,0.97c1.02,0.31,2.13,0.63,2.13,2.09
		c0,1.51-1.15,2.37-2.96,2.37c-0.85,0-1.93-0.18-2.48-0.48v-1.86l1.4-0.11v0.63c0,0.21,0.04,0.29,0.21,0.35
		c0.18,0.07,0.48,0.13,0.76,0.13c0.66,0,1.09-0.21,1.09-0.81c0-0.6-0.55-0.74-1.33-0.92c-1.01-0.27-2.07-0.59-2.07-2.1
		c0-1.5,1.25-2.3,2.93-2.3c0.77,0,1.61,0.17,2.23,0.5v1.75l-1.39,0.11v-0.57c0-0.22-0.03-0.32-0.2-0.38
		C176.36,125.77,176.1,125.76,175.88,125.76z"/>
	<path class="st2" d="M185.78,130.1c0,0.32,0.04,0.41,0.31,0.45l0.38,0.04v1.12h-2.48v-0.9h-0.04c-0.41,0.71-1.13,1.09-2.07,1.09
		c-1.44,0-2.17-0.8-2.17-2.38v-3.29c0-0.32-0.1-0.39-0.34-0.41l-0.39-0.04v-1.18h2.69v4.5c0,0.83,0.15,1.25,0.92,1.25
		c0.73,0,1.25-0.57,1.25-1.37v-2.75c0-0.29-0.07-0.39-0.34-0.41l-0.34-0.03v-1.19h2.62V130.1z"/>
	<path class="st2" d="M192.12,127.24c0-0.78-0.17-1.25-0.95-1.25c-0.77,0-1.22,0.62-1.22,1.33v3.18l0.63,0.04v1.16h-3.36v-1.11
		l0.45-0.04c0.27-0.04,0.34-0.11,0.34-0.43v-3.89c0-0.29-0.07-0.39-0.34-0.41l-0.46-0.04v-1.18h2.59v0.95h0.03
		c0.38-0.66,1.05-1.13,2.1-1.13c1.39,0,2.16,0.71,2.16,2.38v3.7l0.67,0.04v1.16h-3.4v-1.11l0.42-0.04c0.27-0.04,0.35-0.11,0.35-0.46
		V127.24z"/>
	<path class="st2" d="M198.56,125.76c-0.56,0-0.98,0.24-0.98,0.73c0,0.63,0.6,0.74,1.34,0.97c1.02,0.31,2.13,0.63,2.13,2.09
		c0,1.51-1.15,2.37-2.96,2.37c-0.85,0-1.93-0.18-2.48-0.48v-1.86l1.4-0.11v0.63c0,0.21,0.04,0.29,0.21,0.35
		c0.18,0.07,0.48,0.13,0.76,0.13c0.66,0,1.09-0.21,1.09-0.81c0-0.6-0.55-0.74-1.33-0.92c-1.01-0.27-2.07-0.59-2.07-2.1
		c0-1.5,1.25-2.3,2.93-2.3c0.77,0,1.61,0.17,2.23,0.5v1.75l-1.39,0.11v-0.57c0-0.22-0.03-0.32-0.2-0.38
		C199.04,125.77,198.78,125.76,198.56,125.76z"/>
	<path class="st2" d="M206.68,127.21c0-0.77-0.17-1.22-0.97-1.22c-0.73,0-1.21,0.57-1.21,1.34v3.17l0.64,0.04v1.16h-3.36v-1.11
		l0.42-0.04c0.27-0.04,0.35-0.11,0.35-0.46v-6.75c0-0.29-0.07-0.39-0.34-0.41l-0.46-0.04v-1.18h2.72v3.84
		c0.46-0.85,1.26-1.13,1.99-1.13c1.58,0,2.17,0.91,2.17,2.38v3.7l0.67,0.04v1.16h-3.4v-1.11l0.42-0.04
		c0.27-0.04,0.35-0.11,0.35-0.46V127.21z"/>
	<path class="st2" d="M212.75,130.5l0.73,0.04v1.16h-3.46v-1.11l0.46-0.04c0.27-0.04,0.32-0.11,0.32-0.46v-3.87
		c0-0.29-0.07-0.39-0.34-0.41l-0.46-0.04v-1.18h2.75V130.5z M211.58,121.53c0.69,0,1.18,0.42,1.18,1.04c0,0.66-0.49,1.11-1.18,1.11
		c-0.71,0-1.16-0.45-1.16-1.06C210.42,122,210.86,121.53,211.58,121.53z"/>
	<path class="st2" d="M219.07,127.24c0-0.78-0.17-1.25-0.95-1.25c-0.77,0-1.22,0.62-1.22,1.33v3.18l0.63,0.04v1.16h-3.36v-1.11
		l0.45-0.04c0.27-0.04,0.34-0.11,0.34-0.43v-3.89c0-0.29-0.07-0.39-0.34-0.41l-0.46-0.04v-1.18h2.59v0.95h0.03
		c0.38-0.66,1.05-1.13,2.1-1.13c1.39,0,2.16,0.71,2.16,2.38v3.7l0.67,0.04v1.16h-3.4v-1.11l0.42-0.04c0.27-0.04,0.35-0.11,0.35-0.46
		V127.24z"/>
	<path class="st2" d="M228.41,126.47c0,2-1.75,2.52-3.95,2.45c0.07,0.81,0.5,1.48,1.58,1.48c0.79,0,1.37-0.29,1.77-0.56l0.56,1.33
		c-0.18,0.11-1.13,0.73-2.58,0.73c-2.4,0-3.31-1.54-3.31-3.56c0-2.14,1.25-3.92,3.54-3.92
		C227.48,124.43,228.41,125.07,228.41,126.47z M225.93,125.84c-0.92,0-1.44,0.84-1.49,1.79c1.4,0.06,2.25-0.18,2.25-1.06
		C226.7,126.05,226.38,125.84,225.93,125.84z"/>
	<path class="st2" d="M76.04,146.97c0,0.28,0.07,0.38,0.31,0.39l0.39,0.03v1.12h-2.27l-0.06-0.7l-0.06-0.01
		c-0.34,0.52-0.97,0.9-1.86,0.9c-2.07,0-2.8-1.51-2.8-3.42c0-2.46,1.23-4.05,3.77-4.05c0.49,0,1.51,0.1,2.58,0.5V146.97z
		 M74.11,142.81c-0.18-0.07-0.52-0.14-0.87-0.14c-1.22,0-1.57,1.18-1.57,2.51c0,1.08,0.25,2.09,1.26,2.09
		c0.77,0,1.18-0.52,1.18-1.08V142.81z"/>
	<path class="st2" d="M82.36,144.04c0-0.78-0.17-1.25-0.95-1.25c-0.77,0-1.22,0.62-1.22,1.33v3.18l0.63,0.04v1.16h-3.36v-1.11
		l0.45-0.04c0.27-0.04,0.34-0.11,0.34-0.43v-3.89c0-0.29-0.07-0.39-0.34-0.41l-0.46-0.04v-1.18h2.59v0.95h0.03
		c0.38-0.66,1.05-1.13,2.1-1.13c1.39,0,2.16,0.71,2.16,2.38v3.7l0.67,0.04v1.16h-3.4v-1.11l0.42-0.04c0.27-0.04,0.35-0.11,0.35-0.46
		V144.04z"/>
	<path class="st2" d="M90.57,144.04c0-0.78-0.17-1.25-0.95-1.25c-0.77,0-1.22,0.62-1.22,1.33v3.18l0.63,0.04v1.16h-3.36v-1.11
		l0.45-0.04c0.27-0.04,0.34-0.11,0.34-0.43v-3.89c0-0.29-0.07-0.39-0.34-0.41l-0.46-0.04v-1.18h2.59v0.95h0.03
		c0.38-0.66,1.05-1.13,2.1-1.13c1.39,0,2.16,0.71,2.16,2.38v3.7l0.67,0.04v1.16h-3.4v-1.11l0.42-0.04c0.27-0.04,0.35-0.11,0.35-0.46
		V144.04z"/>
	<path class="st2" d="M100.65,146.9c0,0.32,0.04,0.41,0.31,0.45l0.38,0.04v1.12h-2.48v-0.9h-0.04c-0.41,0.71-1.13,1.09-2.07,1.09
		c-1.44,0-2.17-0.8-2.17-2.38v-3.29c0-0.32-0.1-0.39-0.34-0.41l-0.39-0.04v-1.18h2.69v4.5c0,0.83,0.15,1.25,0.92,1.25
		c0.73,0,1.25-0.57,1.25-1.37v-2.75c0-0.29-0.07-0.39-0.34-0.41l-0.34-0.03v-1.19h2.62V146.9z"/>
	<path class="st2" d="M108.52,146.97c0,0.28,0.07,0.38,0.31,0.39l0.39,0.03v1.12h-2.27l-0.06-0.7l-0.06-0.01
		c-0.34,0.52-0.97,0.9-1.86,0.9c-2.07,0-2.8-1.51-2.8-3.42c0-2.46,1.23-4.05,3.77-4.05c0.49,0,1.51,0.1,2.58,0.5V146.97z
		 M106.59,142.81c-0.18-0.07-0.52-0.14-0.87-0.14c-1.22,0-1.57,1.18-1.57,2.51c0,1.08,0.25,2.09,1.26,2.09
		c0.77,0,1.18-0.52,1.18-1.08V142.81z"/>
	<path class="st2" d="M112.64,147.3l0.73,0.04v1.16h-3.45v-1.11l0.45-0.06c0.27-0.04,0.32-0.1,0.32-0.45v-6.75
		c0-0.29-0.07-0.39-0.34-0.41l-0.46-0.04v-1.18h2.75V147.3z"/>
	<path class="st2" d="M118.43,148.55c-0.71,1.91-1.37,3.03-3.07,3.03c-0.69,0-1.4-0.22-1.83-0.49l0.46-1.4
		c0.34,0.15,0.71,0.29,1.23,0.29c0.5,0,0.83-0.31,1.09-1l0.2-0.5l-2.14-5.83l-0.64-0.08v-1.16h3.31v1.18l-0.34,0.04
		c-0.21,0.03-0.29,0.15-0.22,0.39l1.06,3.35h0.04l1.23-3.71l-0.63-0.04v-1.21h3.05v1.16l-0.31,0.03c-0.28,0.04-0.36,0.13-0.46,0.42
		L118.43,148.55z"/>
	<path class="st2" d="M122.02,146.59c0.73,0,1.12,0.42,1.12,1.04c0,0.6-0.36,1.06-1.08,1.06c-0.77,0-1.13-0.43-1.13-1.05
		C120.92,147.04,121.33,146.59,122.02,146.59z"/>
	<path class="st2" d="M126.94,147.33l0.45-0.04c0.27-0.04,0.32-0.11,0.32-0.43v-6.39l-0.74-0.04v-1.23h4.08c2.13,0,3.4,0.99,3.4,2.9
		c0,2.14-1.54,3.22-3.71,3.22h-1.02v1.92l1.29,0.06v1.22h-4.06V147.33z M130.56,143.92c1.11,0,1.82-0.43,1.82-1.67
		c0-1.36-0.7-1.62-1.86-1.62h-0.8v3.29H130.56z"/>
	<path class="st2" d="M140.9,143.27c0,2-1.75,2.52-3.95,2.45c0.07,0.81,0.5,1.49,1.58,1.49c0.78,0,1.37-0.29,1.76-0.56l0.56,1.33
		c-0.18,0.11-1.13,0.73-2.58,0.73c-2.4,0-3.31-1.54-3.31-3.56c0-2.14,1.25-3.92,3.54-3.92C139.98,141.23,140.9,141.87,140.9,143.27z
		 M138.43,142.64c-0.92,0-1.44,0.84-1.48,1.79c1.4,0.06,2.26-0.18,2.26-1.06C139.2,142.85,138.87,142.64,138.43,142.64z"/>
	<path class="st2" d="M144.43,144.1v3.19l1.16,0.06v1.16h-3.88v-1.11l0.45-0.04c0.29-0.04,0.34-0.14,0.34-0.46v-3.88
		c0-0.28-0.08-0.38-0.32-0.39l-0.48-0.04v-1.18h2.56v1.08h0.03c0.22-0.56,0.83-1.26,1.99-1.26c0.41,0,0.91,0.07,1.29,0.24v2.52
		l-1.58,0.11v-0.92c0-0.22-0.03-0.29-0.13-0.34c-0.08-0.03-0.2-0.04-0.35-0.04C144.84,142.79,144.43,143.35,144.43,144.1z"/>
	<path class="st2" d="M148.24,141.41h0.94v-0.46c0-1.37,0.46-2.58,2.42-2.58c0.71,0,1.53,0.22,2.07,0.5l-0.46,1.26
		c-0.42-0.2-0.81-0.29-1.19-0.29c-0.6,0-0.9,0.31-0.9,1.05v0.52H153v1.33h-1.88v4.55l1.12,0.06v1.16h-3.84v-1.11l0.43-0.04
		c0.27-0.04,0.34-0.11,0.34-0.46v-4.16h-0.94V141.41z"/>
	<path class="st2" d="M159.33,143.27c0,2-1.75,2.52-3.95,2.45c0.07,0.81,0.5,1.49,1.58,1.49c0.78,0,1.37-0.29,1.76-0.56l0.56,1.33
		c-0.18,0.11-1.13,0.73-2.58,0.73c-2.4,0-3.31-1.54-3.31-3.56c0-2.14,1.25-3.92,3.54-3.92C158.4,141.23,159.33,141.87,159.33,143.27
		z M156.85,142.64c-0.92,0-1.44,0.84-1.48,1.79c1.4,0.06,2.25-0.18,2.25-1.06C157.62,142.85,157.3,142.64,156.85,142.64z"/>
	<path class="st2" d="M162.08,144.94c0,1.34,0.48,2.2,1.6,2.2c0.52,0,1.06-0.2,1.61-0.6l0.71,1.29c-0.6,0.49-1.5,0.88-2.58,0.88
		c-2.09,0-3.33-1.23-3.33-3.68c0-2.8,1.74-3.8,3.47-3.8c0.84,0,1.64,0.18,2.24,0.53v2.1l-1.46,0.1v-0.76c0-0.22-0.01-0.34-0.22-0.39
		c-0.15-0.04-0.32-0.07-0.49-0.07C162.67,142.74,162.08,143.44,162.08,144.94z"/>
	<path class="st2" d="M166.65,141.56c1.01-0.18,1.39-0.92,1.68-1.77h1.08v1.61h1.74l-0.07,1.36h-1.67v3.35
		c0,0.83,0.29,1.05,0.85,1.05c0.38,0,0.71-0.11,0.94-0.24l0.32,1.33c-0.39,0.27-1.06,0.45-1.79,0.45c-2.19,0-2.3-1.32-2.3-2.51
		v-3.43h-0.95L166.65,141.56z"/>
	<path class="st2" d="M177.47,141.9c0.41-0.43,1.04-0.67,1.72-0.67c1.67,0,2.67,1.13,2.67,3.38c0,2.76-1.3,4.1-3.49,4.1
		c-1.01,0-2.27-0.28-2.86-0.6v-7.97c0-0.27-0.11-0.39-0.35-0.41l-0.45-0.03v-1.18h2.75V141.9z M177.47,147.04
		c0.27,0.13,0.62,0.22,0.99,0.22c0.9,0,1.43-0.7,1.43-2.37c0-1.19-0.25-2.21-1.37-2.21c-0.6,0-1.05,0.36-1.05,0.91V147.04z"/>
	<path class="st2" d="M185.46,147.3l0.73,0.04v1.16h-3.46v-1.11l0.46-0.04c0.27-0.04,0.32-0.11,0.32-0.46v-3.87
		c0-0.29-0.07-0.39-0.34-0.41l-0.46-0.04v-1.18h2.75V147.3z M184.29,138.33c0.69,0,1.18,0.42,1.18,1.04c0,0.66-0.49,1.11-1.18,1.11
		c-0.71,0-1.16-0.45-1.16-1.06C183.12,138.8,183.57,138.33,184.29,138.33z"/>
	<path class="st2" d="M189.55,147.3l0.63,0.04v1.16h-3.35v-1.11l0.45-0.04c0.24-0.04,0.32-0.11,0.32-0.43v-6.78
		c0-0.29-0.06-0.39-0.32-0.41l-0.48-0.04v-1.18h2.75v5.69c0.85-0.11,1.85-0.71,1.85-1.36c0-0.18-0.11-0.22-0.29-0.27l-0.36-0.04
		v-1.13h3.1v1.15l-0.63,0.08c-0.1,0.67-0.48,1.37-1.15,1.92l1.27,2.75l0.76,0.04v1.16h-2.35l-1.34-3.15
		c-0.28,0.11-0.55,0.15-0.84,0.2V147.3z"/>
	<path class="st2" d="M197.35,147.3l0.73,0.04v1.16h-3.46v-1.11l0.46-0.04c0.27-0.04,0.32-0.11,0.32-0.46v-3.87
		c0-0.29-0.07-0.39-0.34-0.41l-0.46-0.04v-1.18h2.75V147.3z M196.17,138.33c0.69,0,1.18,0.42,1.18,1.04c0,0.66-0.49,1.11-1.18,1.11
		c-0.71,0-1.16-0.45-1.16-1.06C195.01,138.8,195.46,138.33,196.17,138.33z"/>
	<path class="st2" d="M203.66,144.04c0-0.78-0.17-1.25-0.95-1.25c-0.77,0-1.22,0.62-1.22,1.33v3.18l0.63,0.04v1.16h-3.36v-1.11
		l0.45-0.04c0.27-0.04,0.34-0.11,0.34-0.43v-3.89c0-0.29-0.07-0.39-0.34-0.41l-0.46-0.04v-1.18h2.59v0.95h0.03
		c0.38-0.66,1.05-1.13,2.1-1.13c1.39,0,2.16,0.71,2.16,2.38v3.7l0.67,0.04v1.16h-3.4v-1.11l0.42-0.04c0.27-0.04,0.35-0.11,0.35-0.46
		V144.04z"/>
	<path class="st2" d="M211.62,147.47c-0.34,0.49-0.97,0.81-1.75,0.81c-1.92,0-2.77-1.34-2.77-3.32c0-2.35,1.33-3.74,3.64-3.74
		c0.63,0,1.71,0.11,2.72,0.52v6.08c0,1.68-0.42,3.68-3.39,3.68c-0.85,0-1.99-0.15-2.58-0.49v-1.96l1.5-0.11v0.63
		c0,0.28,0.06,0.38,0.29,0.45c0.2,0.07,0.43,0.1,0.73,0.1c1.18,0,1.61-0.63,1.61-2.02V147.47z M211.52,142.81
		c-0.29-0.1-0.62-0.15-0.97-0.15c-1.01,0-1.48,0.88-1.48,2.23c0,1.02,0.17,1.99,1.27,1.99c0.74,0,1.18-0.48,1.18-1.19V142.81z"/>
	<path class="st2" d="M69.61,158.36c1.01-0.18,1.39-0.92,1.68-1.76h1.08v1.61h1.74l-0.07,1.36h-1.67v3.35
		c0,0.83,0.29,1.05,0.85,1.05c0.38,0,0.71-0.11,0.94-0.24l0.32,1.33c-0.39,0.27-1.06,0.45-1.79,0.45c-2.19,0-2.3-1.32-2.3-2.51
		v-3.43h-0.95L69.61,158.36z"/>
	<path class="st2" d="M79.95,160.81c0-0.77-0.17-1.22-0.97-1.22c-0.73,0-1.21,0.58-1.21,1.34v3.17l0.64,0.04v1.16h-3.36v-1.11
		l0.42-0.04c0.27-0.04,0.35-0.11,0.35-0.46v-6.75c0-0.29-0.07-0.39-0.34-0.41l-0.46-0.04v-1.18h2.72v3.84
		c0.46-0.85,1.26-1.13,1.99-1.13c1.58,0,2.17,0.91,2.17,2.38v3.7l0.67,0.04v1.16h-3.4v-1.11l0.42-0.04
		c0.27-0.04,0.35-0.11,0.35-0.46V160.81z"/>
	<path class="st2" d="M85.98,160.9v3.19l1.16,0.06v1.16h-3.88v-1.11l0.45-0.04c0.29-0.04,0.34-0.14,0.34-0.46v-3.88
		c0-0.28-0.08-0.38-0.32-0.39l-0.48-0.04v-1.18h2.56v1.08h0.03c0.22-0.56,0.83-1.26,1.99-1.26c0.41,0,0.91,0.07,1.29,0.24v2.52
		l-1.58,0.11v-0.92c0-0.22-0.03-0.29-0.13-0.34c-0.08-0.03-0.2-0.04-0.35-0.04C86.39,159.59,85.98,160.15,85.98,160.9z"/>
	<path class="st2" d="M93.22,158.03c1.06,0,3.19,0.31,3.19,3.56c0,2.73-1.4,3.92-3.42,3.92c-2,0-3.17-1.16-3.17-3.73
		C89.83,158.81,91.73,158.03,93.22,158.03z M94.37,161.79c0-1.51-0.29-2.31-1.25-2.31c-0.91,0-1.26,0.78-1.26,2.07
		c0,1.27,0.17,2.48,1.25,2.48C94.02,164.03,94.37,163.19,94.37,161.79z"/>
	<path class="st2" d="M103.97,163.7c0,0.32,0.04,0.41,0.31,0.45l0.38,0.04v1.12h-2.48v-0.9h-0.04c-0.41,0.71-1.13,1.09-2.07,1.09
		c-1.44,0-2.17-0.8-2.17-2.38v-3.29c0-0.32-0.1-0.39-0.34-0.41l-0.39-0.04v-1.18h2.69v4.5c0,0.83,0.15,1.25,0.92,1.25
		c0.73,0,1.25-0.57,1.25-1.37v-2.75c0-0.29-0.07-0.39-0.34-0.41l-0.34-0.03v-1.19h2.62V163.7z"/>
	<path class="st2" d="M110.05,164.27c-0.34,0.49-0.97,0.81-1.75,0.81c-1.92,0-2.77-1.34-2.77-3.32c0-2.35,1.33-3.74,3.64-3.74
		c0.63,0,1.71,0.11,2.72,0.52v6.08c0,1.68-0.42,3.68-3.39,3.68c-0.85,0-1.99-0.15-2.58-0.49v-1.96l1.5-0.11v0.63
		c0,0.28,0.06,0.38,0.29,0.45c0.2,0.07,0.43,0.1,0.73,0.1c1.18,0,1.61-0.63,1.61-2.02V164.27z M109.95,159.61
		c-0.29-0.1-0.62-0.15-0.97-0.15c-1.01,0-1.48,0.88-1.48,2.23c0,1.02,0.17,1.99,1.27,1.99c0.74,0,1.18-0.48,1.18-1.19V159.61z"/>
	<path class="st2" d="M117.97,160.81c0-0.77-0.17-1.22-0.97-1.22c-0.73,0-1.21,0.58-1.21,1.34v3.17l0.64,0.04v1.16h-3.36v-1.11
		l0.42-0.04c0.27-0.04,0.35-0.11,0.35-0.46v-6.75c0-0.29-0.07-0.39-0.34-0.41l-0.46-0.04v-1.18h2.72v3.84
		c0.46-0.85,1.26-1.13,1.99-1.13c1.58,0,2.17,0.91,2.17,2.38v3.7l0.67,0.04v1.16h-3.4v-1.11l0.42-0.04
		c0.27-0.04,0.35-0.11,0.35-0.46V160.81z"/>
	<path class="st2" d="M124.75,159.82c0-0.27-0.11-0.39-0.34-0.41l-0.46-0.03v-1.18h2.59v0.87h0.03c0.43-0.77,1.22-1.05,2-1.05
		c1.64,0,2.52,1.26,2.52,3.52c0,2.45-1.02,3.96-3,3.96c-0.5,0-1.02-0.14-1.4-0.35v1.82l1.2,0.07v1.16h-3.92v-1.11l0.43-0.06
		c0.27-0.04,0.34-0.1,0.34-0.45V159.82z M126.71,163.71c0.28,0.21,0.69,0.34,1.04,0.34c1.05,0,1.37-1,1.37-2.27
		c0-1.15-0.21-2.27-1.23-2.27c-0.81,0-1.18,0.64-1.18,1.09V163.71z"/>
	<path class="st2" d="M134.59,160.9v3.19l1.16,0.06v1.16h-3.88v-1.11l0.45-0.04c0.29-0.04,0.34-0.14,0.34-0.46v-3.88
		c0-0.28-0.08-0.38-0.32-0.39l-0.48-0.04v-1.18h2.56v1.08h0.03c0.22-0.56,0.83-1.26,1.99-1.26c0.41,0,0.91,0.07,1.29,0.24v2.52
		l-1.58,0.11v-0.92c0-0.22-0.03-0.29-0.13-0.34c-0.08-0.03-0.2-0.04-0.35-0.04C135,159.59,134.59,160.15,134.59,160.9z"/>
	<path class="st2" d="M141.2,164.1l0.73,0.04v1.16h-3.46v-1.11l0.46-0.04c0.27-0.04,0.32-0.11,0.32-0.46v-3.87
		c0-0.29-0.07-0.39-0.34-0.41l-0.46-0.04v-1.18h2.75V164.1z M140.02,155.13c0.69,0,1.18,0.42,1.18,1.04c0,0.66-0.49,1.11-1.18,1.11
		c-0.71,0-1.16-0.45-1.16-1.06C138.86,155.6,139.31,155.13,140.02,155.13z"/>
	<path class="st2" d="M145.73,159.36c-0.56,0-0.98,0.24-0.98,0.73c0,0.63,0.6,0.74,1.34,0.97c1.02,0.31,2.13,0.63,2.13,2.09
		c0,1.51-1.15,2.37-2.96,2.37c-0.85,0-1.93-0.18-2.48-0.48v-1.86l1.4-0.11v0.63c0,0.21,0.04,0.29,0.21,0.35
		c0.18,0.07,0.48,0.13,0.76,0.13c0.66,0,1.09-0.21,1.09-0.81c0-0.6-0.55-0.74-1.33-0.92c-1.01-0.27-2.07-0.59-2.07-2.1
		c0-1.5,1.25-2.3,2.93-2.3c0.77,0,1.61,0.17,2.23,0.5v1.75l-1.39,0.11v-0.57c0-0.22-0.03-0.32-0.2-0.38
		C146.21,159.37,145.96,159.36,145.73,159.36z"/>
	<path class="st2" d="M148.95,158.36c1.01-0.18,1.39-0.92,1.68-1.76h1.08v1.61h1.74l-0.07,1.36h-1.67v3.35
		c0,0.83,0.29,1.05,0.85,1.05c0.38,0,0.71-0.11,0.94-0.24l0.32,1.33c-0.39,0.27-1.06,0.45-1.79,0.45c-2.19,0-2.3-1.32-2.3-2.51
		v-3.43h-0.95L148.95,158.36z"/>
	<path class="st2" d="M157.2,164.1l0.73,0.04v1.16h-3.46v-1.11l0.46-0.04c0.27-0.04,0.32-0.11,0.32-0.46v-3.87
		c0-0.29-0.07-0.39-0.34-0.41l-0.46-0.04v-1.18h2.75V164.1z M156.02,155.13c0.69,0,1.18,0.42,1.18,1.04c0,0.66-0.49,1.11-1.18,1.11
		c-0.71,0-1.16-0.45-1.16-1.06C154.86,155.6,155.31,155.13,156.02,155.13z"/>
	<path class="st2" d="M163.51,160.84c0-0.78-0.17-1.25-0.95-1.25c-0.77,0-1.22,0.62-1.22,1.33v3.18l0.63,0.04v1.16h-3.36v-1.11
		l0.45-0.04c0.27-0.04,0.34-0.11,0.34-0.43v-3.89c0-0.29-0.07-0.39-0.34-0.41l-0.46-0.04v-1.18h2.59v0.95h0.03
		c0.38-0.66,1.05-1.13,2.1-1.13c1.39,0,2.16,0.71,2.16,2.38v3.7l0.67,0.04v1.16h-3.4v-1.11l0.42-0.04c0.27-0.04,0.35-0.11,0.35-0.46
		V160.84z"/>
	<path class="st2" d="M172.85,160.07c0,2-1.75,2.52-3.95,2.45c0.07,0.81,0.5,1.49,1.58,1.49c0.79,0,1.37-0.29,1.77-0.56l0.56,1.33
		c-0.18,0.11-1.13,0.73-2.58,0.73c-2.4,0-3.31-1.54-3.31-3.56c0-2.14,1.25-3.92,3.54-3.92
		C171.93,158.03,172.85,158.67,172.85,160.07z M170.37,159.44c-0.92,0-1.44,0.84-1.49,1.79c1.4,0.06,2.25-0.18,2.25-1.06
		C171.14,159.65,170.82,159.44,170.37,159.44z"/>
	<path class="st2" d="M176.33,158.36c1.01-0.18,1.39-0.92,1.68-1.76h1.08v1.61h1.74l-0.07,1.36h-1.67v3.35
		c0,0.83,0.29,1.05,0.85,1.05c0.38,0,0.71-0.11,0.94-0.24l0.32,1.33c-0.39,0.27-1.06,0.45-1.79,0.45c-2.19,0-2.3-1.32-2.3-2.51
		v-3.43h-0.95L176.33,158.36z"/>
	<path class="st2" d="M184.54,160.9v3.19l1.16,0.06v1.16h-3.88v-1.11l0.45-0.04c0.29-0.04,0.34-0.14,0.34-0.46v-3.88
		c0-0.28-0.08-0.38-0.32-0.39l-0.48-0.04v-1.18h2.56v1.08h0.03c0.22-0.56,0.83-1.26,1.99-1.26c0.41,0,0.91,0.07,1.29,0.24v2.52
		l-1.58,0.11v-0.92c0-0.22-0.03-0.29-0.13-0.34c-0.08-0.03-0.2-0.04-0.35-0.04C184.95,159.59,184.54,160.15,184.54,160.9z"/>
	<path class="st2" d="M194.71,163.77c0,0.28,0.07,0.38,0.31,0.39l0.39,0.03v1.12h-2.27l-0.06-0.7l-0.06-0.01
		c-0.34,0.52-0.97,0.9-1.86,0.9c-2.07,0-2.8-1.51-2.8-3.42c0-2.46,1.23-4.05,3.77-4.05c0.49,0,1.51,0.1,2.58,0.5V163.77z
		 M192.77,159.61c-0.18-0.07-0.52-0.14-0.87-0.14c-1.22,0-1.57,1.18-1.57,2.51c0,1.08,0.25,2.09,1.26,2.09
		c0.77,0,1.18-0.52,1.18-1.08V159.61z"/>
	<path class="st2" d="M198.88,164.1l0.73,0.04v1.16h-3.46v-1.11l0.46-0.04c0.27-0.04,0.32-0.11,0.32-0.46v-3.87
		c0-0.29-0.07-0.39-0.34-0.41l-0.46-0.04v-1.18h2.75V164.1z M197.7,155.13c0.69,0,1.18,0.42,1.18,1.04c0,0.66-0.49,1.11-1.18,1.11
		c-0.71,0-1.16-0.45-1.16-1.06C196.54,155.6,196.98,155.13,197.7,155.13z"/>
	<path class="st2" d="M202.99,164.1l0.73,0.04v1.16h-3.45v-1.11l0.45-0.06c0.27-0.04,0.32-0.1,0.32-0.45v-6.75
		c0-0.29-0.07-0.39-0.34-0.41l-0.46-0.04v-1.18h2.75V164.1z"/>
	<path class="st2" d="M207.49,159.36c-0.56,0-0.98,0.24-0.98,0.73c0,0.63,0.6,0.74,1.34,0.97c1.02,0.31,2.13,0.63,2.13,2.09
		c0,1.51-1.15,2.37-2.96,2.37c-0.85,0-1.93-0.18-2.48-0.48v-1.86l1.4-0.11v0.63c0,0.21,0.04,0.29,0.21,0.35
		c0.18,0.07,0.48,0.13,0.76,0.13c0.66,0,1.09-0.21,1.09-0.81c0-0.6-0.55-0.74-1.33-0.92c-1.01-0.27-2.07-0.59-2.07-2.1
		c0-1.5,1.25-2.3,2.93-2.3c0.77,0,1.61,0.17,2.23,0.5v1.75l-1.39,0.11v-0.57c0-0.22-0.03-0.32-0.2-0.38
		C207.96,159.37,207.71,159.36,207.49,159.36z"/>
	<path class="st2" d="M212.33,163.5c0.69,0,1.08,0.43,1.08,1c0,0.55-0.38,1.02-1.04,1.02c-0.71,0-1.08-0.46-1.08-1.02
		C211.29,163.98,211.71,163.5,212.33,163.5z M211.49,156.55c0-0.39,0.22-0.73,0.88-0.73c0.67,0,0.9,0.32,0.9,0.76v1.55l-0.31,4.62
		h-1.16l-0.31-4.62V156.55z"/>
</g>
</svg>
