<?xml version="1.0" encoding="utf-8"?>
<!-- Generator: Adobe Illustrator 25.0.0, SVG Export Plug-In . SVG Version: 6.00 Build 0)  -->
<svg version="1.1" id="Layer_1" xmlns="http://www.w3.org/2000/svg" xmlns:xlink="http://www.w3.org/1999/xlink" x="0px" y="0px"
	 viewBox="0 0 288 288" style="enable-background:new 0 0 288 288;" xml:space="preserve">
<style type="text/css">
	.st0{opacity:0.5;fill:#030302;stroke:#875730;stroke-width:7;stroke-miterlimit:10;}
	.st1{fill:none;stroke:#875730;stroke-width:7;stroke-miterlimit:10;}
	.st2{fill:#FFFFFF;}
</style>
<circle class="st0" cx="143.75" cy="144" r="126.66"/>
<circle class="st1" cx="143.92" cy="144" r="126.66"/>
<g>
	<path class="st2" d="M66.73,111.78v-1.18l0.35-0.04c0.32-0.04,0.39-0.15,0.46-0.42l2.16-6.37l-0.74-0.07v-1.23h3.43l2.83,8.04
		l0.7,0.06v1.22h-3.6v-1.18l0.45-0.04c0.27-0.04,0.32-0.15,0.22-0.42l-0.31-0.88h-2.93l-0.43,1.26l0.71,0.04v1.22H66.73z
		 M70.04,107.93h2.37l-1.15-3.67H71.2L70.04,107.93z"/>
	<path class="st2" d="M79.13,107.37v3.19l1.16,0.06v1.16h-3.88v-1.11l0.45-0.04c0.29-0.04,0.34-0.14,0.34-0.46v-3.88
		c0-0.28-0.08-0.38-0.32-0.39l-0.48-0.04v-1.18h2.56v1.08h0.03c0.22-0.56,0.83-1.26,1.99-1.26c0.41,0,0.91,0.07,1.29,0.24v2.52
		l-1.58,0.11v-0.92c0-0.22-0.03-0.29-0.13-0.34c-0.08-0.03-0.2-0.04-0.35-0.04C79.53,106.06,79.13,106.62,79.13,107.37z"/>
	<path class="st2" d="M85.73,110.57l0.73,0.04v1.16H83v-1.11l0.46-0.04c0.27-0.04,0.32-0.11,0.32-0.46v-3.87
		c0-0.29-0.07-0.39-0.34-0.41l-0.46-0.04v-1.18h2.75V110.57z M84.56,101.6c0.69,0,1.18,0.42,1.18,1.04c0,0.66-0.49,1.11-1.18,1.11
		c-0.71,0-1.16-0.45-1.16-1.06C83.4,102.07,83.84,101.6,84.56,101.6z"/>
	<path class="st2" d="M93,104.68v1.09l-3.59,4.73h1.81c0.28,0,0.39-0.07,0.39-0.39v-0.6l1.47,0.11v2.16h-5.84v-1.12l3.59-4.69h-1.64
		c-0.29,0-0.41,0.07-0.41,0.36v0.63l-1.47-0.11v-2.17H93z"/>
	<path class="st2" d="M97.21,104.49c1.06,0,3.19,0.31,3.19,3.56c0,2.73-1.4,3.92-3.42,3.92c-2,0-3.17-1.16-3.17-3.73
		C93.82,105.28,95.73,104.49,97.21,104.49z M98.36,108.26c0-1.51-0.29-2.31-1.25-2.31c-0.91,0-1.26,0.78-1.26,2.07
		c0,1.27,0.17,2.48,1.25,2.48C98.01,110.5,98.36,109.66,98.36,108.26z"/>
	<path class="st2" d="M106.11,107.31c0-0.78-0.17-1.25-0.95-1.25c-0.77,0-1.22,0.62-1.22,1.33v3.18l0.63,0.04v1.16h-3.36v-1.11
		l0.45-0.04c0.27-0.04,0.34-0.11,0.34-0.43v-3.89c0-0.29-0.07-0.39-0.34-0.41l-0.46-0.04v-1.18h2.59v0.95h0.03
		c0.38-0.66,1.05-1.13,2.1-1.13c1.39,0,2.16,0.71,2.16,2.38v3.7l0.67,0.04v1.16h-3.4v-1.11l0.42-0.04c0.27-0.04,0.35-0.11,0.35-0.46
		V107.31z"/>
	<path class="st2" d="M115.85,110.24c0,0.28,0.07,0.38,0.31,0.39l0.39,0.03v1.12h-2.27l-0.06-0.7l-0.06-0.01
		c-0.34,0.52-0.97,0.9-1.86,0.9c-2.07,0-2.8-1.51-2.8-3.42c0-2.47,1.23-4.05,3.77-4.05c0.49,0,1.51,0.1,2.58,0.5V110.24z
		 M113.92,106.08c-0.18-0.07-0.52-0.14-0.87-0.14c-1.22,0-1.57,1.18-1.57,2.51c0,1.08,0.25,2.09,1.26,2.09
		c0.77,0,1.18-0.52,1.18-1.08V106.08z"/>
	<path class="st2" d="M122.08,108.21c0,1.34,0.48,2.2,1.6,2.2c0.52,0,1.06-0.2,1.61-0.6l0.71,1.29c-0.6,0.49-1.5,0.88-2.58,0.88
		c-2.09,0-3.33-1.23-3.33-3.68c0-2.8,1.74-3.8,3.47-3.8c0.84,0,1.64,0.18,2.24,0.53v2.1l-1.46,0.1v-0.76c0-0.22-0.01-0.34-0.22-0.39
		c-0.15-0.04-0.32-0.07-0.49-0.07C122.67,106.01,122.08,106.71,122.08,108.21z"/>
	<path class="st2" d="M130,104.49c1.06,0,3.19,0.31,3.19,3.56c0,2.73-1.4,3.92-3.42,3.92c-2,0-3.17-1.16-3.17-3.73
		C126.61,105.28,128.52,104.49,130,104.49z M131.15,108.26c0-1.51-0.29-2.31-1.25-2.31c-0.91,0-1.26,0.78-1.26,2.07
		c0,1.27,0.17,2.48,1.25,2.48C130.8,110.5,131.15,109.66,131.15,108.26z"/>
	<path class="st2" d="M138.89,107.31c0-0.78-0.17-1.25-0.95-1.25c-0.77,0-1.22,0.62-1.22,1.33v3.18l0.63,0.04v1.16h-3.36v-1.11
		l0.45-0.04c0.27-0.04,0.34-0.11,0.34-0.43v-3.89c0-0.29-0.07-0.39-0.34-0.41l-0.46-0.04v-1.18h2.59v0.95h0.03
		c0.38-0.66,1.05-1.13,2.1-1.13c1.39,0,2.16,0.71,2.16,2.38v3.7l0.67,0.04v1.16h-3.4v-1.11l0.42-0.04c0.27-0.04,0.35-0.11,0.35-0.46
		V107.31z"/>
	<path class="st2" d="M142.15,104.83c1.01-0.18,1.39-0.92,1.68-1.77h1.08v1.61h1.74l-0.07,1.36h-1.67v3.35
		c0,0.83,0.29,1.05,0.85,1.05c0.38,0,0.71-0.11,0.94-0.24l0.32,1.33c-0.39,0.27-1.06,0.45-1.79,0.45c-2.19,0-2.3-1.32-2.3-2.51
		v-3.43h-0.95L142.15,104.83z"/>
	<path class="st2" d="M153.79,110.24c0,0.28,0.07,0.38,0.31,0.39l0.39,0.03v1.12h-2.27l-0.06-0.7l-0.06-0.01
		c-0.34,0.52-0.97,0.9-1.86,0.9c-2.07,0-2.8-1.51-2.8-3.42c0-2.47,1.23-4.05,3.77-4.05c0.49,0,1.51,0.1,2.58,0.5V110.24z
		 M151.86,106.08c-0.18-0.07-0.52-0.14-0.87-0.14c-1.22,0-1.57,1.18-1.57,2.51c0,1.08,0.25,2.09,1.26,2.09
		c0.77,0,1.18-0.52,1.18-1.08V106.08z"/>
	<path class="st2" d="M157.96,110.57l0.73,0.04v1.16h-3.46v-1.11l0.46-0.04c0.27-0.04,0.32-0.11,0.32-0.46v-3.87
		c0-0.29-0.07-0.39-0.34-0.41l-0.46-0.04v-1.18h2.75V110.57z M156.78,101.6c0.69,0,1.18,0.42,1.18,1.04c0,0.66-0.49,1.11-1.18,1.11
		c-0.71,0-1.16-0.45-1.16-1.06C155.62,102.07,156.07,101.6,156.78,101.6z"/>
	<path class="st2" d="M164.27,107.31c0-0.78-0.17-1.25-0.95-1.25c-0.77,0-1.22,0.62-1.22,1.33v3.18l0.63,0.04v1.16h-3.36v-1.11
		l0.45-0.04c0.27-0.04,0.34-0.11,0.34-0.43v-3.89c0-0.29-0.07-0.39-0.34-0.41l-0.46-0.04v-1.18h2.59v0.95h0.03
		c0.38-0.66,1.05-1.13,2.1-1.13c1.39,0,2.16,0.71,2.16,2.38v3.7l0.67,0.04v1.16h-3.4v-1.11l0.42-0.04c0.27-0.04,0.35-0.11,0.35-0.46
		V107.31z"/>
	<path class="st2" d="M170.35,110.57l0.73,0.04v1.16h-3.46v-1.11l0.46-0.04c0.27-0.04,0.32-0.11,0.32-0.46v-3.87
		c0-0.29-0.07-0.39-0.34-0.41l-0.46-0.04v-1.18h2.75V110.57z M169.17,101.6c0.69,0,1.18,0.42,1.18,1.04c0,0.66-0.49,1.11-1.18,1.11
		c-0.71,0-1.16-0.45-1.16-1.06C168.01,102.07,168.46,101.6,169.17,101.6z"/>
	<path class="st2" d="M176.66,107.31c0-0.78-0.17-1.25-0.95-1.25c-0.77,0-1.22,0.62-1.22,1.33v3.18l0.63,0.04v1.16h-3.36v-1.11
		l0.45-0.04c0.27-0.04,0.34-0.11,0.34-0.43v-3.89c0-0.29-0.07-0.39-0.34-0.41l-0.46-0.04v-1.18h2.59v0.95h0.03
		c0.38-0.66,1.05-1.13,2.1-1.13c1.39,0,2.16,0.71,2.16,2.38v3.7l0.67,0.04v1.16h-3.4v-1.11l0.42-0.04c0.27-0.04,0.35-0.11,0.35-0.46
		V107.31z"/>
	<path class="st2" d="M184.62,110.74c-0.34,0.49-0.97,0.81-1.75,0.81c-1.92,0-2.77-1.34-2.77-3.32c0-2.35,1.33-3.74,3.64-3.74
		c0.63,0,1.71,0.11,2.72,0.52v6.08c0,1.68-0.42,3.68-3.39,3.68c-0.85,0-1.99-0.15-2.58-0.49v-1.96l1.5-0.11v0.63
		c0,0.28,0.06,0.38,0.29,0.45c0.2,0.07,0.43,0.1,0.73,0.1c1.18,0,1.61-0.63,1.61-2.02V110.74z M184.52,106.08
		c-0.29-0.1-0.62-0.15-0.97-0.15c-1.01,0-1.48,0.88-1.48,2.23c0,1.02,0.17,1.99,1.27,1.99c0.74,0,1.18-0.48,1.18-1.19V106.08z"/>
	<path class="st2" d="M190.69,103.21c0.84-0.41,1.85-0.63,2.91-0.63c1.95,0,2.82,1.01,2.82,2.24c0,1.06-0.59,1.79-1.33,2.26
		c1.06,0.34,1.46,1.11,1.46,2.12c0,1.39-0.95,2.76-3.19,2.76c-1.27,0-2.37-0.36-2.93-0.74l0.57-1.47c0.63,0.35,1.39,0.64,2.17,0.64
		c0.85,0,1.4-0.45,1.4-1.29c0-0.95-0.67-1.18-1.81-1.18h-0.66l0.14-1.3h1.34c0.41-0.24,0.83-0.74,0.83-1.46s-0.45-1.02-1.13-1.02
		c-0.35,0-0.62,0.04-0.81,0.11c-0.21,0.07-0.24,0.17-0.24,0.39v0.8l-1.54-0.11V103.21z"/>
	<path class="st2" d="M198.96,114.12l-1.02-0.35l0.57-1.79c0.1-0.32,0-0.42-0.28-0.42h-0.46l0.31-1.43c0.29-0.07,0.56-0.1,0.83-0.1
		c0.94-0.01,1.39,0.43,1.4,1.06c0.01,0.28-0.06,0.59-0.24,0.92L198.96,114.12z"/>
	<path class="st2" d="M201.81,110.48c1.79-0.22,2.97-0.94,3.24-2.55c-0.52,0.38-1.2,0.57-1.88,0.57c-1.58,0-2.46-0.97-2.46-2.72
		c0-1.85,1.12-3.21,3.19-3.21c2.24,0,3.08,1.7,3.08,4.03c0,2.51-1.02,4.99-4.79,5.32L201.81,110.48z M203.68,107.1
		c0.6,0,1.08-0.24,1.36-0.5c0.04-1.7-0.28-2.61-1.22-2.61c-0.73,0-1.22,0.59-1.22,1.65C202.6,106.54,202.94,107.1,203.68,107.1z"/>
	<path class="st2" d="M213.69,105.14c0,1.02-0.49,1.82-1.28,2.72l-2.24,2.55h3.88v1.37h-6.28v-1.22l2.89-3.42
		c0.71-0.83,0.95-1.25,0.95-1.9c0-0.78-0.52-1.11-1.23-1.11c-0.38,0-0.63,0.06-0.81,0.1c-0.21,0.07-0.22,0.18-0.22,0.41v0.87
		l-1.54-0.11v-2.19c0.66-0.35,1.7-0.63,2.86-0.63C212.57,102.58,213.69,103.63,213.69,105.14z"/>
	<path class="st2" d="M216.38,107.03c-0.73-0.38-1.39-1.05-1.39-2.04c0-1.37,1.12-2.4,2.96-2.4c2.09,0,2.79,1.05,2.79,2.1
		c0,0.94-0.6,1.72-1.34,2.24c1.06,0.55,1.68,1.29,1.68,2.35c0,1.39-0.97,2.66-3.26,2.66c-2.42,0-3.1-1.33-3.1-2.41
		C214.71,108.26,215.48,107.55,216.38,107.03z M217.67,107.81c-0.59,0.29-1.18,0.83-1.18,1.56c0,0.56,0.36,1.18,1.3,1.18
		c0.84,0,1.23-0.53,1.23-1.21C219.03,108.58,218.34,108.19,217.67,107.81z M216.87,104.85c0,0.56,0.5,1.01,1.22,1.39
		c0.43-0.32,0.92-0.87,0.92-1.44s-0.45-0.94-1.06-0.94C217.29,103.85,216.87,104.28,216.87,104.85z"/>
	<path class="st2" d="M65.1,123.1c0-0.29-0.07-0.39-0.34-0.41l-0.46-0.04v-1.18h2.56v0.97h0.03c0.35-0.66,0.99-1.15,2.06-1.15
		c0.71,0,1.47,0.27,1.88,1.18c0.41-0.74,1.11-1.18,2.07-1.18c1.36,0,2.1,0.78,2.1,2.41v3.67h0.01l0.67,0.04v1.16h-3.4v-1.11
		l0.42-0.04c0.27-0.04,0.35-0.11,0.35-0.45v-2.89c0-0.74-0.15-1.23-0.94-1.23c-0.66,0-1.09,0.56-1.09,1.27v3.24l0.67,0.04v1.16h-3.4
		v-1.11l0.42-0.04c0.27-0.04,0.35-0.11,0.35-0.45v-2.87c0-0.73-0.11-1.25-0.91-1.25c-0.67,0-1.12,0.59-1.12,1.32v3.19l0.64,0.06
		v1.15h-3.36v-1.11l0.45-0.06c0.27-0.04,0.34-0.1,0.34-0.43V123.1z"/>
	<path class="st2" d="M79.85,121.29c1.06,0,3.19,0.31,3.19,3.56c0,2.73-1.4,3.92-3.42,3.92c-2,0-3.17-1.16-3.17-3.73
		C76.46,122.08,78.36,121.29,79.85,121.29z M81,125.06c0-1.51-0.29-2.31-1.25-2.31c-0.91,0-1.26,0.78-1.26,2.07
		c0,1.27,0.17,2.48,1.25,2.48C80.65,127.3,81,126.46,81,125.06z"/>
	<path class="st2" d="M90.6,126.97c0,0.32,0.04,0.41,0.31,0.45l0.38,0.04v1.12h-2.48v-0.9h-0.04c-0.41,0.71-1.13,1.09-2.07,1.09
		c-1.44,0-2.17-0.8-2.17-2.38v-3.29c0-0.32-0.1-0.39-0.34-0.41l-0.39-0.04v-1.18h2.69v4.5c0,0.83,0.15,1.25,0.92,1.25
		c0.73,0,1.25-0.57,1.25-1.37v-2.75c0-0.29-0.07-0.39-0.34-0.41l-0.34-0.03v-1.19h2.62V126.97z"/>
	<path class="st2" d="M96.94,124.11c0-0.78-0.17-1.25-0.95-1.25c-0.77,0-1.22,0.62-1.22,1.33v3.18l0.63,0.04v1.16h-3.36v-1.11
		l0.45-0.04c0.27-0.04,0.34-0.11,0.34-0.43v-3.89c0-0.29-0.07-0.39-0.34-0.41l-0.46-0.04v-1.18h2.59v0.95h0.03
		c0.38-0.66,1.05-1.13,2.1-1.13c1.39,0,2.16,0.71,2.16,2.38v3.7l0.67,0.04v1.16h-3.4v-1.11l0.42-0.04c0.27-0.04,0.35-0.11,0.35-0.46
		V124.11z"/>
	<path class="st2" d="M100.2,121.63c1.01-0.18,1.39-0.92,1.68-1.77h1.08v1.61h1.74l-0.07,1.36h-1.67v3.35
		c0,0.83,0.29,1.05,0.85,1.05c0.38,0,0.71-0.11,0.94-0.24l0.32,1.33c-0.39,0.27-1.06,0.45-1.79,0.45c-2.19,0-2.3-1.32-2.3-2.51
		v-3.43h-0.95L100.2,121.63z"/>
	<path class="st2" d="M111.84,127.04c0,0.28,0.07,0.38,0.31,0.39l0.39,0.03v1.12h-2.27l-0.06-0.7l-0.06-0.01
		c-0.34,0.52-0.97,0.9-1.86,0.9c-2.07,0-2.8-1.51-2.8-3.42c0-2.47,1.23-4.05,3.77-4.05c0.49,0,1.51,0.1,2.58,0.5V127.04z
		 M109.91,122.88c-0.18-0.07-0.52-0.14-0.87-0.14c-1.22,0-1.57,1.18-1.57,2.51c0,1.08,0.25,2.09,1.26,2.09
		c0.77,0,1.18-0.52,1.18-1.08V122.88z"/>
	<path class="st2" d="M116.01,127.37l0.73,0.04v1.16h-3.46v-1.11l0.46-0.04c0.27-0.04,0.32-0.11,0.32-0.46v-3.87
		c0-0.29-0.07-0.39-0.34-0.41l-0.46-0.04v-1.18h2.75V127.37z M114.83,118.4c0.69,0,1.18,0.42,1.18,1.04c0,0.66-0.49,1.11-1.18,1.11
		c-0.71,0-1.16-0.45-1.16-1.06C113.67,118.87,114.12,118.4,114.83,118.4z"/>
	<path class="st2" d="M122.32,124.11c0-0.78-0.17-1.25-0.95-1.25c-0.77,0-1.22,0.62-1.22,1.33v3.18l0.63,0.04v1.16h-3.36v-1.11
		l0.45-0.04c0.27-0.04,0.34-0.11,0.34-0.43v-3.89c0-0.29-0.07-0.39-0.34-0.41l-0.46-0.04v-1.18H120v0.95h0.03
		c0.38-0.66,1.05-1.13,2.1-1.13c1.39,0,2.16,0.71,2.16,2.38v3.7l0.67,0.04v1.16h-3.4v-1.11l0.42-0.04c0.27-0.04,0.35-0.11,0.35-0.46
		V124.11z"/>
	<path class="st2" d="M129.1,123.09c0-0.27-0.11-0.39-0.34-0.41l-0.46-0.03v-1.18h2.59v0.87h0.03c0.43-0.77,1.22-1.05,2-1.05
		c1.64,0,2.52,1.26,2.52,3.52c0,2.45-1.02,3.96-3,3.96c-0.5,0-1.02-0.14-1.4-0.35v1.82l1.2,0.07v1.16h-3.92v-1.11l0.43-0.06
		c0.27-0.04,0.34-0.1,0.34-0.45V123.09z M131.06,126.98c0.28,0.21,0.69,0.34,1.04,0.34c1.05,0,1.37-0.99,1.37-2.27
		c0-1.15-0.21-2.27-1.23-2.27c-0.81,0-1.18,0.64-1.18,1.09V126.98z"/>
	<path class="st2" d="M142.25,123.34c0,2-1.75,2.52-3.95,2.45c0.07,0.81,0.5,1.48,1.58,1.48c0.78,0,1.37-0.29,1.76-0.56l0.56,1.33
		c-0.18,0.11-1.13,0.73-2.58,0.73c-2.4,0-3.31-1.54-3.31-3.56c0-2.14,1.25-3.92,3.54-3.92
		C141.32,121.29,142.25,121.94,142.25,123.34z M139.77,122.71c-0.92,0-1.44,0.84-1.48,1.79c1.4,0.06,2.26-0.18,2.26-1.06
		C140.54,122.92,140.22,122.71,139.77,122.71z"/>
	<path class="st2" d="M149.49,127.04c0,0.28,0.07,0.38,0.31,0.39l0.39,0.03v1.12h-2.27l-0.06-0.7l-0.06-0.01
		c-0.34,0.52-0.97,0.9-1.86,0.9c-2.07,0-2.8-1.51-2.8-3.42c0-2.47,1.23-4.05,3.77-4.05c0.49,0,1.51,0.1,2.58,0.5V127.04z
		 M147.55,122.88c-0.18-0.07-0.52-0.14-0.87-0.14c-1.22,0-1.57,1.18-1.57,2.51c0,1.08,0.25,2.09,1.26,2.09
		c0.77,0,1.18-0.52,1.18-1.08V122.88z"/>
	<path class="st2" d="M153.57,127.37l0.63,0.04v1.16h-3.35v-1.11l0.45-0.04c0.24-0.04,0.32-0.11,0.32-0.43v-6.78
		c0-0.29-0.06-0.39-0.32-0.41l-0.48-0.04v-1.18h2.75v5.69c0.85-0.11,1.85-0.71,1.85-1.36c0-0.18-0.11-0.22-0.29-0.27l-0.36-0.04
		v-1.13h3.1v1.15l-0.63,0.08c-0.1,0.67-0.48,1.37-1.15,1.92l1.27,2.75l0.76,0.04v1.16h-2.35l-1.34-3.15
		c-0.28,0.11-0.55,0.15-0.84,0.2V127.37z"/>
	<path class="st2" d="M161.73,122.63c-0.56,0-0.98,0.24-0.98,0.73c0,0.63,0.6,0.74,1.34,0.97c1.02,0.31,2.13,0.63,2.13,2.09
		c0,1.51-1.15,2.37-2.96,2.37c-0.85,0-1.93-0.18-2.48-0.48v-1.86l1.4-0.11v0.63c0,0.21,0.04,0.29,0.21,0.35
		c0.18,0.07,0.48,0.13,0.76,0.13c0.66,0,1.09-0.21,1.09-0.81c0-0.6-0.55-0.74-1.33-0.92c-1.01-0.27-2.07-0.59-2.07-2.1
		c0-1.5,1.25-2.3,2.93-2.3c0.77,0,1.61,0.17,2.23,0.5v1.75l-1.39,0.11v-0.57c0-0.22-0.03-0.32-0.2-0.38
		C162.21,122.64,161.96,122.63,161.73,122.63z"/>
	<path class="st2" d="M166.44,130.92l-1.02-0.35l0.57-1.79c0.1-0.32,0-0.42-0.28-0.42h-0.46l0.31-1.43c0.29-0.07,0.56-0.1,0.83-0.1
		c0.94-0.01,1.39,0.43,1.4,1.06c0.01,0.28-0.06,0.59-0.24,0.92L166.44,130.92z"/>
	<path class="st2" d="M172.15,123.1c0-0.29-0.07-0.39-0.34-0.41l-0.46-0.04v-1.18h2.56v0.97h0.03c0.35-0.66,0.99-1.15,2.06-1.15
		c0.71,0,1.47,0.27,1.88,1.18c0.41-0.74,1.11-1.18,2.07-1.18c1.36,0,2.1,0.78,2.1,2.41v3.67h0.01l0.67,0.04v1.16h-3.4v-1.11
		l0.42-0.04c0.27-0.04,0.35-0.11,0.35-0.45v-2.89c0-0.74-0.15-1.23-0.94-1.23c-0.66,0-1.09,0.56-1.09,1.27v3.24l0.67,0.04v1.16h-3.4
		v-1.11l0.42-0.04c0.27-0.04,0.35-0.11,0.35-0.45v-2.87c0-0.73-0.11-1.25-0.91-1.25c-0.67,0-1.12,0.59-1.12,1.32v3.19l0.64,0.06
		v1.15h-3.36v-1.11l0.45-0.06c0.27-0.04,0.34-0.1,0.34-0.43V123.1z"/>
	<path class="st2" d="M189.83,127.04c0,0.28,0.07,0.38,0.31,0.39l0.39,0.03v1.12h-2.27l-0.06-0.7l-0.06-0.01
		c-0.34,0.52-0.97,0.9-1.86,0.9c-2.07,0-2.8-1.51-2.8-3.42c0-2.47,1.23-4.05,3.77-4.05c0.49,0,1.51,0.1,2.58,0.5V127.04z
		 M187.9,122.88c-0.18-0.07-0.52-0.14-0.87-0.14c-1.22,0-1.57,1.18-1.57,2.51c0,1.08,0.25,2.09,1.26,2.09
		c0.77,0,1.18-0.52,1.18-1.08V122.88z"/>
	<path class="st2" d="M193.92,127.37l0.63,0.04v1.16h-3.35v-1.11l0.45-0.04c0.24-0.04,0.32-0.11,0.32-0.43v-6.78
		c0-0.29-0.06-0.39-0.32-0.41l-0.48-0.04v-1.18h2.75v5.69c0.85-0.11,1.85-0.71,1.85-1.36c0-0.18-0.11-0.22-0.29-0.27l-0.36-0.04
		v-1.13h3.1v1.15l-0.63,0.08c-0.1,0.67-0.48,1.37-1.15,1.92l1.27,2.75l0.76,0.04v1.16h-2.35l-1.34-3.15
		c-0.28,0.11-0.55,0.15-0.84,0.2V127.37z"/>
	<path class="st2" d="M204.84,123.34c0,2-1.75,2.52-3.95,2.45c0.07,0.81,0.5,1.48,1.58,1.48c0.79,0,1.37-0.29,1.77-0.56l0.56,1.33
		c-0.18,0.11-1.13,0.73-2.58,0.73c-2.4,0-3.31-1.54-3.31-3.56c0-2.14,1.25-3.92,3.54-3.92
		C203.92,121.29,204.84,121.94,204.84,123.34z M202.36,122.71c-0.92,0-1.44,0.84-1.49,1.79c1.4,0.06,2.25-0.18,2.25-1.06
		C203.13,122.92,202.81,122.71,202.36,122.71z"/>
	<path class="st2" d="M208.77,122.63c-0.56,0-0.98,0.24-0.98,0.73c0,0.63,0.6,0.74,1.34,0.97c1.02,0.31,2.13,0.63,2.13,2.09
		c0,1.51-1.15,2.37-2.96,2.37c-0.85,0-1.93-0.18-2.48-0.48v-1.86l1.4-0.11v0.63c0,0.21,0.04,0.29,0.21,0.35
		c0.18,0.07,0.48,0.13,0.76,0.13c0.66,0,1.09-0.21,1.09-0.81c0-0.6-0.55-0.74-1.33-0.92c-1.01-0.27-2.07-0.59-2.07-2.1
		c0-1.5,1.25-2.3,2.93-2.3c0.77,0,1.61,0.17,2.23,0.5v1.75l-1.39,0.11v-0.57c0-0.22-0.03-0.32-0.2-0.38
		C209.25,122.64,209,122.63,208.77,122.63z"/>
	<path class="st2" d="M217.54,127.37l0.73,0.04v1.16h-3.46v-1.11l0.46-0.04c0.27-0.04,0.32-0.11,0.32-0.46v-3.87
		c0-0.29-0.07-0.39-0.34-0.41l-0.46-0.04v-1.18h2.75V127.37z M216.36,118.4c0.69,0,1.18,0.42,1.18,1.04c0,0.66-0.49,1.11-1.18,1.11
		c-0.71,0-1.16-0.45-1.16-1.06C215.2,118.87,215.64,118.4,216.36,118.4z"/>
	<path class="st2" d="M218.89,121.63c1.01-0.18,1.39-0.92,1.68-1.77h1.08v1.61h1.74l-0.07,1.36h-1.67v3.35
		c0,0.83,0.29,1.05,0.85,1.05c0.38,0,0.71-0.11,0.94-0.24l0.32,1.33c-0.39,0.27-1.06,0.45-1.79,0.45c-2.19,0-2.3-1.32-2.3-2.51
		v-3.43h-0.95L218.89,121.63z"/>
	<path class="st2" d="M56.38,139.9c0-0.29-0.07-0.39-0.34-0.41l-0.46-0.04v-1.18h2.56v0.97h0.03c0.35-0.66,0.99-1.15,2.06-1.15
		c0.71,0,1.47,0.27,1.88,1.18c0.41-0.74,1.11-1.18,2.07-1.18c1.36,0,2.1,0.78,2.1,2.41v3.67h0.01l0.67,0.04v1.16h-3.4v-1.11
		l0.42-0.04c0.27-0.04,0.35-0.11,0.35-0.45v-2.89c0-0.74-0.15-1.23-0.94-1.23c-0.66,0-1.09,0.56-1.09,1.27v3.24l0.67,0.04v1.16h-3.4
		v-1.11l0.42-0.04c0.27-0.04,0.35-0.11,0.35-0.45v-2.87c0-0.73-0.11-1.25-0.91-1.25c-0.67,0-1.12,0.59-1.12,1.32v3.19l0.64,0.06
		v1.15h-3.36v-1.11l0.45-0.06c0.27-0.04,0.34-0.1,0.34-0.43V139.9z"/>
	<path class="st2" d="M71.12,138.1c1.06,0,3.19,0.31,3.19,3.56c0,2.73-1.4,3.92-3.42,3.92c-2,0-3.17-1.16-3.17-3.73
		C67.73,138.88,69.63,138.1,71.12,138.1z M72.27,141.86c0-1.51-0.29-2.31-1.25-2.31c-0.91,0-1.26,0.78-1.26,2.07
		c0,1.27,0.17,2.48,1.25,2.48C71.92,144.1,72.27,143.26,72.27,141.86z"/>
	<path class="st2" d="M77.82,140.97v3.19l1.16,0.06v1.16h-3.88v-1.11l0.45-0.04c0.29-0.04,0.34-0.14,0.34-0.46v-3.88
		c0-0.28-0.08-0.38-0.32-0.39l-0.48-0.04v-1.18h2.56v1.08h0.03c0.22-0.56,0.83-1.26,1.99-1.26c0.41,0,0.91,0.07,1.29,0.24v2.52
		l-1.58,0.11v-0.92c0-0.22-0.03-0.29-0.13-0.34c-0.08-0.03-0.2-0.04-0.35-0.04C78.23,139.66,77.82,140.22,77.82,140.97z"/>
	<path class="st2" d="M87.6,140.14c0,2-1.75,2.52-3.95,2.45c0.07,0.81,0.5,1.48,1.58,1.48c0.78,0,1.37-0.29,1.76-0.56l0.56,1.33
		c-0.18,0.11-1.13,0.73-2.58,0.73c-2.4,0-3.31-1.54-3.31-3.56c0-2.14,1.25-3.92,3.54-3.92C86.67,138.1,87.6,138.74,87.6,140.14z
		 M85.12,139.51c-0.92,0-1.44,0.84-1.48,1.79c1.4,0.06,2.26-0.18,2.26-1.06C85.89,139.72,85.57,139.51,85.12,139.51z"/>
	<path class="st2" d="M91.92,139.9c0-0.29-0.07-0.39-0.34-0.41l-0.46-0.04v-1.18h2.56v0.97h0.03c0.35-0.66,0.99-1.15,2.06-1.15
		c0.71,0,1.47,0.27,1.88,1.18c0.41-0.74,1.11-1.18,2.07-1.18c1.36,0,2.1,0.78,2.1,2.41v3.67h0.01l0.67,0.04v1.16h-3.4v-1.11
		l0.42-0.04c0.27-0.04,0.35-0.11,0.35-0.45v-2.89c0-0.74-0.15-1.23-0.94-1.23c-0.66,0-1.09,0.56-1.09,1.27v3.24l0.67,0.04v1.16h-3.4
		v-1.11l0.42-0.04c0.27-0.04,0.35-0.11,0.35-0.45v-2.87c0-0.73-0.11-1.25-0.91-1.25c-0.67,0-1.12,0.59-1.12,1.32v3.19l0.64,0.06
		v1.15h-3.36v-1.11l0.45-0.06c0.27-0.04,0.34-0.1,0.34-0.43V139.9z"/>
	<path class="st2" d="M106.66,138.1c1.06,0,3.19,0.31,3.19,3.56c0,2.73-1.4,3.92-3.42,3.92c-2,0-3.17-1.16-3.17-3.73
		C103.27,138.88,105.18,138.1,106.66,138.1z M107.81,141.86c0-1.51-0.29-2.31-1.25-2.31c-0.91,0-1.26,0.78-1.26,2.07
		c0,1.27,0.17,2.48,1.25,2.48C107.46,144.1,107.81,143.26,107.81,141.86z"/>
	<path class="st2" d="M117.42,143.77c0,0.32,0.04,0.41,0.31,0.45l0.38,0.04v1.12h-2.48v-0.9h-0.04c-0.41,0.71-1.13,1.09-2.07,1.09
		c-1.44,0-2.17-0.8-2.17-2.38v-3.29c0-0.32-0.1-0.39-0.34-0.41l-0.39-0.04v-1.18h2.69v4.5c0,0.83,0.15,1.25,0.92,1.25
		c0.73,0,1.25-0.57,1.25-1.37v-2.75c0-0.29-0.07-0.39-0.34-0.41l-0.34-0.03v-1.19h2.62V143.77z"/>
	<path class="st2" d="M123.76,140.91c0-0.78-0.17-1.25-0.95-1.25c-0.77,0-1.22,0.62-1.22,1.33v3.18l0.63,0.04v1.16h-3.36v-1.11
		l0.45-0.04c0.27-0.04,0.34-0.11,0.34-0.43v-3.89c0-0.29-0.07-0.39-0.34-0.41l-0.46-0.04v-1.18h2.59v0.95h0.03
		c0.38-0.66,1.05-1.13,2.1-1.13c1.39,0,2.16,0.71,2.16,2.38v3.7l0.67,0.04v1.16h-3.4v-1.11l0.42-0.04c0.27-0.04,0.35-0.11,0.35-0.46
		V140.91z"/>
	<path class="st2" d="M127.02,138.43c1.01-0.18,1.39-0.92,1.68-1.77h1.08v1.61h1.74l-0.07,1.36h-1.67v3.35
		c0,0.83,0.29,1.05,0.85,1.05c0.38,0,0.71-0.11,0.94-0.24l0.32,1.33c-0.39,0.27-1.06,0.45-1.79,0.45c-2.19,0-2.3-1.32-2.3-2.51
		v-3.43h-0.95L127.02,138.43z"/>
	<path class="st2" d="M138.66,143.84c0,0.28,0.07,0.38,0.31,0.39l0.39,0.03v1.12h-2.27l-0.06-0.7l-0.06-0.01
		c-0.34,0.52-0.97,0.9-1.86,0.9c-2.07,0-2.8-1.51-2.8-3.42c0-2.47,1.23-4.05,3.77-4.05c0.49,0,1.51,0.1,2.58,0.5V143.84z
		 M136.72,139.68c-0.18-0.07-0.52-0.14-0.87-0.14c-1.22,0-1.57,1.18-1.57,2.51c0,1.08,0.25,2.09,1.26,2.09
		c0.77,0,1.18-0.52,1.18-1.08V139.68z"/>
	<path class="st2" d="M142.83,144.17l0.73,0.04v1.16h-3.46v-1.11l0.46-0.04c0.27-0.04,0.32-0.11,0.32-0.46v-3.87
		c0-0.29-0.07-0.39-0.34-0.41l-0.46-0.04v-1.18h2.75V144.17z M141.65,135.2c0.69,0,1.18,0.42,1.18,1.04c0,0.66-0.49,1.11-1.18,1.11
		c-0.71,0-1.16-0.45-1.16-1.06C140.49,135.67,140.94,135.2,141.65,135.2z"/>
	<path class="st2" d="M149.14,140.91c0-0.78-0.17-1.25-0.95-1.25c-0.77,0-1.22,0.62-1.22,1.33v3.18l0.63,0.04v1.16h-3.36v-1.11
		l0.45-0.04c0.27-0.04,0.34-0.11,0.34-0.43v-3.89c0-0.29-0.07-0.39-0.34-0.41l-0.46-0.04v-1.18h2.59v0.95h0.03
		c0.38-0.66,1.05-1.13,2.1-1.13c1.39,0,2.16,0.71,2.16,2.38v3.7l0.67,0.04v1.16h-3.4v-1.11l0.42-0.04c0.27-0.04,0.35-0.11,0.35-0.46
		V140.91z"/>
	<path class="st2" d="M155.94,138.1c1.06,0,3.19,0.31,3.19,3.56c0,2.73-1.4,3.92-3.42,3.92c-2,0-3.17-1.16-3.17-3.73
		C152.55,138.88,154.46,138.1,155.94,138.1z M157.09,141.86c0-1.51-0.29-2.31-1.25-2.31c-0.91,0-1.26,0.78-1.26,2.07
		c0,1.27,0.17,2.48,1.25,2.48C156.74,144.1,157.09,143.26,157.09,141.86z"/>
	<path class="st2" d="M166.7,143.77c0,0.32,0.04,0.41,0.31,0.45l0.38,0.04v1.12h-2.48v-0.9h-0.04c-0.41,0.71-1.13,1.09-2.07,1.09
		c-1.44,0-2.17-0.8-2.17-2.38v-3.29c0-0.32-0.1-0.39-0.34-0.41l-0.39-0.04v-1.18h2.69v4.5c0,0.83,0.15,1.25,0.92,1.25
		c0.73,0,1.25-0.57,1.25-1.37v-2.75c0-0.29-0.07-0.39-0.34-0.41l-0.34-0.03v-1.19h2.62V143.77z"/>
	<path class="st2" d="M171.26,139.43c-0.56,0-0.98,0.24-0.98,0.73c0,0.63,0.6,0.74,1.34,0.97c1.02,0.31,2.13,0.63,2.13,2.09
		c0,1.51-1.15,2.37-2.96,2.37c-0.85,0-1.93-0.18-2.48-0.48v-1.86l1.4-0.11v0.63c0,0.21,0.04,0.29,0.21,0.35
		c0.18,0.07,0.48,0.13,0.76,0.13c0.66,0,1.09-0.21,1.09-0.81c0-0.6-0.55-0.74-1.33-0.92c-1.01-0.27-2.07-0.59-2.07-2.1
		c0-1.5,1.25-2.3,2.93-2.3c0.77,0,1.61,0.17,2.23,0.5v1.75l-1.39,0.11v-0.57c0-0.22-0.03-0.32-0.2-0.38
		C171.74,139.44,171.48,139.43,171.26,139.43z"/>
	<path class="st2" d="M177.21,138.43c1.01-0.18,1.39-0.92,1.68-1.77h1.08v1.61h1.74l-0.07,1.36h-1.67v3.35
		c0,0.83,0.29,1.05,0.85,1.05c0.38,0,0.71-0.11,0.94-0.24l0.32,1.33c-0.39,0.27-1.06,0.45-1.79,0.45c-2.19,0-2.3-1.32-2.3-2.51
		v-3.43h-0.95L177.21,138.43z"/>
	<path class="st2" d="M187.54,140.88c0-0.77-0.17-1.22-0.97-1.22c-0.73,0-1.21,0.57-1.21,1.34v3.17l0.64,0.04v1.16h-3.36v-1.11
		l0.42-0.04c0.27-0.04,0.35-0.11,0.35-0.46v-6.75c0-0.29-0.07-0.39-0.34-0.41l-0.46-0.04v-1.18h2.72v3.84
		c0.46-0.85,1.26-1.13,1.99-1.13c1.58,0,2.17,0.91,2.17,2.38v3.7l0.67,0.04v1.16h-3.4v-1.11l0.42-0.04
		c0.27-0.04,0.35-0.11,0.35-0.46V140.88z"/>
	<path class="st2" d="M197.29,143.84c0,0.28,0.07,0.38,0.31,0.39l0.39,0.03v1.12h-2.27l-0.06-0.7l-0.06-0.01
		c-0.34,0.52-0.97,0.9-1.86,0.9c-2.07,0-2.8-1.51-2.8-3.42c0-2.47,1.23-4.05,3.77-4.05c0.49,0,1.51,0.1,2.58,0.5V143.84z
		 M195.35,139.68c-0.18-0.07-0.52-0.14-0.87-0.14c-1.22,0-1.57,1.18-1.57,2.51c0,1.08,0.25,2.09,1.26,2.09
		c0.77,0,1.18-0.52,1.18-1.08V139.68z"/>
	<path class="st2" d="M203.6,140.91c0-0.78-0.17-1.25-0.95-1.25c-0.77,0-1.22,0.62-1.22,1.33v3.18l0.63,0.04v1.16h-3.36v-1.11
		l0.45-0.04c0.27-0.04,0.34-0.11,0.34-0.43v-3.89c0-0.29-0.07-0.39-0.34-0.41l-0.46-0.04v-1.18h2.59v0.95h0.03
		c0.38-0.66,1.05-1.13,2.1-1.13c1.39,0,2.16,0.71,2.16,2.38v3.7l0.67,0.04v1.16h-3.4v-1.11l0.42-0.04c0.27-0.04,0.35-0.11,0.35-0.46
		V140.91z"/>
	<path class="st2" d="M216.07,143.84c0,0.28,0.07,0.38,0.31,0.39l0.39,0.03v1.12h-2.27l-0.06-0.7l-0.06-0.01
		c-0.34,0.52-0.97,0.9-1.86,0.9c-2.07,0-2.8-1.51-2.8-3.42c0-2.47,1.23-4.05,3.77-4.05c0.49,0,1.51,0.1,2.58,0.5V143.84z
		 M214.14,139.68c-0.18-0.07-0.52-0.14-0.87-0.14c-1.22,0-1.57,1.18-1.57,2.51c0,1.08,0.25,2.09,1.26,2.09
		c0.77,0,1.18-0.52,1.18-1.08V139.68z"/>
	<path class="st2" d="M222.39,140.91c0-0.78-0.17-1.25-0.95-1.25c-0.77,0-1.22,0.62-1.22,1.33v3.18l0.63,0.04v1.16h-3.36v-1.11
		l0.45-0.04c0.27-0.04,0.34-0.11,0.34-0.43v-3.89c0-0.29-0.07-0.39-0.34-0.41l-0.46-0.04v-1.18h2.59v0.95h0.03
		c0.38-0.66,1.05-1.13,2.1-1.13c1.39,0,2.16,0.71,2.16,2.38v3.7l0.67,0.04v1.16h-3.4v-1.11l0.42-0.04c0.27-0.04,0.35-0.11,0.35-0.46
		V140.91z"/>
	<path class="st2" d="M229.85,145.42c-0.71,1.91-1.37,3.03-3.07,3.03c-0.69,0-1.4-0.22-1.83-0.49l0.46-1.4
		c0.34,0.15,0.71,0.29,1.23,0.29c0.5,0,0.83-0.31,1.09-0.99l0.2-0.5l-2.14-5.83l-0.64-0.08v-1.16h3.31v1.18l-0.34,0.04
		c-0.21,0.03-0.29,0.15-0.22,0.39l1.06,3.35h0.04l1.23-3.71l-0.63-0.04v-1.21h3.05v1.16l-0.31,0.03c-0.28,0.04-0.36,0.13-0.46,0.42
		L229.85,145.42z"/>
	<path class="st2" d="M63.31,154.9c1.06,0,3.19,0.31,3.19,3.56c0,2.73-1.4,3.92-3.42,3.92c-2,0-3.17-1.16-3.17-3.73
		C59.92,155.68,61.83,154.9,63.31,154.9z M64.46,158.66c0-1.51-0.29-2.31-1.25-2.31c-0.91,0-1.26,0.79-1.26,2.07
		c0,1.27,0.17,2.48,1.25,2.48C64.11,160.9,64.46,160.06,64.46,158.66z"/>
	<path class="st2" d="M67.25,155.23c1.01-0.18,1.39-0.92,1.68-1.77h1.08v1.61h1.74l-0.07,1.36h-1.67v3.35
		c0,0.83,0.29,1.05,0.85,1.05c0.38,0,0.71-0.11,0.94-0.24l0.32,1.33c-0.39,0.27-1.06,0.45-1.79,0.45c-2.19,0-2.3-1.32-2.3-2.51
		v-3.43h-0.95L67.25,155.23z"/>
	<path class="st2" d="M77.58,157.68c0-0.77-0.17-1.22-0.97-1.22c-0.73,0-1.2,0.57-1.2,1.34v3.17l0.64,0.04v1.16h-3.36v-1.11
		l0.42-0.04c0.27-0.04,0.35-0.11,0.35-0.46v-6.75c0-0.29-0.07-0.39-0.34-0.41l-0.46-0.04v-1.18h2.72v3.84
		c0.46-0.85,1.26-1.13,1.99-1.13c1.58,0,2.17,0.91,2.17,2.38v3.7l0.67,0.04v1.16h-3.4v-1.11l0.42-0.04
		c0.27-0.04,0.35-0.11,0.35-0.46V157.68z"/>
	<path class="st2" d="M86.92,156.94c0,2-1.75,2.52-3.95,2.45c0.07,0.81,0.5,1.48,1.58,1.48c0.78,0,1.37-0.29,1.76-0.56l0.56,1.33
		c-0.18,0.11-1.13,0.73-2.58,0.73c-2.4,0-3.31-1.54-3.31-3.56c0-2.14,1.25-3.92,3.54-3.92C85.99,154.9,86.92,155.54,86.92,156.94z
		 M84.44,156.31c-0.92,0-1.44,0.84-1.48,1.79c1.4,0.06,2.26-0.18,2.26-1.06C85.21,156.52,84.89,156.31,84.44,156.31z"/>
	<path class="st2" d="M90.45,157.77v3.19l1.16,0.06v1.16h-3.88v-1.11l0.45-0.04c0.29-0.04,0.34-0.14,0.34-0.46v-3.88
		c0-0.28-0.08-0.38-0.32-0.39l-0.48-0.04v-1.18h2.56v1.08h0.03c0.22-0.56,0.83-1.26,1.99-1.26c0.41,0,0.91,0.07,1.29,0.24v2.52
		L92,157.77v-0.92c0-0.22-0.03-0.29-0.13-0.34c-0.08-0.03-0.2-0.04-0.35-0.04C90.85,156.46,90.45,157.02,90.45,157.77z"/>
	<path class="st2" d="M97.35,156.23c-0.56,0-0.98,0.24-0.98,0.73c0,0.63,0.6,0.74,1.34,0.97c1.02,0.31,2.13,0.63,2.13,2.09
		c0,1.51-1.15,2.37-2.96,2.37c-0.85,0-1.93-0.18-2.48-0.48v-1.86l1.4-0.11v0.63c0,0.21,0.04,0.29,0.21,0.35
		c0.18,0.07,0.48,0.13,0.76,0.13c0.66,0,1.09-0.21,1.09-0.81s-0.55-0.74-1.33-0.92c-1.01-0.27-2.07-0.59-2.07-2.1
		c0-1.5,1.25-2.3,2.93-2.3c0.77,0,1.61,0.17,2.23,0.5v1.75l-1.39,0.11v-0.57c0-0.22-0.03-0.32-0.2-0.38
		C97.82,156.24,97.57,156.23,97.35,156.23z"/>
	<path class="st2" d="M106.48,156.23c-0.56,0-0.98,0.24-0.98,0.73c0,0.63,0.6,0.74,1.34,0.97c1.02,0.31,2.13,0.63,2.13,2.09
		c0,1.51-1.15,2.37-2.96,2.37c-0.85,0-1.93-0.18-2.48-0.48v-1.86l1.4-0.11v0.63c0,0.21,0.04,0.29,0.21,0.35
		c0.18,0.07,0.48,0.13,0.76,0.13c0.66,0,1.09-0.21,1.09-0.81s-0.55-0.74-1.33-0.92c-1.01-0.27-2.07-0.59-2.07-2.1
		c0-1.5,1.25-2.3,2.93-2.3c0.77,0,1.61,0.17,2.23,0.5v1.75l-1.39,0.11v-0.57c0-0.22-0.03-0.32-0.2-0.38
		C106.95,156.24,106.7,156.23,106.48,156.23z"/>
	<path class="st2" d="M109.69,155.23c1.01-0.18,1.39-0.92,1.68-1.77h1.08v1.61h1.74l-0.07,1.36h-1.67v3.35
		c0,0.83,0.29,1.05,0.85,1.05c0.38,0,0.71-0.11,0.94-0.24l0.32,1.33c-0.39,0.27-1.06,0.45-1.79,0.45c-2.19,0-2.3-1.32-2.3-2.51
		v-3.43h-0.95L109.69,155.23z"/>
	<path class="st2" d="M121.33,160.64c0,0.28,0.07,0.38,0.31,0.39l0.39,0.03v1.12h-2.27l-0.06-0.7l-0.06-0.01
		c-0.34,0.52-0.97,0.9-1.86,0.9c-2.07,0-2.8-1.51-2.8-3.42c0-2.47,1.23-4.05,3.77-4.05c0.49,0,1.51,0.1,2.58,0.5V160.64z
		 M119.4,156.48c-0.18-0.07-0.52-0.14-0.87-0.14c-1.22,0-1.57,1.18-1.57,2.51c0,1.08,0.25,2.09,1.26,2.09
		c0.77,0,1.18-0.52,1.18-1.08V156.48z"/>
	<path class="st2" d="M122.69,155.23c1.01-0.18,1.39-0.92,1.68-1.77h1.08v1.61h1.74l-0.07,1.36h-1.67v3.35
		c0,0.83,0.29,1.05,0.85,1.05c0.38,0,0.71-0.11,0.94-0.24l0.32,1.33c-0.39,0.27-1.06,0.45-1.79,0.45c-2.19,0-2.3-1.32-2.3-2.51
		v-3.43h-0.95L122.69,155.23z"/>
	<path class="st2" d="M133.85,156.94c0,2-1.75,2.52-3.95,2.45c0.07,0.81,0.5,1.48,1.58,1.48c0.78,0,1.37-0.29,1.76-0.56l0.56,1.33
		c-0.18,0.11-1.13,0.73-2.58,0.73c-2.4,0-3.31-1.54-3.31-3.56c0-2.14,1.25-3.92,3.54-3.92C132.92,154.9,133.85,155.54,133.85,156.94
		z M131.37,156.31c-0.92,0-1.44,0.84-1.48,1.79c1.4,0.06,2.26-0.18,2.26-1.06C132.14,156.52,131.82,156.31,131.37,156.31z"/>
	<path class="st2" d="M140.15,160.97l0.73,0.04v1.16h-3.46v-1.11l0.46-0.04c0.27-0.04,0.32-0.11,0.32-0.46v-3.87
		c0-0.29-0.07-0.39-0.34-0.41l-0.46-0.04v-1.18h2.75V160.97z M138.97,152c0.69,0,1.18,0.42,1.18,1.04c0,0.66-0.49,1.11-1.18,1.11
		c-0.71,0-1.16-0.45-1.16-1.06C137.81,152.47,138.25,152,138.97,152z"/>
	<path class="st2" d="M146.46,157.71c0-0.79-0.17-1.25-0.95-1.25c-0.77,0-1.22,0.62-1.22,1.33v3.18l0.63,0.04v1.16h-3.36v-1.11
		l0.45-0.04c0.27-0.04,0.34-0.11,0.34-0.43v-3.89c0-0.29-0.07-0.39-0.34-0.41l-0.46-0.04v-1.18h2.59v0.95h0.03
		c0.38-0.66,1.05-1.13,2.1-1.13c1.39,0,2.16,0.71,2.16,2.38v3.7l0.67,0.04v1.16h-3.4v-1.11l0.42-0.04c0.27-0.04,0.35-0.11,0.35-0.46
		V157.71z"/>
	<path class="st2" d="M152.45,155.23c1.01-0.18,1.39-0.92,1.68-1.77h1.08v1.61h1.74l-0.07,1.36h-1.67v3.35
		c0,0.83,0.29,1.05,0.85,1.05c0.38,0,0.71-0.11,0.94-0.24l0.32,1.33c-0.39,0.27-1.07,0.45-1.79,0.45c-2.19,0-2.3-1.32-2.3-2.51
		v-3.43h-0.95L152.45,155.23z"/>
	<path class="st2" d="M162.79,157.68c0-0.77-0.17-1.22-0.97-1.22c-0.73,0-1.21,0.57-1.21,1.34v3.17l0.64,0.04v1.16h-3.36v-1.11
		l0.42-0.04c0.27-0.04,0.35-0.11,0.35-0.46v-6.75c0-0.29-0.07-0.39-0.34-0.41l-0.46-0.04v-1.18h2.72v3.84
		c0.46-0.85,1.26-1.13,1.99-1.13c1.58,0,2.17,0.91,2.17,2.38v3.7l0.67,0.04v1.16h-3.4v-1.11l0.42-0.04
		c0.27-0.04,0.35-0.11,0.35-0.46V157.68z"/>
	<path class="st2" d="M172.12,156.94c0,2-1.75,2.52-3.95,2.45c0.07,0.81,0.5,1.48,1.58,1.48c0.79,0,1.37-0.29,1.77-0.56l0.56,1.33
		c-0.18,0.11-1.13,0.73-2.58,0.73c-2.4,0-3.31-1.54-3.31-3.56c0-2.14,1.25-3.92,3.54-3.92C171.2,154.9,172.12,155.54,172.12,156.94z
		 M169.64,156.31c-0.92,0-1.44,0.84-1.49,1.79c1.4,0.06,2.25-0.18,2.25-1.06C170.41,156.52,170.09,156.31,169.64,156.31z"/>
	<path class="st2" d="M178.37,160.97l0.73,0.04v1.16h-3.45v-1.11l0.45-0.06c0.27-0.04,0.32-0.1,0.32-0.45v-6.75
		c0-0.29-0.07-0.39-0.34-0.41l-0.46-0.04v-1.18h2.75V160.97z"/>
	<path class="st2" d="M183.22,154.9c1.06,0,3.19,0.31,3.19,3.56c0,2.73-1.4,3.92-3.42,3.92c-2,0-3.17-1.16-3.17-3.73
		C179.83,155.68,181.74,154.9,183.22,154.9z M184.37,158.66c0-1.51-0.29-2.31-1.25-2.31c-0.91,0-1.26,0.79-1.26,2.07
		c0,1.27,0.17,2.48,1.25,2.48C184.02,160.9,184.37,160.06,184.37,158.66z"/>
	<path class="st2" d="M193.38,155.26l1.3,4.96h0.03l0.91-3.89l-0.67-0.04v-1.21h2.93v1.15l-0.41,0.04
		c-0.27,0.04-0.32,0.13-0.39,0.41l-1.44,5.5h-2.02l-1.18-4.64h-0.01l-1.19,4.64h-2.12l-1.58-5.87l-0.69-0.08v-1.15h3.28v1.16
		l-0.45,0.04c-0.21,0.03-0.29,0.15-0.24,0.36l0.88,3.54h0.03l1.33-4.93H193.38z"/>
	<path class="st2" d="M204.08,156.94c0,2-1.75,2.52-3.95,2.45c0.07,0.81,0.5,1.48,1.58,1.48c0.79,0,1.37-0.29,1.77-0.56l0.56,1.33
		c-0.18,0.11-1.13,0.73-2.58,0.73c-2.4,0-3.31-1.54-3.31-3.56c0-2.14,1.25-3.92,3.54-3.92C203.16,154.9,204.08,155.54,204.08,156.94
		z M201.61,156.31c-0.92,0-1.44,0.84-1.49,1.79c1.4,0.06,2.25-0.18,2.25-1.06C202.38,156.52,202.05,156.31,201.61,156.31z"/>
	<path class="st2" d="M207.61,157.77v3.19l1.16,0.06v1.16h-3.88v-1.11l0.45-0.04c0.29-0.04,0.34-0.14,0.34-0.46v-3.88
		c0-0.28-0.08-0.38-0.32-0.39l-0.48-0.04v-1.18h2.56v1.08h0.03c0.22-0.56,0.83-1.26,1.99-1.26c0.41,0,0.91,0.07,1.29,0.24v2.52
		l-1.58,0.11v-0.92c0-0.22-0.03-0.29-0.13-0.34c-0.08-0.03-0.2-0.04-0.35-0.04C208.02,156.46,207.61,157.02,207.61,157.77z"/>
	<path class="st2" d="M219.83,156.1v2.33h1.21v1.4h-1.22v1.08l0.91,0.07v1.2h-3.78V161l0.62-0.06c0.27-0.04,0.36-0.1,0.36-0.43v-0.7
		h-3.68v-1.18l2.75-5.71l1.5,0.74l-2.27,4.76h1.72l0.76-2.33H219.83z"/>
	<path class="st2" d="M223.5,157.43c-0.73-0.38-1.39-1.05-1.39-2.04c0-1.37,1.12-2.4,2.96-2.4c2.09,0,2.79,1.05,2.79,2.1
		c0,0.94-0.6,1.72-1.34,2.24c1.06,0.55,1.68,1.29,1.68,2.35c0,1.39-0.97,2.66-3.26,2.66c-2.42,0-3.1-1.33-3.1-2.41
		C221.83,158.66,222.6,157.95,223.5,157.43z M224.79,158.21c-0.59,0.29-1.18,0.83-1.18,1.55c0,0.56,0.36,1.18,1.3,1.18
		c0.84,0,1.23-0.53,1.23-1.21C226.15,158.99,225.46,158.59,224.79,158.21z M223.99,155.25c0,0.56,0.5,1.01,1.22,1.39
		c0.43-0.32,0.92-0.87,0.92-1.44s-0.45-0.94-1.06-0.94C224.41,154.25,223.99,154.68,223.99,155.25z"/>
	<path class="st2" d="M126.96,173.03c-0.56,0-0.98,0.24-0.98,0.73c0,0.63,0.6,0.74,1.34,0.97c1.02,0.31,2.13,0.63,2.13,2.09
		c0,1.51-1.15,2.37-2.96,2.37c-0.85,0-1.93-0.18-2.48-0.48v-1.86l1.4-0.11v0.63c0,0.21,0.04,0.29,0.21,0.35
		c0.18,0.07,0.48,0.13,0.76,0.13c0.66,0,1.09-0.21,1.09-0.81s-0.55-0.74-1.33-0.92c-1.01-0.27-2.07-0.59-2.07-2.1
		c0-1.5,1.25-2.3,2.93-2.3c0.77,0,1.61,0.17,2.23,0.5v1.75l-1.39,0.11v-0.57c0-0.22-0.03-0.32-0.2-0.38
		C127.43,173.04,127.18,173.03,126.96,173.03z"/>
	<path class="st2" d="M130.17,172.03c1.01-0.18,1.39-0.92,1.68-1.76h1.08v1.61h1.74l-0.07,1.36h-1.67v3.35
		c0,0.83,0.29,1.05,0.85,1.05c0.38,0,0.71-0.11,0.94-0.24l0.32,1.33c-0.39,0.27-1.06,0.45-1.79,0.45c-2.19,0-2.3-1.32-2.3-2.51
		v-3.43h-0.95L130.17,172.03z"/>
	<path class="st2" d="M141.81,177.44c0,0.28,0.07,0.38,0.31,0.39l0.39,0.03v1.12h-2.27l-0.06-0.7l-0.06-0.01
		c-0.34,0.52-0.97,0.9-1.86,0.9c-2.07,0-2.8-1.51-2.8-3.42c0-2.47,1.23-4.05,3.77-4.05c0.49,0,1.51,0.1,2.58,0.5V177.44z
		 M139.88,173.28c-0.18-0.07-0.52-0.14-0.87-0.14c-1.22,0-1.57,1.18-1.57,2.51c0,1.08,0.25,2.09,1.26,2.09
		c0.77,0,1.18-0.52,1.18-1.08V173.28z"/>
	<path class="st2" d="M143.17,172.03c1.01-0.18,1.39-0.92,1.68-1.76h1.08v1.61h1.74l-0.07,1.36h-1.67v3.35
		c0,0.83,0.29,1.05,0.85,1.05c0.38,0,0.71-0.11,0.94-0.24l0.32,1.33c-0.39,0.27-1.07,0.45-1.79,0.45c-2.19,0-2.3-1.32-2.3-2.51
		v-3.43H143L143.17,172.03z"/>
	<path class="st2" d="M154.33,173.74c0,2-1.75,2.52-3.95,2.45c0.07,0.81,0.5,1.48,1.58,1.48c0.78,0,1.37-0.29,1.76-0.56l0.56,1.33
		c-0.18,0.11-1.13,0.73-2.58,0.73c-2.39,0-3.31-1.54-3.31-3.56c0-2.14,1.25-3.92,3.54-3.92C153.4,171.7,154.33,172.34,154.33,173.74
		z M151.85,173.11c-0.92,0-1.44,0.84-1.49,1.79c1.4,0.06,2.26-0.18,2.26-1.06C152.62,173.32,152.3,173.11,151.85,173.11z"/>
	<path class="st2" d="M158.26,173.03c-0.56,0-0.98,0.24-0.98,0.73c0,0.63,0.6,0.74,1.34,0.97c1.02,0.31,2.13,0.63,2.13,2.09
		c0,1.51-1.15,2.37-2.96,2.37c-0.85,0-1.93-0.18-2.48-0.48v-1.86l1.4-0.11v0.63c0,0.21,0.04,0.29,0.21,0.35
		c0.18,0.07,0.48,0.13,0.76,0.13c0.66,0,1.09-0.21,1.09-0.81s-0.55-0.74-1.33-0.92c-1.01-0.27-2.07-0.59-2.07-2.1
		c0-1.5,1.25-2.3,2.93-2.3c0.77,0,1.61,0.17,2.23,0.5v1.75l-1.39,0.11v-0.57c0-0.22-0.03-0.32-0.2-0.38
		C158.74,173.04,158.48,173.03,158.26,173.03z"/>
	<path class="st2" d="M162.84,177.06c0.73,0,1.12,0.42,1.12,1.04c0,0.6-0.36,1.06-1.08,1.06c-0.77,0-1.13-0.43-1.13-1.05
		C161.75,177.51,162.15,177.06,162.84,177.06z"/>
</g>
</svg>
