<?xml version="1.0" encoding="utf-8"?>
<!-- Generator: Adobe Illustrator 25.0.0, SVG Export Plug-In . SVG Version: 6.00 Build 0)  -->
<svg version="1.1" id="Layer_1" xmlns="http://www.w3.org/2000/svg" xmlns:xlink="http://www.w3.org/1999/xlink" x="0px" y="0px"
	 viewBox="0 0 360 72" style="enable-background:new 0 0 360 72;" xml:space="preserve">
<style type="text/css">
	.st0{enable-background:new    ;}
	.st1{fill:#FFFFFF;}
</style>
<g class="st0">
	<path class="st1" d="M173.25,50.94c0-1.2-0.85-1.51-1.81-2.08c-1.12-0.61-2.41-1.32-2.41-3.67c0-2.79,1.69-4.41,4.14-4.41
		c1.13,0,2.27,0.34,2.98,0.82l-0.43,3.28l-1.54,0.17l0.17-1.39c0.05-0.36,0.03-0.53-0.2-0.63c-0.2-0.08-0.65-0.21-1.17-0.21
		c-0.8,0-1.89,0.31-1.89,1.91c0,1.13,0.6,1.47,1.73,2.08c1.32,0.74,2.52,1.43,2.52,3.76c0,2.92-1.53,4.68-4.42,4.68
		c-1.07,0-2.31-0.27-3.12-0.76l0.44-3.36l1.57-0.17l-0.17,1.43c-0.05,0.36-0.05,0.53,0.19,0.63c0.27,0.1,0.71,0.19,1.23,0.19
		C172.1,53.21,173.25,52.79,173.25,50.94z"/>
	<path class="st1" d="M183.62,46.83c0,3.13-2,4.12-5.07,3.95c-0.08,1.34,0.22,2.56,1.56,2.56c0.99,0,1.68-0.5,2.11-0.86l0.39,1.74
		c-0.3,0.27-1.42,1.07-2.93,1.07c-2.13,0-3.01-1.74-3.01-4.09c0-3.86,1.73-7.05,4.71-7.05C182.77,44.14,183.62,44.96,183.62,46.83z
		 M181.06,45.97c-1.21,0-2.09,1.49-2.3,3.02c1.87,0.06,3.18-0.34,3.18-1.93C181.94,46.28,181.61,45.97,181.06,45.97z"/>
	<path class="st1" d="M186.3,50.82c0,1.41,0.43,2.44,1.54,2.44c0.58,0,1.23-0.29,1.94-0.9l0.52,1.74c-0.68,0.65-1.7,1.2-2.9,1.2
		c-2,0-3.05-1.55-3.05-4.18c0-5.21,2.35-6.97,4.58-6.97c0.95,0,1.76,0.29,2.32,0.82l-0.36,2.86l-1.48,0.13l0.14-1.11
		c0.05-0.36,0.02-0.5-0.19-0.61c-0.17-0.08-0.41-0.1-0.61-0.1C187.29,46.12,186.3,47.73,186.3,50.82z"/>
	<path class="st1" d="M195.66,40.03L193.94,53c-0.05,0.4,0.03,0.46,0.3,0.46h0.36c0.08,0,0.17,0,0.25-0.02l-0.21,1.58
		c-0.36,0.15-0.93,0.23-1.31,0.23c-1.2,0-1.46-0.86-1.28-2.29l1.45-10.69c0.06-0.48-0.02-0.52-0.32-0.59l-0.44-0.08l0.22-1.58
		H195.66z"/>
	<path class="st1" d="M202.89,53.02c-0.05,0.36,0.02,0.44,0.31,0.44c0.08,0,0.22,0,0.35-0.02c0.08,0,0.14,0,0.22-0.02l-0.21,1.6
		c-0.3,0.15-0.83,0.25-1.17,0.25c-0.77,0-1.28-0.4-1.21-1.64h-0.05c-0.55,1.16-1.43,1.66-2.38,1.66c-1.75,0-2.38-1.47-2.08-3.72
		l0.65-4.91c0.06-0.44-0.03-0.54-0.3-0.61l-0.44-0.04l0.2-1.6h2.71l-0.91,6.82c-0.17,1.36-0.05,2.06,0.88,2.06
		c0.69,0,1.61-0.54,1.86-2.5l0.83-6.38h1.87L202.89,53.02z"/>
	<path class="st1" d="M211.79,53.09c-0.05,0.34,0.02,0.44,0.31,0.44l0.57-0.04l-0.21,1.55c-0.3,0.15-0.85,0.23-1.18,0.23
		c-0.93,0-1.21-0.67-1.13-1.53h-0.05c-0.49,0.9-1.26,1.55-2.39,1.55c-1.76,0-2.49-1.6-2.49-3.78c0-4.24,1.59-7.37,4.65-7.37
		c0.33,0,0.85,0.04,1.23,0.19l0.27-2.06c0.06-0.44-0.05-0.55-0.32-0.61l-0.54-0.06l0.22-1.58h2.77L211.79,53.09z M210.24,50.71
		l0.58-4.45c-0.3-0.19-0.66-0.27-1.05-0.27c-1.95,0-2.61,3.13-2.61,5.42c0,1.05,0.21,2.02,1.17,2.02
		C209.2,53.42,209.99,52.56,210.24,50.71z"/>
	<path class="st1" d="M221.01,46.83c0,3.13-2,4.12-5.07,3.95c-0.08,1.34,0.22,2.56,1.56,2.56c0.99,0,1.68-0.5,2.11-0.86l0.39,1.74
		c-0.3,0.27-1.42,1.07-2.93,1.07c-2.13,0-3.01-1.74-3.01-4.09c0-3.86,1.73-7.05,4.71-7.05C220.17,44.14,221.01,44.96,221.01,46.83z
		 M218.45,45.97c-1.21,0-2.09,1.49-2.3,3.02c1.87,0.06,3.18-0.34,3.18-1.93C219.33,46.28,219,45.97,218.45,45.97z"/>
	<path class="st1" d="M228.31,53.09c-0.05,0.34,0.02,0.44,0.31,0.44l0.57-0.04l-0.21,1.55c-0.3,0.15-0.85,0.23-1.18,0.23
		c-0.93,0-1.21-0.67-1.13-1.53h-0.05c-0.49,0.9-1.26,1.55-2.39,1.55c-1.76,0-2.49-1.6-2.49-3.78c0-4.24,1.59-7.37,4.65-7.37
		c0.33,0,0.85,0.04,1.23,0.19l0.27-2.06c0.06-0.44-0.05-0.55-0.32-0.61l-0.54-0.06l0.22-1.58h2.77L228.31,53.09z M226.76,50.71
		l0.58-4.45c-0.3-0.19-0.66-0.27-1.05-0.27c-1.95,0-2.61,3.13-2.61,5.42c0,1.05,0.21,2.02,1.17,2.02
		C225.72,53.42,226.51,52.56,226.76,50.71z"/>
	<path class="st1" d="M240.09,51.03h-3.56l-0.87,2.25l0.8,0.06L236.25,55h-3.48l0.21-1.57l0.46-0.08c0.3-0.06,0.38-0.15,0.55-0.57
		l3.86-9.95l-0.82-0.13l0.22-1.66h3.48l1.62,11.99c0.05,0.36,0.09,0.46,0.41,0.44l0.6-0.02L243.14,55c-0.31,0.15-0.82,0.23-1.2,0.23
		c-1.12,0-1.43-0.67-1.56-1.93L240.09,51.03z M237.08,49.26h2.93l-0.66-5.94h-0.03L237.08,49.26z"/>
	<path class="st1" d="M247.16,48.82L246.34,55h-1.86l1.1-8.36c0.06-0.42,0-0.5-0.27-0.57l-0.54-0.06l0.22-1.6h2.54l-0.17,1.57h0.02
		c0.44-0.99,1.21-1.85,2.47-1.85c0.46,0,1.01,0.08,1.4,0.4L250.8,48l-1.59,0.15l0.17-1.24c0.05-0.31,0.02-0.5-0.06-0.57
		c-0.09-0.06-0.24-0.08-0.44-0.08C248.01,46.26,247.4,47.21,247.16,48.82z"/>
	<path class="st1" d="M255.04,44.42L253.9,53c-0.05,0.4,0,0.46,0.3,0.46h0.35c0.08,0,0.17,0,0.27-0.02l-0.22,1.58
		c-0.33,0.15-0.93,0.23-1.29,0.23c-1.2,0-1.48-0.86-1.28-2.29l0.85-6.28c0.06-0.48,0-0.57-0.3-0.63l-0.46-0.04l0.22-1.6H255.04z
		 M254.56,39.99c0.61,0,0.98,0.48,0.98,1.18c0,0.99-0.61,1.7-1.37,1.7c-0.61,0-0.96-0.48-0.96-1.22
		C253.21,40.72,253.81,39.99,254.56,39.99z"/>
	<path class="st1" d="M256.94,44.42h5.83l0.27,1.47l-5.07,7.33c0.14-0.02,0.27-0.06,0.47-0.06c0.65,0,1.02,0.29,1.72,0.29
		c0.36,0,0.52-0.08,0.6-0.44l0.17-1.11l1.5-0.13l-0.41,3.11c-0.52,0.27-1.07,0.42-1.65,0.42c-1.13,0-2.08-0.48-3.09-0.48
		c-0.46,0-0.91,0.15-1.28,0.25l-0.17-1.76l4.91-7.14h-2.14c-0.3,0-0.39,0.08-0.46,0.53L258,47.52l-1.46,0.11L256.94,44.42z"/>
	<path class="st1" d="M268.08,44.14c1.09,0,2.88,0.57,2.88,3.86c0,3.78-1.24,7.29-4.39,7.29c-1.88,0-2.9-1.34-2.9-3.97
		C263.67,47.52,264.97,44.14,268.08,44.14z M269.05,48.13c0-1.34-0.35-2.14-1.23-2.14c-1.86,0-2.25,3.38-2.25,5.29
		c0,1.24,0.27,2.12,1.23,2.12C268.63,53.4,269.05,49.96,269.05,48.13z"/>
	<path class="st1" d="M274.85,49.08l-0.8,5.92h-1.84l1.1-8.31c0.06-0.44,0-0.55-0.3-0.61l-0.46-0.06l0.22-1.6h2.54l-0.17,1.41h0.02
		c0.58-1.09,1.31-1.68,2.44-1.68c1.58,0,2.38,1.16,2.05,3.65l-0.71,5.23c-0.05,0.4,0.02,0.46,0.32,0.46h0.31
		c0.06,0,0.13,0,0.21-0.02l-0.21,1.55c-0.31,0.15-0.85,0.23-1.23,0.23c-1.2,0-1.46-0.84-1.29-2.16l0.66-4.77
		c0.17-1.11,0.08-2.14-0.9-2.14C275.42,46.18,275.02,47.58,274.85,49.08z"/>
	<path class="st1" d="M287.86,53.07c-0.05,0.34,0,0.44,0.3,0.44c0.05,0,0.2,0,0.33-0.02c0.08,0,0.16,0,0.25-0.02l-0.21,1.55
		c-0.3,0.15-0.83,0.23-1.17,0.23c-0.93,0-1.23-0.69-1.15-1.51h-0.05c-0.43,0.9-1.24,1.55-2.32,1.55c-1.84,0-2.57-1.6-2.57-3.78
		c0-4.24,1.56-7.37,4.88-7.37c0.68,0,1.68,0.17,2.74,0.76L287.86,53.07z M286.27,51.01l0.61-4.75c-0.3-0.17-0.61-0.27-1.04-0.27
		c-2,0-2.61,2.96-2.61,5.38c0,1.09,0.21,2.1,1.18,2.1C285.24,53.46,286.03,52.71,286.27,51.01z"/>
	<path class="st1" d="M299.12,41.03c1.51,0,3.04,0.63,3.04,2.98c0,1.83-0.91,2.96-2.11,3.44c1.09,0.27,1.78,1.36,1.78,2.96
		c0,2.88-1.61,4.58-4.63,4.58h-4.33l0.2-1.57l0.49-0.06c0.3-0.06,0.39-0.15,0.47-0.63l1.31-9.95l-0.82-0.08l0.22-1.66H299.12z
		 M295.89,53.15h1.46c1.91,0,2.43-1.34,2.43-2.71c0-1.24-0.63-1.87-1.76-1.87h-1.53L295.89,53.15z M296.73,46.83h1.17
		c1.59,0,2.25-1.07,2.25-2.48c0-1.24-0.63-1.55-1.62-1.55h-1.26L296.73,46.83z"/>
	<path class="st1" d="M306.43,44.42L305.29,53c-0.05,0.4,0,0.46,0.3,0.46h0.35c0.08,0,0.17,0,0.27-0.02l-0.22,1.58
		c-0.33,0.15-0.93,0.23-1.29,0.23c-1.2,0-1.48-0.86-1.28-2.29l0.85-6.28c0.06-0.48,0-0.57-0.3-0.63l-0.46-0.04l0.22-1.6H306.43z
		 M305.95,39.99c0.61,0,0.98,0.48,0.98,1.18c0,0.99-0.61,1.7-1.37,1.7c-0.61,0-0.96-0.48-0.96-1.22
		C304.6,40.72,305.2,39.99,305.95,39.99z"/>
	<path class="st1" d="M309.26,42.27c0.06-0.48,0-0.52-0.3-0.59l-0.5-0.08l0.22-1.58h2.74l-0.9,6.7h0.05
		c0.65-1.74,1.67-2.58,2.82-2.58c1.32,0,1.91,0.8,1.91,2.37c0,1.68-0.74,3.13-2.25,4.03l0.63,2.31c0.11,0.36,0.19,0.52,0.46,0.52
		h0.38c0.08,0,0.17,0,0.25-0.02l-0.2,1.64c-0.3,0.15-0.79,0.23-1.28,0.23c-0.88,0-1.15-0.52-1.4-1.64l-0.61-2.44
		c-0.3,0.1-0.83,0.19-1.32,0.21L309.45,55h-1.86L309.26,42.27z M312.63,46.01c-0.87,0-1.86,1.11-2.54,3.78
		c1.97-0.23,3.26-1.22,3.26-2.81C313.36,46.39,313.15,46.01,312.63,46.01z"/>
	<path class="st1" d="M319.61,44.42L318.48,53c-0.05,0.4,0,0.46,0.3,0.46h0.35c0.08,0,0.17,0,0.27-0.02l-0.22,1.58
		c-0.33,0.15-0.93,0.23-1.29,0.23c-1.2,0-1.48-0.86-1.28-2.29l0.85-6.28c0.06-0.48,0-0.57-0.3-0.63l-0.46-0.04l0.22-1.6H319.61z
		 M319.14,39.99c0.61,0,0.98,0.48,0.98,1.18c0,0.99-0.61,1.7-1.37,1.7c-0.61,0-0.96-0.48-0.96-1.22
		C317.78,40.72,318.38,39.99,319.14,39.99z"/>
	<path class="st1" d="M323.56,49.08l-0.8,5.92h-1.84l1.1-8.31c0.06-0.44,0-0.55-0.3-0.61l-0.46-0.06l0.22-1.6h2.54l-0.17,1.41h0.02
		c0.58-1.09,1.31-1.68,2.44-1.68c1.57,0,2.38,1.16,2.05,3.65l-0.71,5.23c-0.05,0.4,0.02,0.46,0.32,0.46h0.31
		c0.06,0,0.13,0,0.21-0.02l-0.21,1.55c-0.31,0.15-0.85,0.23-1.23,0.23c-1.2,0-1.46-0.84-1.29-2.16l0.66-4.77
		c0.17-1.11,0.08-2.14-0.9-2.14C324.13,46.18,323.74,47.58,323.56,49.08z"/>
	<path class="st1" d="M329.88,57.24c0-1.91,1.13-2.79,2.39-3.46c-1.15-0.17-2.2-1.16-2.2-3.51c0-3.67,1.92-6.13,4.57-6.13
		c0.94,0,2.09,0.25,2.91,0.76l-1.02,7.79l-0.32,2.2c-0.52,3.28-1.72,4.91-3.97,4.91C330.67,59.81,329.88,58.75,329.88,57.24z
		 M332.56,57.96c1.21,0,1.62-1.58,1.87-3.36l0.16-1.2c-0.36,0.5-0.65,0.8-1.34,1.24c-0.9,0.57-1.64,1.05-1.64,2.18
		C331.61,57.58,331.94,57.96,332.56,57.96z M335.5,46.24c-0.33-0.17-0.71-0.23-1.07-0.23c-1.83,0-2.5,2.27-2.5,4.26
		c0,1.24,0.27,2.21,1.34,2.21c0.83,0,1.53-0.69,1.72-2.18L335.5,46.24z"/>
</g>
<g>
	<path class="st1" d="M17.4,22.18l-1.11-0.08l0.36-2.06h5.94l-0.36,1.99l-0.69,0.06c-0.4,0.06-0.52,0.15-0.61,0.63l-0.52,2.92h4.51
		l0.61-3.46l-1.01-0.1l0.36-2.04h5.79l-0.36,1.99l-0.63,0.08c-0.4,0.06-0.55,0.13-0.63,0.63l-1.62,9.13l1.07,0.08L28.15,34h-5.9
		l0.36-1.99l0.69-0.06c0.42-0.06,0.52-0.19,0.61-0.69l0.55-3.04h-4.49l-0.65,3.65l1.07,0.1L20.02,34h-5.86l0.36-1.99l0.65-0.06
		c0.4-0.06,0.5-0.15,0.61-0.65L17.4,22.18z"/>
	<path class="st1" d="M32.73,22.18l-1.13-0.08l0.36-2.06h5.96l-0.36,1.99l-0.69,0.06c-0.4,0.06-0.52,0.15-0.61,0.63l-1.62,9.13
		l1.11,0.1L35.39,34h-5.94l0.36-1.99l0.67-0.06c0.4-0.06,0.52-0.15,0.63-0.67L32.73,22.18z"/>
	<path class="st1" d="M37.03,32.01l0.65-0.06c0.36-0.06,0.52-0.15,0.59-0.57l1.64-9.2l-1.11-0.08l0.36-2.06h5.5
		c3.95,0,6.36,1.83,6.36,5.42c0,6.19-3.95,8.55-8.21,8.55h-6.13L37.03,32.01z M41.86,31.46h1.09c2.88,0,4.39-2.35,4.39-5.71
		c0-1.95-0.67-3.23-2.86-3.23h-1.03L41.86,31.46z"/>
	<path class="st1" d="M51.48,32.01l0.59-0.06c0.48-0.06,0.57-0.13,0.67-0.69l1.62-9.07l-1.11-0.08l0.36-2.06h10.29l-0.63,3.63
		l-2.67,0.15l0.15-0.88c0.06-0.42-0.06-0.52-0.42-0.52H57.9l-0.55,3.17h4.75l-0.46,2.52h-4.72l-0.63,3.53h2.6
		c0.36,0,0.5-0.06,0.61-0.5l0.21-0.9l2.67-0.06L61.68,34H51.12L51.48,32.01z"/>
	<path class="st1" d="M72.2,30.43h-3.88l-0.76,1.45l1.05,0.06L68.23,34h-5.52l0.36-1.99l0.61-0.06c0.36-0.06,0.48-0.13,0.71-0.52
		l4.64-9.22l-1.09-0.1l0.34-2.06h5.86l1.99,11.51c0.06,0.4,0.15,0.46,0.63,0.46c0.06,0,0.25,0,0.42-0.02c0.1,0,0.21,0,0.34-0.02
		l-0.36,2.02c-0.57,0.15-1.43,0.27-2.12,0.27c-1.76,0-2.37-0.63-2.6-2.46L72.2,30.43z M69.16,28.16h3.02l-0.59-4.91h-0.1
		L69.16,28.16z"/>
	<path class="st1" d="M90.7,34h-3.78l-0.44-8.36h-0.11L83.04,34h-3.86l-0.65-11.78l-0.99-0.13l0.38-2.06h5.69l-0.36,2.02l-0.65,0.06
		c-0.4,0.04-0.59,0.27-0.59,0.69l0.11,6.61h0.06l3.3-8.34h3.65l0.36,8.06h0.08l2.65-6.97l-1.13-0.1l0.38-2.04h5.42l-0.34,1.99
		l-0.5,0.04c-0.4,0.02-0.57,0.19-0.8,0.67L90.7,34z"/>
	<path class="st1" d="M102.8,30.43h-3.88l-0.76,1.45l1.05,0.06L98.83,34h-5.52l0.36-1.99l0.61-0.06c0.36-0.06,0.48-0.13,0.71-0.52
		l4.64-9.22l-1.09-0.1l0.34-2.06h5.86l2,11.51c0.06,0.4,0.15,0.46,0.63,0.46c0.06,0,0.25,0,0.42-0.02c0.11,0,0.21,0,0.34-0.02
		l-0.36,2.02c-0.57,0.15-1.43,0.27-2.12,0.27c-1.76,0-2.37-0.63-2.6-2.46L102.8,30.43z M99.76,28.16h3.02l-0.59-4.91h-0.1
		L99.76,28.16z"/>
	<path class="st1" d="M111.35,28.79l-2.5-6.59l-0.92-0.1l0.36-2.06h5.9l-0.36,1.99l-0.57,0.04c-0.38,0.02-0.5,0.23-0.4,0.63
		l0.99,3.21h0.06l2.58-3.76l-0.9-0.08l0.36-2.04h5l-0.34,1.99l-0.46,0.04c-0.42,0.06-0.63,0.23-0.9,0.63l-4.28,5.98l-0.55,3.17
		l1.41,0.08L115.46,34h-6.53l0.36-1.97l0.9-0.08c0.42-0.06,0.61-0.15,0.71-0.67L111.35,28.79z"/>
	<path class="st1" d="M131.21,20.04l1.18,8.42h0.08l4.28-8.42h5.35l-0.36,1.99l-0.69,0.06c-0.36,0.02-0.57,0.23-0.61,0.67
		l-1.01,9.11l1.11,0.06L140.2,34h-5.52l0.36-2.02l0.65-0.06c0.4-0.06,0.5-0.19,0.57-0.69l0.8-5.88h-0.08l-3.95,7.24h-2.56l-1.26-7.1
		h-0.06l-1.51,6.38l1.03,0.06L128.27,34h-5.5l0.36-2.02l0.69-0.06c0.4-0.06,0.52-0.21,0.67-0.71l2.31-9.05l-1.13-0.08l0.36-2.04
		H131.21z"/>
	<path class="st1" d="M147.95,34.27c-3.59,0-5.52-1.91-5.52-5.67c0-6.03,3.76-8.84,7.68-8.84c3.13,0,5.4,1.7,5.4,5.58
		C155.51,30.64,152.61,34.27,147.95,34.27z M146.19,28.6c0,1.57,0.57,2.69,2.18,2.69c2.04,0,3.38-2.58,3.38-5.75
		c0-1.53-0.42-2.75-2.02-2.75C146.94,22.79,146.19,26.25,146.19,28.6z"/>
	<path class="st1" d="M168.28,29.7c-0.52,3.13-2.5,4.58-5.94,4.58c-3.65,0-5.79-1.51-5.12-5.14l1.24-6.95l-1.11-0.08l0.38-2.06h5.92
		l-0.36,1.99l-0.69,0.06c-0.36,0.02-0.53,0.15-0.61,0.63l-1.22,6.8c-0.27,1.68,0.48,2.16,1.83,2.16c1.32,0,2.14-0.65,2.39-2.08
		l1.32-7.43l-0.99-0.08l0.38-2.06h5.44l-0.36,1.99l-0.65,0.06c-0.4,0.06-0.54,0.15-0.63,0.63L168.28,29.7z"/>
	<path class="st1" d="M182.68,34h-3.19l-3.59-8.42h-0.06l-1.11,6.3l1.2,0.08L175.56,34h-5.75l0.36-1.99l0.71-0.06
		c0.36-0.06,0.5-0.13,0.59-0.61l1.62-9.18L172,22.07l0.36-2.04h4.47l3.46,8.36h0.04l1.11-6.24l-1.2-0.08l0.36-2.04h5.73l-0.36,1.99
		l-0.69,0.06c-0.4,0.06-0.52,0.15-0.61,0.63L182.68,34z"/>
	<path class="st1" d="M191.25,22.41h-1.18c-0.44,0-0.55,0.21-0.61,0.57l-0.25,1.18l-2.71,0.1l0.71-4.22h12.43l-0.69,4.05l-2.69,0.17
		l0.21-1.26c0.06-0.4,0-0.59-0.42-0.59h-1.2l-1.68,9.43l1.49,0.13L194.32,34h-6.61l0.36-1.99l0.99-0.08
		c0.42-0.06,0.54-0.17,0.65-0.67L191.25,22.41z"/>
	<path class="st1" d="M205.89,30.43H202l-0.76,1.45l1.05,0.06L201.92,34h-5.52l0.36-1.99l0.61-0.06c0.36-0.06,0.48-0.13,0.71-0.52
		l4.64-9.22l-1.09-0.1l0.34-2.06h5.86l1.99,11.51c0.06,0.4,0.15,0.46,0.63,0.46c0.06,0,0.25,0,0.42-0.02c0.1,0,0.21,0,0.34-0.02
		l-0.36,2.02c-0.57,0.15-1.43,0.27-2.12,0.27c-1.76,0-2.37-0.63-2.6-2.46L205.89,30.43z M202.84,28.16h3.02l-0.59-4.91h-0.11
		L202.84,28.16z"/>
	<path class="st1" d="M214.67,22.18l-1.13-0.08l0.36-2.06h5.96l-0.36,1.99l-0.69,0.06c-0.4,0.06-0.53,0.15-0.61,0.63l-1.62,9.13
		l1.11,0.1L217.33,34h-5.94l0.36-1.99l0.67-0.06c0.4-0.06,0.53-0.15,0.63-0.67L214.67,22.18z"/>
	<path class="st1" d="M231.49,34h-3.19l-3.59-8.42h-0.06l-1.11,6.3l1.2,0.08L224.37,34h-5.75l0.36-1.99l0.71-0.06
		c0.36-0.06,0.5-0.13,0.59-0.61l1.62-9.18l-1.09-0.08l0.36-2.04h4.47l3.46,8.36h0.04l1.11-6.24l-1.2-0.08l0.36-2.04h5.73l-0.36,1.99
		l-0.69,0.06c-0.4,0.06-0.53,0.15-0.61,0.63L231.49,34z"/>
	<path class="st1" d="M242.83,20.04c2.27,0,4.2,0.65,4.2,3.02c0,1.76-1.16,2.92-2.73,3.42c1.45,0.25,2.31,1.34,2.31,2.92
		c0,2.79-2.29,4.6-6.51,4.6h-6.28l0.36-1.99l0.63-0.06c0.4-0.06,0.55-0.17,0.63-0.67l1.62-9.09l-1.11-0.08l0.36-2.06H242.83z
		 M238.98,31.56h1.3c1.89,0,2.48-1.05,2.48-2.14c0-0.99-0.59-1.49-1.78-1.49h-1.34L238.98,31.56z M240.04,25.69H241
		c1.58,0,2.25-0.9,2.25-2.06c0-0.92-0.59-1.26-1.58-1.26h-1.05L240.04,25.69z"/>
	<path class="st1" d="M250.3,22.18l-1.13-0.08l0.36-2.06h5.96l-0.36,1.99l-0.69,0.06c-0.4,0.06-0.53,0.15-0.61,0.63l-1.62,9.13
		l1.11,0.1L252.97,34h-5.94l0.36-1.99l0.67-0.06c0.4-0.06,0.53-0.15,0.63-0.67L250.3,22.18z"/>
	<path class="st1" d="M254.25,34l0.36-1.99l0.67-0.08c0.36-0.06,0.53-0.17,0.59-0.57l1.62-9.18l-1.11-0.08l0.34-2.06h5.75
		l-0.36,2.02l-0.55,0.04c-0.31,0.02-0.52,0.21-0.59,0.57l-0.61,3.42l4.33-3.88v-0.08l-0.86-0.08l0.36-1.99h5.12l-0.36,1.97
		l-0.59,0.06c-0.42,0.06-0.61,0.25-0.92,0.57l-3.13,3.07l2.12,5.5c0.15,0.4,0.29,0.61,0.71,0.61h0.48c0.11,0,0.19,0,0.29-0.02
		l-0.36,2.16c-0.53,0.17-1.43,0.27-2.16,0.27c-1.62,0-2.08-0.63-2.52-1.91l-1.55-4.26l-1.55,1.36l-0.42,2.46l1.07,0.08L260.07,34
		H254.25z"/>
	<path class="st1" d="M268.76,32.01l0.59-0.06c0.48-0.06,0.57-0.13,0.67-0.69l1.62-9.07l-1.11-0.08l0.36-2.06h10.29l-0.63,3.63
		l-2.67,0.15l0.15-0.88c0.06-0.42-0.06-0.52-0.42-0.52h-2.41l-0.55,3.17h4.75l-0.46,2.52h-4.72l-0.63,3.53h2.6
		c0.36,0,0.5-0.06,0.61-0.5l0.21-0.9l2.67-0.06L278.97,34h-10.56L268.76,32.01z"/>
	<path class="st1" d="M284.72,32.01l0.65-0.06c0.4-0.06,0.5-0.17,0.61-0.67l1.62-9.09l-1.11-0.08l0.36-2.06h6.03
		c3.04,0,4.85,1.34,4.85,3.97c0,3.49-2.52,5.38-6.51,5.38h-1.26l-0.44,2.48l1.93,0.08L291.06,34h-6.7L284.72,32.01z M291.21,26.95
		c1.68,0,2.75-0.78,2.75-2.79c0-1.28-0.73-1.64-1.93-1.64h-0.88l-0.78,4.43H291.21z"/>
	<path class="st1" d="M304.67,30.43h-3.88l-0.76,1.45l1.05,0.06L300.7,34h-5.52l0.36-1.99l0.61-0.06c0.36-0.06,0.48-0.13,0.71-0.52
		l4.64-9.22l-1.09-0.1l0.34-2.06h5.86l1.99,11.51c0.06,0.4,0.15,0.46,0.63,0.46c0.06,0,0.25,0,0.42-0.02c0.1,0,0.21,0,0.34-0.02
		l-0.36,2.02c-0.57,0.15-1.43,0.27-2.12,0.27c-1.76,0-2.37-0.63-2.6-2.46L304.67,30.43z M301.63,28.16h3.02l-0.59-4.91h-0.11
		L301.63,28.16z"/>
	<path class="st1" d="M310.57,32.01l0.67-0.06c0.4-0.06,0.5-0.17,0.59-0.67l1.62-9.09l-1.11-0.08l0.36-2.06h6.17
		c2.62,0,4.66,0.94,4.66,3.44c0,2.23-1.55,3.46-3.55,3.97c0.76,0.17,1.13,0.69,1.45,1.45l0.88,2.39c0.15,0.4,0.27,0.52,0.67,0.52
		h0.46c0.11,0,0.21,0,0.32-0.02l-0.34,2.16c-0.52,0.17-1.41,0.27-2.14,0.27c-1.6,0-2.02-0.67-2.39-1.89l-0.84-2.48
		c-0.32-0.9-0.65-1.09-1.39-1.09h-0.78l-0.54,3.11l0.88,0.08L315.86,34h-5.65L310.57,32.01z M317.4,26.48c1.51,0,2.33-0.9,2.33-2.52
		c0-1.07-0.61-1.45-1.78-1.45H317l-0.69,3.97H317.4z"/>
	<path class="st1" d="M324.12,34l0.36-1.99l0.67-0.08c0.36-0.06,0.53-0.17,0.59-0.57l1.62-9.18l-1.11-0.08l0.34-2.06h5.75
		l-0.36,2.02l-0.55,0.04c-0.31,0.02-0.52,0.21-0.59,0.57l-0.61,3.42l4.33-3.88v-0.08l-0.86-0.08l0.36-1.99h5.12l-0.36,1.97
		l-0.59,0.06c-0.42,0.06-0.61,0.25-0.92,0.57l-3.13,3.07l2.12,5.5c0.15,0.4,0.29,0.61,0.71,0.61h0.48c0.11,0,0.19,0,0.29-0.02
		l-0.36,2.16c-0.53,0.17-1.43,0.27-2.16,0.27c-1.62,0-2.08-0.63-2.52-1.91l-1.55-4.26l-1.55,1.36l-0.42,2.46l1.07,0.08L329.93,34
		H324.12z"/>
</g>
</svg>
