<?xml version="1.0" encoding="utf-8"?>
<!-- Generator: Adobe Illustrator 25.0.0, SVG Export Plug-In . SVG Version: 6.00 Build 0)  -->
<svg version="1.1" id="Layer_1" xmlns="http://www.w3.org/2000/svg" xmlns:xlink="http://www.w3.org/1999/xlink" x="0px" y="0px"
	 viewBox="0 0 720 288" style="enable-background:new 0 0 720 288;" xml:space="preserve">
<style type="text/css">
	.st0{fill:#A66A5B;stroke:#000000;stroke-miterlimit:10;}
	.st1{fill:#F1AB6D;stroke:#000000;stroke-miterlimit:10;}
	.st2{fill:#F1AB6D;}
</style>
<polyline class="st0" points="279.92,197.75 174.85,114.74 157.76,68.62 149.47,84.17 130.3,117.84 122.52,89.87 53.78,240.53 "/>
<polyline class="st0" points="526.49,185.86 484.7,132.09 471.2,168.2 "/>
<polyline class="st1" points="123.31,219.76 82.89,103.18 19.16,225.46 "/>
<polyline class="st0" points="582.84,213.86 506.46,119.92 438.12,225.46 "/>
<polyline class="st0" points="261.29,171.71 218.9,118.36 184.02,159.22 "/>
<polyline class="st1" points="269.08,227.66 175.37,125.46 127.08,207.58 "/>
<polyline class="st1" points="184.02,209.58 283.15,95.85 297.13,120.21 370.33,209.58 "/>
<polyline class="st1" points="541.16,269.84 468.64,132.09 431.33,94.53 414.23,112.15 308.07,192.27 "/>
<polyline class="st1" points="613.32,236.26 549.98,135.46 523.41,213.88 "/>
<polyline class="st1" points="663.06,221.96 622.64,105.38 558.91,227.66 "/>
<rect y="208" class="st2" width="720" height="80"/>
<polyline class="st1" points="720,208.16 679.59,91.58 615.85,213.86 "/>
</svg>
